<svg width="324" height="77" viewBox="0 0 324 77" fill="none" xmlns="http://www.w3.org/2000/svg">
<path d="M36.7225 0.743073L35.8632 0.787109L31.7097 3.22023C18.3238 11.0701 9.01426 16.9052 6.17183 19.2172C5.46672 19.8007 5.02604 20.3071 5.13621 20.4062C5.26842 20.5053 26.1791 30.3919 26.2672 30.3919C26.3223 30.3919 26.5536 30.1167 26.774 29.7754C27.2698 29.0267 28.735 27.4854 29.5173 26.8799C33.4063 23.8963 38.6064 23.3568 42.9913 25.4927C46.4617 27.1771 48.9296 30.1938 49.9431 33.9921C50.2076 34.9609 50.2296 35.2692 50.2406 37.0527C50.2406 38.8473 50.2076 39.1336 49.9542 40.0804C49.7999 40.6529 49.6347 41.2034 49.6016 41.2914C49.5465 41.4346 51.9373 42.6126 61.2358 47.0164C67.6698 50.0771 72.9801 52.5763 73.0462 52.5763C73.1013 52.5763 73.3106 52.1469 73.5089 51.6295C74.4013 49.3064 75.2056 46.1026 75.5912 43.2732C75.8335 41.5006 75.9327 37.1739 75.7674 35.2141C74.4233 19.2722 63.2519 6.00566 47.7397 1.93211C44.4235 1.06235 40.0387 0.588936 36.7225 0.743073Z" fill="#075AE1"/>
<path d="M2.78961 25.3605C1.86416 27.8707 1.17008 30.7442 0.762443 33.6948C0.475996 35.7976 0.475996 40.9391 0.762443 43.053C1.74297 50.2312 4.3871 56.4627 8.83805 62.0445C10.0499 63.5639 12.7602 66.2722 14.2805 67.5053C20.2078 72.3055 26.8622 75.0469 34.5522 75.8726C35.2463 75.9497 36.9649 76.0047 38.3641 76.0047L40.9091 76.0157L43.1566 74.7056C59.3409 65.3254 71.1843 57.7288 70.9971 56.848C70.964 56.7159 47.6626 45.365 47.4203 45.365C47.3762 45.365 46.9355 45.7613 46.4507 46.2347C43.5753 49.0862 39.4989 50.4294 35.5437 49.8349C30.6741 49.0972 26.6969 45.7503 25.1435 41.0712C24.6257 39.4859 24.4825 38.4179 24.5706 36.5243C24.6037 35.6655 24.6477 34.8178 24.6587 34.6526C24.6918 34.3444 24.5926 34.2893 14.6661 29.5001C9.15754 26.8358 4.33201 24.5128 3.95743 24.3366L3.27436 24.0284L2.78961 25.3605Z" fill="#075AE1"/>
<path d="M260.289 18.9597C258.878 19.299 257.602 20.5066 257.236 21.8364C256.883 23.1662 257.426 25.1474 258.376 25.948C260.045 27.3592 262.732 27.3592 264.374 25.9615C264.604 25.7716 264.971 25.2966 265.188 24.8896C265.554 24.2382 265.595 24.0482 265.595 22.9491C265.595 21.85 265.554 21.66 265.188 21.0087C264.726 20.1538 264.224 19.6925 263.261 19.2582C262.474 18.8919 261.13 18.7562 260.289 18.9597Z" fill="#075AE1"/>
<path d="M183.975 39.1646V57.3476H187.503H191.031V49.3688C191.031 40.8065 191.071 40.3316 191.75 38.8389C192.659 36.8714 194.545 35.7587 197.001 35.7587C197.666 35.7587 198.467 35.8265 198.792 35.9079C200.271 36.315 201.574 37.3327 202.212 38.6083C203.026 40.1959 203.013 40.1416 203.08 49.0974L203.121 57.3476H206.581H210.041L210.001 48.0797L209.946 38.8254L209.594 37.5227C208.21 32.4477 204.695 29.8017 199.376 29.8017C196.146 29.8017 193.772 30.6702 191.682 32.6241L191.031 33.2348V27.1014V20.9816H187.503H183.975V39.1646Z" fill="#075AE1"/>
<path d="M99.9256 22.7592C95.8547 23.2205 92.2317 24.9981 89.5178 27.8613C87.2517 30.2359 85.9084 32.8684 85.162 36.3557C84.7685 38.2419 84.7414 41.8785 85.1078 43.7782C85.8269 47.4419 87.2789 50.2372 89.7892 52.7476C92.286 55.2579 95.2577 56.7777 98.9486 57.4426C100.618 57.7411 103.956 57.7411 105.679 57.429C111.161 56.452 115.368 53.3039 117.62 48.4868C117.919 47.849 118.204 47.1434 118.244 46.9127L118.339 46.4921H114.35H110.36L109.967 47.2113C109.75 47.5912 109.099 48.3782 108.542 48.9482C106.819 50.6715 104.906 51.4042 102.097 51.3906C97.3067 51.3771 93.6972 48.5004 92.4217 43.6696C92.1096 42.5162 92.0689 42.082 92.0689 40.1823C92.0689 38.2826 92.1096 37.8484 92.4217 36.695C93.7108 31.8507 97.3202 28.9875 102.151 28.9875C103.847 28.9875 105.299 29.2996 106.629 29.9781C107.701 30.5073 109.397 32.1221 109.967 33.1533L110.36 33.8725H114.35H118.339L118.244 33.4519C118.122 32.8277 117.064 30.643 116.426 29.7067C114.689 27.1557 112.464 25.3238 109.614 24.089C106.778 22.8677 103.209 22.3792 99.9256 22.7592Z" fill="#075AE1"/>
<path d="M133.021 29.8152C130.118 30.2359 127.322 31.8371 125.49 34.1168C121.08 39.6395 121.501 49.3959 126.359 54.2945C127.987 55.9364 129.67 56.9134 131.895 57.5104C133.456 57.9175 136.319 57.9175 137.906 57.4969C139.725 57.0219 141.394 56.0992 142.696 54.8373L143.809 53.7517V55.5429V57.3476H147.337H150.865V43.7103V30.0731H147.337H143.809V31.8914V33.7232L142.819 32.7462C140.39 30.358 136.767 29.2725 133.021 29.8152ZM138.531 36.125C141.15 36.8985 143.063 39.0832 143.606 41.9327C144.61 47.157 141.394 51.662 136.685 51.6485C135.505 51.6349 134.745 51.472 133.7 50.97C131.352 49.8437 129.805 47.3198 129.602 44.2938C129.344 40.3315 131.447 37.0342 134.813 36.1115C135.735 35.8536 137.635 35.8672 138.531 36.125Z" fill="#075AE1"/>
<path d="M165.181 29.8153C159.699 30.5616 156.266 34.0489 156.619 38.4861C156.782 40.4808 157.379 41.7564 158.763 43.0319C160.283 44.4295 161.748 45.0673 166.267 46.2343C169.903 47.1841 170.962 47.6591 171.599 48.5953C171.952 49.0974 171.993 49.9794 171.708 50.5358C170.785 52.2998 167.569 52.8833 165.222 51.7027C164.096 51.1328 163.091 49.8573 163.078 48.9617V48.6632H159.55H156.022V49.1517C156.022 49.9252 156.402 51.2278 156.944 52.2591C157.284 52.9376 157.786 53.5618 158.654 54.4302C159.726 55.5022 160.079 55.76 161.314 56.3706C164.231 57.809 167.8 58.2296 171.206 57.5376C175.955 56.5606 178.968 53.1275 178.615 49.0974C178.438 47.062 177.841 45.7865 176.444 44.4838C175.209 43.3168 173.418 42.4755 170.541 41.6749C164.693 40.0466 163.892 39.6531 163.485 38.2012C163.186 37.1563 163.96 35.9894 165.208 35.5823C167.149 34.9581 169.198 35.2702 170.541 36.41C171.016 36.8035 171.627 37.9433 171.627 38.4454V38.7575H175.032H178.438L178.343 38.1062C178.018 35.7858 177.258 34.2118 175.765 32.7191C173.798 30.738 171.423 29.8424 167.963 29.7338C166.959 29.7067 165.71 29.7338 165.181 29.8153Z" fill="#075AE1"/>
<path d="M279.164 29.8153C273.682 30.5616 270.249 34.0489 270.602 38.4861C270.765 40.4808 271.362 41.7564 272.746 43.0319C274.266 44.4295 275.731 45.0673 280.25 46.2343C283.886 47.1841 284.945 47.6591 285.583 48.5953C285.935 49.0974 285.976 49.9794 285.691 50.5358C284.768 52.2998 281.552 52.8833 279.205 51.7027C278.079 51.1328 277.075 49.8573 277.061 48.9617V48.6632H273.533H270.005V49.1517C270.005 49.9252 270.385 51.2278 270.928 52.2591C271.267 52.9376 271.769 53.5618 272.637 54.4302C273.709 55.5022 274.062 55.76 275.297 56.3706C278.214 57.809 281.783 58.2296 285.189 57.5376C289.938 56.5606 292.951 53.1275 292.598 49.0974C292.422 47.062 291.825 45.7865 290.427 44.4838C289.192 43.3168 287.401 42.4755 284.524 41.6749C278.676 40.0466 277.875 39.6531 277.468 38.2012C277.17 37.1563 277.943 35.9894 279.191 35.5823C281.132 34.9581 283.181 35.2702 284.524 36.41C284.999 36.8035 285.61 37.9433 285.61 38.4454V38.7575H289.016H292.422L292.327 38.1062C292.001 35.7858 291.241 34.2118 289.748 32.7191C287.781 30.738 285.406 29.8424 281.946 29.7338C280.942 29.7067 279.693 29.7338 279.164 29.8153Z" fill="#075AE1"/>
<path d="M308.406 29.7474C305.462 30.1681 303.847 30.738 301.961 32.0135C299.505 33.669 297.714 36.3015 296.927 39.4088C296.153 42.4755 296.235 46.0714 297.171 48.9346C297.822 50.9564 298.962 52.7747 300.482 54.2402C302.694 56.3435 305.15 57.4155 308.624 57.7819C313.929 58.3382 318.868 56.0721 321.474 51.9063C322.03 51.0107 322.79 49.2874 322.79 48.9346C322.79 48.8532 321.379 48.7989 319.004 48.7989H315.218L315.042 49.2195C314.77 49.898 313.576 51.0243 312.708 51.4314C309.628 52.8833 305.72 51.5806 304.268 48.6089C303.915 47.8762 303.521 46.6278 303.521 46.18C303.521 45.9629 304.078 45.9493 313.414 45.9493H323.319L323.414 45.3251C323.455 44.9859 323.469 43.7104 323.428 42.5162C323.319 39.341 322.763 37.4684 321.216 35.148C319.262 32.2035 315.992 30.2902 312.07 29.8017C310.985 29.6796 309.139 29.6524 308.406 29.7474ZM311.704 35.7044C313.305 36.125 314.716 37.102 315.422 38.3097C315.802 38.9746 316.277 40.3723 316.277 40.8743V41.2H309.886C303.874 41.2 303.508 41.1864 303.576 40.9558C303.616 40.8336 303.711 40.4537 303.793 40.1145C304.322 38.0519 306.072 36.2607 308.121 35.6908C308.99 35.4601 310.781 35.4601 311.704 35.7044Z" fill="#075AE1"/>
<path d="M213.42 30.1681C213.42 30.2359 215.211 36.3557 217.396 43.7782L221.372 57.2798L225.185 57.3205L229.011 57.3476L229.134 56.9134C229.201 56.6692 230.287 52.5169 231.535 47.6862C232.797 42.8555 233.856 38.9339 233.896 38.9746C233.937 39.0153 235.036 43.1405 236.352 48.1611L238.727 57.2798L242.527 57.3205L246.326 57.3476L250.261 43.9003C252.432 36.505 254.21 30.3581 254.237 30.2631C254.278 30.1002 253.708 30.0731 250.912 30.0731H247.547L245.173 40.2773L242.798 50.4815L240.288 40.3044L237.764 30.1409L234.086 30.1002L230.396 30.0731L230.273 30.5073C230.206 30.7516 229.066 35.338 227.722 40.6844C226.393 46.0307 225.28 50.3865 225.253 50.3594C225.226 50.3458 224.154 45.7729 222.864 40.223L220.531 30.1409L216.975 30.1002C215.021 30.0867 213.42 30.1138 213.42 30.1681Z" fill="#075AE1"/>
<path d="M257.792 43.7104V57.3476H261.32H264.848V43.7104V30.0731H261.32H257.792V43.7104Z" fill="#075AE1"/>
</svg>
