<svg width="90" height="28" viewBox="0 0 90 28" fill="none" xmlns="http://www.w3.org/2000/svg">
<mask id="path-1-inside-1_369_16587" fill="white">
<rect x="5" y="6" width="30" height="22" rx="2"/>
</mask>
<rect x="5" y="6" width="30" height="22" rx="2" stroke="white" stroke-width="5" mask="url(#path-1-inside-1_369_16587)"/>
<path d="M32.8473 7.75L20 15.5382L7.15272 7.75L32.8473 7.75ZM6.38767 7.28621C6.38779 7.28629 6.38791 7.28636 6.38803 7.28643L6.38767 7.28621Z" stroke="white" stroke-width="2.5"/>
<path d="M67.2371 3.3843C67.2371 5.25339 65.617 6.7686 63.6186 6.7686C61.6201 6.7686 60 5.25339 60 3.3843C60 1.5152 61.6201 0 63.6186 0C65.617 0 67.2371 1.5152 67.2371 3.3843Z" fill="white"/>
<path d="M60.4948 9.2562H66.6804V28H60.4948V9.2562Z" fill="white"/>
<path d="M76.6392 9.2562H70.4536V28H76.6392C76.6392 28 76.6392 22.0992 76.6392 18.4097C76.6392 16.1952 77.3953 13.9711 80.4124 13.9711C83.822 13.9711 83.8015 16.8691 83.7856 19.1142C83.7648 22.0489 83.8144 25.0437 83.8144 28H90V18.1074C89.9476 11.7908 88.3016 8.88017 82.8866 8.88017C79.6708 8.88017 77.6774 10.3401 76.6392 11.661V9.2562Z" fill="white"/>
</svg>
