<svg width="59" height="59" viewBox="0 0 59 59" fill="none" xmlns="http://www.w3.org/2000/svg">
<rect width="59" height="59" rx="29.5" fill="#A9A9A9" fill-opacity="0.2"/>
<path d="M17.6875 26.0875C17.6875 23.1472 17.6875 21.6771 18.2597 20.554C18.7631 19.5662 19.5662 18.7631 20.554 18.2597C21.6771 17.6875 23.1472 17.6875 26.0875 17.6875H32.9125C35.8528 17.6875 37.3229 17.6875 38.4459 18.2597C39.4338 18.7631 40.2369 19.5662 40.7403 20.554C41.3125 21.6771 41.3125 23.1472 41.3125 26.0875V32.9125C41.3125 35.8528 41.3125 37.3229 40.7403 38.4459C40.2369 39.4338 39.4338 40.2369 38.4459 40.7403C37.3229 41.3125 35.8528 41.3125 32.9125 41.3125H26.0875C23.1472 41.3125 21.6771 41.3125 20.554 40.7403C19.5662 40.2369 18.7631 39.4338 18.2597 38.4459C17.6875 37.3229 17.6875 35.8528 17.6875 32.9125V26.0875Z" fill="white"/>
<path d="M34.6059 23.1912L29.5543 27.1336L24.3872 23.1912V23.1923L24.3934 23.1976V28.718L29.4961 32.7456L34.6059 28.8736V23.1912Z" fill="#EA4335"/>
<path d="M35.9321 22.2323L34.6055 23.1912V28.8735L38.7799 25.6685V23.7378C38.7799 23.7378 38.2732 20.9803 35.9321 22.2323Z" fill="#FBBC05"/>
<path d="M34.6055 28.8736V36.2437H37.805C37.805 36.2437 38.7154 36.15 38.781 35.1122V25.6686L34.6055 28.8736Z" fill="#34A853"/>
<path d="M24.3937 36.2499V28.7179L24.3872 28.7126L24.3937 36.2499Z" fill="#C5221F"/>
<path d="M24.387 23.1924L23.0676 22.2387C20.7265 20.9868 20.2188 23.7432 20.2188 23.7432V25.6739L24.387 28.7127V23.1924Z" fill="#C5221F"/>
<path d="M24.3872 23.1923V28.7126L24.3937 28.718V23.1976L24.3872 23.1923Z" fill="#C5221F"/>
<path d="M20.2188 25.6749V35.1185C20.2833 36.1573 21.1947 36.25 21.1947 36.25H24.3943L24.387 28.7127L20.2188 25.6749Z" fill="#4285F4"/>
</svg>
