<svg width="285" height="125" viewBox="0 0 285 125" fill="none" xmlns="http://www.w3.org/2000/svg">
<rect x="113" width="59" height="59" rx="29.5" fill="#A9A9A9" fill-opacity="0.2"/>
<path d="M130.688 26.0875C130.688 23.1472 130.688 21.6771 131.26 20.554C131.763 19.5662 132.566 18.7631 133.554 18.2597C134.677 17.6875 136.147 17.6875 139.087 17.6875H145.912C148.853 17.6875 150.323 17.6875 151.446 18.2597C152.434 18.7631 153.237 19.5662 153.74 20.554C154.312 21.6771 154.312 23.1472 154.312 26.0875V32.9125C154.312 35.8528 154.312 37.3229 153.74 38.4459C153.237 39.4338 152.434 40.2369 151.446 40.7403C150.323 41.3125 148.853 41.3125 145.912 41.3125H139.087C136.147 41.3125 134.677 41.3125 133.554 40.7403C132.566 40.2369 131.763 39.4338 131.26 38.4459C130.688 37.3229 130.688 35.8528 130.688 32.9125V26.0875Z" fill="white"/>
<path d="M147.606 23.1912L142.554 27.1336L137.387 23.1912V23.1923L137.393 23.1976V28.718L142.496 32.7456L147.606 28.8736V23.1912Z" fill="#EA4335"/>
<path d="M148.932 22.2323L147.605 23.1912V28.8735L151.78 25.6685V23.7378C151.78 23.7378 151.273 20.9803 148.932 22.2323Z" fill="#FBBC05"/>
<path d="M147.605 28.8736V36.2437H150.805C150.805 36.2437 151.715 36.15 151.781 35.1122V25.6686L147.605 28.8736Z" fill="#34A853"/>
<path d="M137.394 36.2499V28.7179L137.387 28.7126L137.394 36.2499Z" fill="#C5221F"/>
<path d="M137.387 23.1924L136.068 22.2387C133.727 20.9868 133.219 23.7432 133.219 23.7432V25.6739L137.387 28.7127V23.1924Z" fill="#C5221F"/>
<path d="M137.387 23.1923V28.7126L137.394 28.718V23.1976L137.387 23.1923Z" fill="#C5221F"/>
<path d="M133.219 25.6749V35.1185C133.283 36.1573 134.195 36.25 134.195 36.25H137.394L137.387 28.7127L133.219 25.6749Z" fill="#4285F4"/>
<path d="M6.95781 111.988H8.18828V114H6.53789C5.35299 114 4.41875 113.658 3.73515 112.975C3.05156 112.285 2.70976 111.344 2.70976 110.152V105.104H0.776169V104.674L4.53593 100.68H4.91679V103.199H8.12968V105.104H4.93633V109.977C4.93633 110.621 5.10885 111.119 5.4539 111.471C5.80547 111.816 6.30677 111.988 6.95781 111.988ZM20.693 108.629C20.693 108.837 20.6767 109.078 20.6441 109.352H11.8746C12.0113 110.224 12.3759 110.914 12.9684 111.422C13.5608 111.93 14.2997 112.184 15.1852 112.184C15.8232 112.184 16.3928 112.044 16.8941 111.764C17.4019 111.484 17.7991 111.096 18.0855 110.602H20.4293C19.9996 111.741 19.3193 112.636 18.3883 113.287C17.4573 113.938 16.3896 114.264 15.1852 114.264C13.6096 114.264 12.2913 113.723 11.2301 112.643C10.1689 111.555 9.63828 110.208 9.63828 108.6C9.63828 107.538 9.87916 106.575 10.3609 105.709C10.8427 104.843 11.5068 104.166 12.3531 103.678C13.1995 103.183 14.1435 102.936 15.1852 102.936C16.2594 102.936 17.2197 103.193 18.066 103.707C18.9124 104.215 19.5602 104.902 20.0094 105.768C20.4651 106.627 20.693 107.581 20.693 108.629ZM15.1852 104.938C14.3583 104.938 13.6552 105.172 13.0758 105.641C12.4964 106.109 12.1155 106.747 11.9332 107.555H18.4664C18.2646 106.734 17.8707 106.093 17.2848 105.631C16.7053 105.169 16.0055 104.938 15.1852 104.938ZM32.3578 103.199H33.8519V117.867H31.6352V112.965C30.626 113.837 29.4314 114.273 28.0512 114.273C27.2569 114.273 26.5115 114.13 25.8148 113.844C25.1182 113.551 24.5258 113.154 24.0375 112.652C23.5492 112.151 23.1618 111.552 22.8754 110.855C22.5954 110.152 22.4555 109.4 22.4555 108.6C22.4555 107.799 22.5954 107.047 22.8754 106.344C23.1618 105.641 23.5492 105.042 24.0375 104.547C24.5323 104.046 25.1247 103.652 25.8148 103.365C26.5115 103.079 27.2569 102.936 28.0512 102.936C29.6006 102.936 30.8962 103.466 31.9379 104.527L32.3578 103.199ZM25.6977 111.139C26.3617 111.809 27.2016 112.145 28.2172 112.145C29.2328 112.145 30.0759 111.806 30.7465 111.129C31.4236 110.452 31.7621 109.609 31.7621 108.6C31.7621 107.59 31.4236 106.747 30.7465 106.07C30.0759 105.393 29.2328 105.055 28.2172 105.055C27.2016 105.055 26.3617 105.393 25.6977 106.07C25.0336 106.741 24.7016 107.584 24.7016 108.6C24.7016 109.615 25.0336 110.462 25.6977 111.139ZM42.05 111.988H43.2805V114H41.6301C40.4452 114 39.5109 113.658 38.8273 112.975C38.1437 112.285 37.8019 111.344 37.8019 110.152V105.104H35.8684V104.674L39.6281 100.68H40.009V103.199H43.2219V105.104H40.0285V109.977C40.0285 110.621 40.201 111.119 40.5461 111.471C40.8977 111.816 41.399 111.988 42.05 111.988ZM55.7852 108.629C55.7852 108.837 55.7689 109.078 55.7363 109.352H46.9668C47.1035 110.224 47.4681 110.914 48.0605 111.422C48.653 111.93 49.3919 112.184 50.2773 112.184C50.9154 112.184 51.485 112.044 51.9863 111.764C52.4941 111.484 52.8913 111.096 53.1777 110.602H55.5215C55.0918 111.741 54.4115 112.636 53.4805 113.287C52.5495 113.938 51.4818 114.264 50.2773 114.264C48.7018 114.264 47.3835 113.723 46.3223 112.643C45.2611 111.555 44.7305 110.208 44.7305 108.6C44.7305 107.538 44.9714 106.575 45.4531 105.709C45.9349 104.843 46.599 104.166 47.4453 103.678C48.2917 103.183 49.2357 102.936 50.2773 102.936C51.3516 102.936 52.3118 103.193 53.1582 103.707C54.0046 104.215 54.6523 104.902 55.1016 105.768C55.5573 106.627 55.7852 107.581 55.7852 108.629ZM50.2773 104.938C49.4505 104.938 48.7474 105.172 48.168 105.641C47.5885 106.109 47.2077 106.747 47.0254 107.555H53.5586C53.3568 106.734 52.9629 106.093 52.3769 105.631C51.7975 105.169 51.0977 104.938 50.2773 104.938ZM66.7176 99.332H68.9344V114H67.2547L66.9715 112.779C65.9363 113.775 64.6668 114.273 63.1629 114.273C61.5418 114.273 60.2006 113.733 59.1395 112.652C58.0783 111.572 57.5477 110.221 57.5477 108.6C57.5477 106.972 58.075 105.621 59.1297 104.547C60.1909 103.473 61.5353 102.936 63.1629 102.936C64.5301 102.936 65.715 103.355 66.7176 104.195V99.332ZM60.8094 111.139C61.4734 111.809 62.3133 112.145 63.3289 112.145C64.3445 112.145 65.1876 111.806 65.8582 111.129C66.5353 110.452 66.8738 109.609 66.8738 108.6C66.8738 107.59 66.5353 106.747 65.8582 106.07C65.1876 105.393 64.3445 105.055 63.3289 105.055C62.3133 105.055 61.4734 105.393 60.8094 106.07C60.1453 106.741 59.8133 107.584 59.8133 108.6C59.8133 109.615 60.1453 110.462 60.8094 111.139ZM77.1715 114.264C76.1168 114.264 75.1565 114.016 74.2906 113.521C73.4247 113.027 72.7444 112.346 72.2496 111.48C71.7613 110.615 71.5172 109.651 71.5172 108.59C71.5172 107.529 71.7613 106.568 72.2496 105.709C72.7444 104.843 73.4247 104.166 74.2906 103.678C75.1565 103.183 76.12 102.936 77.1812 102.936C78.5094 102.936 79.6585 103.31 80.6285 104.059C81.5986 104.807 82.2333 105.803 82.5328 107.047H80.3355C80.0491 106.428 79.6259 105.943 79.066 105.592C78.5061 105.234 77.8746 105.055 77.1715 105.055C76.2014 105.055 75.3909 105.393 74.7398 106.07C74.0953 106.747 73.773 107.587 73.773 108.59C73.773 109.592 74.0986 110.436 74.7496 111.119C75.4006 111.803 76.2079 112.145 77.1715 112.145C77.8811 112.145 78.5094 111.962 79.0562 111.598C79.6096 111.233 80.0328 110.722 80.3258 110.064H82.5621C82.2626 111.327 81.6213 112.343 80.6383 113.111C79.6552 113.88 78.4996 114.264 77.1715 114.264ZM90.1352 103.141H91.0922V105.24H89.9203C89.0089 105.24 88.322 105.494 87.8598 106.002C87.3975 106.51 87.1664 107.255 87.1664 108.238V114H84.9496V103.199H86.4535L86.8246 104.674C87.5928 103.652 88.6964 103.141 90.1352 103.141ZM102.972 108.629C102.972 108.837 102.956 109.078 102.923 109.352H94.1535C94.2902 110.224 94.6548 110.914 95.2473 111.422C95.8397 111.93 96.5786 112.184 97.4641 112.184C98.1021 112.184 98.6717 112.044 99.173 111.764C99.6809 111.484 100.078 111.096 100.364 110.602H102.708C102.279 111.741 101.598 112.636 100.667 113.287C99.7362 113.938 98.6685 114.264 97.4641 114.264C95.8885 114.264 94.5702 113.723 93.509 112.643C92.4478 111.555 91.9172 110.208 91.9172 108.6C91.9172 107.538 92.1581 106.575 92.6398 105.709C93.1216 104.843 93.7857 104.166 94.632 103.678C95.4784 103.183 96.4224 102.936 97.4641 102.936C98.5383 102.936 99.4986 103.193 100.345 103.707C101.191 104.215 101.839 104.902 102.288 105.768C102.744 106.627 102.972 107.581 102.972 108.629ZM97.4641 104.938C96.6372 104.938 95.9341 105.172 95.3547 105.641C94.7753 106.109 94.3944 106.747 94.2121 107.555H100.745C100.543 106.734 100.15 106.093 99.5637 105.631C98.9842 105.169 98.2844 104.938 97.4641 104.938ZM114.568 103.189L116.277 103.199V113.99H114.49L114.275 112.682C113.781 113.183 113.198 113.574 112.527 113.854C111.857 114.127 111.134 114.264 110.359 114.264C109.305 114.264 108.348 114.02 107.488 113.531C106.629 113.036 105.955 112.356 105.467 111.49C104.979 110.618 104.734 109.651 104.734 108.59C104.734 107.522 104.979 106.559 105.467 105.699C105.955 104.833 106.629 104.156 107.488 103.668C108.348 103.18 109.305 102.936 110.359 102.936C111.141 102.936 111.87 103.076 112.547 103.355C113.224 103.635 113.81 104.033 114.305 104.547L114.568 103.189ZM107.996 111.129C108.667 111.799 109.51 112.135 110.525 112.135C111.541 112.135 112.381 111.799 113.045 111.129C113.715 110.452 114.051 109.605 114.051 108.59C114.051 107.574 113.715 106.731 113.045 106.061C112.381 105.39 111.541 105.055 110.525 105.055C109.51 105.055 108.667 105.393 107.996 106.07C107.326 106.741 106.99 107.581 106.99 108.59C106.99 109.605 107.326 110.452 107.996 111.129ZM124.466 111.988H125.696V114H124.046C122.861 114 121.927 113.658 121.243 112.975C120.559 112.285 120.218 111.344 120.218 110.152V105.104H118.284V104.674L122.044 100.68H122.425V103.199H125.637V105.104H122.444V109.977C122.444 110.621 122.617 111.119 122.962 111.471C123.313 111.816 123.815 111.988 124.466 111.988ZM128.015 101.529V99.2344H130.31V101.529H128.015ZM128.054 114V103.199H130.271V114H128.054ZM141.018 103.199H143.303L138.86 114H136.829L132.268 103.199H134.612L137.844 111.207L141.018 103.199ZM155.261 108.629C155.261 108.837 155.245 109.078 155.212 109.352H146.443C146.579 110.224 146.944 110.914 147.536 111.422C148.129 111.93 148.868 112.184 149.753 112.184C150.391 112.184 150.961 112.044 151.462 111.764C151.97 111.484 152.367 111.096 152.654 110.602H154.997C154.568 111.741 153.887 112.636 152.956 113.287C152.025 113.938 150.958 114.264 149.753 114.264C148.178 114.264 146.859 113.723 145.798 112.643C144.737 111.555 144.206 110.208 144.206 108.6C144.206 107.538 144.447 106.575 144.929 105.709C145.411 104.843 146.075 104.166 146.921 103.678C147.767 103.183 148.711 102.936 149.753 102.936C150.827 102.936 151.788 103.193 152.634 103.707C153.48 104.215 154.128 104.902 154.577 105.768C155.033 106.627 155.261 107.581 155.261 108.629ZM149.753 104.938C148.926 104.938 148.223 105.172 147.644 105.641C147.064 106.109 146.683 106.747 146.501 107.555H153.034C152.833 106.734 152.439 106.093 151.853 105.631C151.273 105.169 150.573 104.938 149.753 104.938ZM166.262 100.592C167.557 100.592 168.765 100.794 169.885 101.197C171.011 101.601 171.981 102.164 172.795 102.887C173.615 103.609 174.26 104.505 174.729 105.572C175.197 106.64 175.432 107.809 175.432 109.078C175.432 110.445 175.083 111.542 174.387 112.369C173.69 113.189 172.824 113.6 171.789 113.6C171.216 113.6 170.702 113.476 170.246 113.229C169.797 112.975 169.458 112.63 169.23 112.193C168.84 112.701 168.355 113.095 167.775 113.375C167.196 113.655 166.564 113.795 165.881 113.795C164.592 113.795 163.521 113.365 162.668 112.506C161.822 111.646 161.398 110.566 161.398 109.264C161.398 107.962 161.822 106.884 162.668 106.031C163.521 105.172 164.592 104.742 165.881 104.742C167.176 104.742 168.234 105.204 169.055 106.129L169.328 105.221H170.432V110.318C170.432 110.794 170.565 111.181 170.832 111.48C171.099 111.78 171.438 111.93 171.848 111.93C172.375 111.93 172.811 111.669 173.156 111.148C173.501 110.628 173.674 109.938 173.674 109.078C173.674 107.763 173.365 106.591 172.746 105.562C172.128 104.534 171.258 103.733 170.139 103.16C169.019 102.587 167.743 102.301 166.311 102.301C165.236 102.301 164.234 102.473 163.303 102.818C162.378 103.163 161.59 103.639 160.939 104.244C160.288 104.85 159.777 105.585 159.406 106.451C159.035 107.311 158.85 108.242 158.85 109.244C158.85 111.249 159.501 112.877 160.803 114.127C162.105 115.383 163.798 116.012 165.881 116.012C167.189 116.012 168.332 115.755 169.309 115.24V116.959C168.104 117.48 166.89 117.74 165.666 117.74C164.676 117.74 163.736 117.607 162.844 117.34C161.958 117.073 161.164 116.686 160.461 116.178C159.764 115.676 159.162 115.081 158.654 114.391C158.146 113.701 157.756 112.916 157.482 112.037C157.209 111.158 157.072 110.227 157.072 109.244C157.072 107.942 157.307 106.747 157.775 105.66C158.251 104.566 158.898 103.652 159.719 102.916C160.546 102.18 161.519 101.611 162.639 101.207C163.765 100.797 164.973 100.592 166.262 100.592ZM166.027 111.92C166.796 111.92 167.43 111.669 167.932 111.168C168.433 110.66 168.684 110.019 168.684 109.244C168.684 108.469 168.433 107.835 167.932 107.34C167.437 106.839 166.802 106.588 166.027 106.588C165.266 106.588 164.634 106.842 164.133 107.35C163.632 107.851 163.381 108.482 163.381 109.244C163.381 110.012 163.632 110.65 164.133 111.158C164.634 111.666 165.266 111.92 166.027 111.92ZM186.97 103.199H188.425V112.584C188.425 114.309 187.943 115.663 186.979 116.646C186.022 117.636 184.707 118.131 183.034 118.131C181.654 118.131 180.495 117.792 179.557 117.115C178.626 116.445 178.024 115.517 177.751 114.332H179.968C180.169 114.905 180.55 115.354 181.11 115.68C181.677 116.005 182.311 116.168 183.014 116.168C183.965 116.168 184.74 115.872 185.339 115.279C185.944 114.693 186.247 113.896 186.247 112.887V112.389C185.244 113.255 184.053 113.688 182.673 113.688C181.683 113.688 180.781 113.453 179.968 112.984C179.154 112.509 178.512 111.861 178.044 111.041C177.575 110.221 177.341 109.312 177.341 108.316C177.341 107.327 177.572 106.422 178.034 105.602C178.503 104.775 179.144 104.124 179.958 103.648C180.778 103.173 181.683 102.936 182.673 102.936C183.447 102.936 184.173 103.082 184.85 103.375C185.534 103.668 186.123 104.075 186.618 104.596L186.97 103.199ZM180.544 110.689C181.175 111.314 181.97 111.627 182.927 111.627C183.884 111.627 184.675 111.314 185.3 110.689C185.925 110.064 186.237 109.273 186.237 108.316C186.237 107.359 185.925 106.568 185.3 105.943C184.681 105.318 183.89 105.006 182.927 105.006C181.97 105.006 181.175 105.322 180.544 105.953C179.912 106.578 179.596 107.366 179.596 108.316C179.596 109.267 179.912 110.058 180.544 110.689ZM203.859 102.955C204.992 102.955 205.91 103.346 206.613 104.127C207.323 104.908 207.677 105.911 207.677 107.135V114H205.461V107.682C205.461 106.809 205.278 106.135 204.914 105.66C204.549 105.185 204.032 104.947 203.361 104.947C202.638 104.947 202.033 105.243 201.545 105.836C201.063 106.428 200.822 107.18 200.822 108.092V114H198.654V107.682C198.654 106.809 198.472 106.135 198.107 105.66C197.749 105.185 197.231 104.947 196.554 104.947C195.832 104.947 195.226 105.243 194.738 105.836C194.25 106.428 194.005 107.18 194.005 108.092V114H191.789V103.199H193.361L193.742 104.596C194.152 104.081 194.65 103.681 195.236 103.395C195.828 103.102 196.45 102.955 197.101 102.955C197.824 102.955 198.465 103.124 199.025 103.463C199.591 103.795 200.031 104.257 200.343 104.85C200.74 104.264 201.248 103.801 201.867 103.463C202.485 103.124 203.149 102.955 203.859 102.955ZM219.938 103.189L221.647 103.199V113.99H219.86L219.645 112.682C219.15 113.183 218.567 113.574 217.897 113.854C217.226 114.127 216.504 114.264 215.729 114.264C214.674 114.264 213.717 114.02 212.858 113.531C211.998 113.036 211.325 112.356 210.836 111.49C210.348 110.618 210.104 109.651 210.104 108.59C210.104 107.522 210.348 106.559 210.836 105.699C211.325 104.833 211.998 104.156 212.858 103.668C213.717 103.18 214.674 102.936 215.729 102.936C216.51 102.936 217.239 103.076 217.916 103.355C218.593 103.635 219.179 104.033 219.674 104.547L219.938 103.189ZM213.366 111.129C214.036 111.799 214.879 112.135 215.895 112.135C216.911 112.135 217.75 111.799 218.414 111.129C219.085 110.452 219.42 109.605 219.42 108.59C219.42 107.574 219.085 106.731 218.414 106.061C217.75 105.39 216.911 105.055 215.895 105.055C214.879 105.055 214.036 105.393 213.366 106.07C212.695 106.741 212.36 107.581 212.36 108.59C212.36 109.605 212.695 110.452 213.366 111.129ZM224.982 101.529V99.2344H227.277V101.529H224.982ZM225.021 114V103.199H227.238V114H225.021ZM230.592 114V99.332H232.809V114H230.592ZM235.88 114V111.451H238.321V114H235.88ZM246.011 114.264C244.957 114.264 243.996 114.016 243.13 113.521C242.265 113.027 241.584 112.346 241.089 111.48C240.601 110.615 240.357 109.651 240.357 108.59C240.357 107.529 240.601 106.568 241.089 105.709C241.584 104.843 242.265 104.166 243.13 103.678C243.996 103.183 244.96 102.936 246.021 102.936C247.349 102.936 248.498 103.31 249.468 104.059C250.438 104.807 251.073 105.803 251.373 107.047H249.175C248.889 106.428 248.466 105.943 247.906 105.592C247.346 105.234 246.714 105.055 246.011 105.055C245.041 105.055 244.231 105.393 243.58 106.07C242.935 106.747 242.613 107.587 242.613 108.59C242.613 109.592 242.938 110.436 243.589 111.119C244.24 111.803 245.048 112.145 246.011 112.145C246.721 112.145 247.349 111.962 247.896 111.598C248.449 111.233 248.873 110.722 249.166 110.064H251.402C251.102 111.327 250.461 112.343 249.478 113.111C248.495 113.88 247.339 114.264 246.011 114.264ZM261.719 113.531C260.84 114.02 259.857 114.264 258.77 114.264C257.683 114.264 256.7 114.02 255.821 113.531C254.942 113.036 254.252 112.359 253.75 111.5C253.249 110.634 252.998 109.667 252.998 108.6C252.998 107.525 253.249 106.559 253.75 105.699C254.252 104.833 254.942 104.156 255.821 103.668C256.7 103.18 257.683 102.936 258.77 102.936C259.857 102.936 260.84 103.18 261.719 103.668C262.598 104.156 263.288 104.833 263.789 105.699C264.291 106.565 264.541 107.532 264.541 108.6C264.541 109.667 264.291 110.634 263.789 111.5C263.288 112.359 262.598 113.036 261.719 113.531ZM256.241 111.148C256.905 111.812 257.748 112.145 258.77 112.145C259.792 112.145 260.632 111.812 261.289 111.148C261.954 110.484 262.286 109.635 262.286 108.6C262.286 107.564 261.954 106.715 261.289 106.051C260.632 105.387 259.792 105.055 258.77 105.055C257.748 105.055 256.905 105.387 256.241 106.051C255.583 106.715 255.254 107.564 255.254 108.6C255.254 109.635 255.583 110.484 256.241 111.148ZM279.185 102.955C280.318 102.955 281.236 103.346 281.939 104.127C282.648 104.908 283.003 105.911 283.003 107.135V114H280.786V107.682C280.786 106.809 280.604 106.135 280.239 105.66C279.875 105.185 279.357 104.947 278.687 104.947C277.964 104.947 277.359 105.243 276.87 105.836C276.389 106.428 276.148 107.18 276.148 108.092V114H273.98V107.682C273.98 106.809 273.797 106.135 273.433 105.66C273.075 105.185 272.557 104.947 271.88 104.947C271.157 104.947 270.552 105.243 270.064 105.836C269.575 106.428 269.331 107.18 269.331 108.092V114H267.114V103.199H268.687L269.068 104.596C269.478 104.081 269.976 103.681 270.562 103.395C271.154 103.102 271.776 102.955 272.427 102.955C273.15 102.955 273.791 103.124 274.351 103.463C274.917 103.795 275.357 104.257 275.669 104.85C276.066 104.264 276.574 103.801 277.193 103.463C277.811 103.124 278.475 102.955 279.185 102.955Z" fill="black"/>
</svg>
