<svg width="59" height="59" viewBox="0 0 59 59" fill="none" xmlns="http://www.w3.org/2000/svg">
<rect width="59" height="59" rx="29.5" fill="#1275B1" fill-opacity="0.2"/>
<rect x="17.6875" y="17.6875" width="23.625" height="23.625" rx="11.8125" fill="#1275B1"/>
<path d="M26.6469 24.1778C26.6469 24.9663 25.9634 25.6055 25.1203 25.6055C24.2772 25.6055 23.5938 24.9663 23.5938 24.1778C23.5938 23.3892 24.2772 22.75 25.1203 22.75C25.9634 22.75 26.6469 23.3892 26.6469 24.1778Z" fill="white"/>
<path d="M23.8025 26.655H26.412V34.5625H23.8025V26.655Z" fill="white"/>
<path d="M30.6134 26.655H28.0039V34.5625H30.6134C30.6134 34.5625 30.6134 32.0731 30.6134 30.5166C30.6134 29.5824 30.9324 28.644 32.2052 28.644C33.6437 28.644 33.635 29.8666 33.6283 30.8138C33.6195 32.0519 33.6405 33.3153 33.6405 34.5625H36.25V30.3891C36.2279 27.7242 35.5335 26.4963 33.249 26.4963C31.8924 26.4963 31.0514 27.1122 30.6134 27.6695V26.655Z" fill="white"/>
</svg>
