<svg width="30" height="28" viewBox="0 0 30 28" fill="none" xmlns="http://www.w3.org/2000/svg">
<path d="M7.23711 3.3843C7.23711 5.25339 5.61703 6.7686 3.61856 6.7686C1.62008 6.7686 0 5.25339 0 3.3843C0 1.5152 1.62008 0 3.61856 0C5.61703 0 7.23711 1.5152 7.23711 3.3843Z" fill="white"/>
<path d="M0.494845 9.2562H6.68041V28H0.494845V9.2562Z" fill="white"/>
<path d="M16.6392 9.2562H10.4536V28H16.6392C16.6392 28 16.6392 22.0992 16.6392 18.4097C16.6392 16.1952 17.3953 13.9711 20.4124 13.9711C23.822 13.9711 23.8015 16.8691 23.7856 19.1142C23.7648 22.0489 23.8144 25.0437 23.8144 28H30V18.1074C29.9476 11.7908 28.3016 8.88017 22.8866 8.88017C19.6708 8.88017 17.6774 10.3401 16.6392 11.661V9.2562Z" fill="white"/>
</svg>
