<svg width="277" height="52" viewBox="0 0 277 52" fill="none" xmlns="http://www.w3.org/2000/svg">
<path d="M89.2548 31.0498H83.0059V28.1646H98.6557V31.0498H92.4069V47.3991H89.255V31.0498H89.2548Z" fill="#07102B"/>
<path d="M95.7778 40.5298C95.7778 36.6555 98.7655 33.6604 102.575 33.6604C106.22 33.6604 108.851 36.4358 108.851 40.2275C108.851 40.6673 108.797 41.1067 108.687 41.6565H98.8751C99.3135 43.47 100.739 44.5692 102.712 44.5692C104.055 44.5692 105.261 44.102 106.055 43.1677L107.974 45.1188C106.686 46.6302 104.795 47.3995 102.739 47.3995C98.7927 47.3991 95.7778 44.4592 95.7778 40.5298ZM98.8751 39.1833H105.891C105.508 37.4244 104.356 36.4356 102.52 36.4356C100.656 36.4356 99.3135 37.4795 98.8751 39.1833Z" fill="#07102B"/>
<path d="M131.063 31.7641H125.006V28H141.423V31.7641H135.366V47.3991H131.063V31.7641Z" fill="#2776EA"/>
<path d="M142.875 28H156.633V31.7092H147.178V35.6938H155.811V39.2934H147.178V43.6623H156.77V47.3991H142.875V28Z" fill="#2776EA"/>
<path d="M158.772 28H166.528C172.338 28 176.696 31.9841 176.696 37.6996C176.696 43.3601 172.366 47.3991 166.583 47.3991H158.772V28ZM163.075 31.7641V43.6072H166.474C169.982 43.6072 172.283 41.3814 172.283 37.6719C172.283 33.9901 169.954 31.7641 166.474 31.7641H163.075Z" fill="#2776EA"/>
<path d="M24.0247 48.6586L19.5089 46.0381L18.0649 45.2H18.0628L12.0446 41.7182V41.716L6.02711 38.2346V38.2324L1.4215 35.5678L0.00927734 34.7506V36.0935L0.261717 36.2403L4.86516 38.9067L6.02711 39.5792L10.8812 42.391L12.0471 43.0653L16.8968 45.8746L18.0649 46.5493L18.3426 46.7124L22.9125 49.3586L24.0225 50L36.034 43.0462V41.7081L24.0247 48.6586Z" fill="#07102B"/>
<path d="M42.0386 17.3789V18.7055L58.8962 28.4715L60.0527 27.8055L42.0386 17.3789Z" fill="#07102B"/>
<path d="M30.0293 17.3767L31.1783 18.0409L48.05 8.27239V6.94366L30.0293 17.3767Z" fill="#2776EA"/>
<path d="M12.0327 27.7972L13.1795 28.4646L18.0242 25.6618L18.0199 24.3309L12.0327 27.7972Z" fill="#2776EA"/>
<path d="M36.0337 34.7597V34.7557L18.0195 24.3309L18.0239 25.6618L36.0337 36.0848L48.043 29.1346V27.8055L36.0337 34.7597Z" fill="#07102B"/>
<path d="M54.0567 45.1841L42.0474 38.2335V39.5622L54.0581 46.5132L55.4628 45.7022L72.064 36.0808V34.7557L54.0567 45.1841Z" fill="#2776EA"/>
<path d="M36.0338 0L0.00585938 20.8455L0.00802472 34.7535L12.0152 27.8073L48.05 6.94333L36.0338 0Z" fill="#07102B"/>
<path d="M24.0247 48.6586L0.00927734 34.7513L0.0110795 20.843L12.0182 27.7892L36.034 41.708L24.0247 48.6586Z" fill="#2776EA"/>
<path d="M54.0567 45.1841L72.064 34.7557L72.0622 20.8528L66.0628 24.315L42.0474 38.2338L54.0567 45.1841Z" fill="#07102B"/>
<path d="M54.0479 10.4265L72.0621 20.8528L60.0527 27.8055L42.0386 17.3789L54.0479 10.4265Z" fill="#2776EA"/>
<path d="M36.0337 34.7557L18.0195 24.3309L30.0292 17.3768L48.043 27.8033L36.0337 34.7557Z" fill="#2776EA"/>
<path d="M121.838 34.0391H123.631V51.6406H120.971V45.7578C119.76 46.8047 118.326 47.3281 116.67 47.3281C115.717 47.3281 114.822 47.1562 113.986 46.8125C113.15 46.4609 112.439 45.9844 111.854 45.3828C111.268 44.7812 110.803 44.0625 110.459 43.2266C110.123 42.3828 109.955 41.4805 109.955 40.5195C109.955 39.5586 110.123 38.6562 110.459 37.8125C110.803 36.9688 111.268 36.25 111.854 35.6562C112.447 35.0547 113.158 34.582 113.986 34.2383C114.822 33.8945 115.717 33.7227 116.67 33.7227C118.529 33.7227 120.084 34.3594 121.334 35.6328L121.838 34.0391ZM113.846 43.5664C114.643 44.3711 115.65 44.7734 116.869 44.7734C118.088 44.7734 119.1 44.3672 119.904 43.5547C120.717 42.7422 121.123 41.7305 121.123 40.5195C121.123 39.3086 120.717 38.2969 119.904 37.4844C119.1 36.6719 118.088 36.2656 116.869 36.2656C115.65 36.2656 114.643 36.6719 113.846 37.4844C113.049 38.2891 112.65 39.3008 112.65 40.5195C112.65 41.7383 113.049 42.7539 113.846 43.5664Z" fill="#07102B"/>
</svg>
