<svg width="1512" height="712" viewBox="0 0 1512 712" fill="none" xmlns="http://www.w3.org/2000/svg">
<rect x="-1" width="1513" height="712" fill="#07102B"/>
<circle cx="240.5" cy="322.5" r="138.5" fill="#8188D6"/>
<path d="M173.821 334L169.173 325.882H165.869V334H160.723V310.193H170.335C172.726 310.193 174.707 310.94 176.278 312.435C177.861 313.918 178.652 315.799 178.652 318.079C178.652 319.618 178.265 320.995 177.49 322.213C176.715 323.419 175.659 324.349 174.319 325.002L179.582 334H173.821ZM165.869 314.958V321.117H169.986C171.049 321.117 171.89 320.835 172.51 320.271C173.13 319.695 173.439 318.953 173.439 318.046C173.439 317.138 173.13 316.397 172.51 315.821C171.89 315.246 171.049 314.958 169.986 314.958H165.869ZM200.558 324.753C200.558 325.251 200.525 325.738 200.458 326.214H186.563C186.773 327.465 187.271 328.427 188.057 329.103C188.854 329.767 189.855 330.099 191.062 330.099C191.914 330.099 192.678 329.91 193.353 329.534C194.039 329.158 194.57 328.638 194.946 327.974H200.159C199.495 329.977 198.344 331.571 196.706 332.755C195.068 333.928 193.187 334.515 191.062 334.515C189.28 334.515 187.658 334.094 186.197 333.253C184.748 332.401 183.608 331.233 182.778 329.75C181.947 328.267 181.532 326.623 181.532 324.819C181.532 323.004 181.942 321.355 182.761 319.872C183.591 318.389 184.731 317.227 186.181 316.386C187.642 315.545 189.269 315.124 191.062 315.124C192.899 315.124 194.548 315.561 196.009 316.436C197.47 317.299 198.593 318.461 199.379 319.922C200.165 321.383 200.558 322.993 200.558 324.753ZM191.062 319.357C189.966 319.357 189.036 319.662 188.273 320.271C187.509 320.879 186.983 321.731 186.695 322.827H195.594C195.251 321.709 194.686 320.852 193.901 320.254C193.126 319.656 192.18 319.357 191.062 319.357ZM210.942 334.515C208.64 334.515 206.78 333.917 205.364 332.722C203.958 331.515 203.25 329.927 203.239 327.957H208.07C208.081 328.743 208.363 329.346 208.916 329.767C209.481 330.187 210.222 330.397 211.141 330.397C211.871 330.397 212.486 330.237 212.984 329.916C213.493 329.595 213.747 329.141 213.747 328.555C213.747 328.256 213.659 327.996 213.482 327.774C213.316 327.553 213.05 327.37 212.685 327.227C212.32 327.072 211.96 326.955 211.606 326.878C211.252 326.789 210.787 326.695 210.211 326.596C209.691 326.507 209.254 326.43 208.9 326.363C208.546 326.286 208.114 326.175 207.605 326.031C207.107 325.887 206.686 325.732 206.343 325.566C206 325.389 205.635 325.157 205.247 324.869C204.871 324.581 204.567 324.266 204.334 323.923C204.113 323.569 203.925 323.143 203.77 322.645C203.626 322.146 203.554 321.599 203.554 321.001C203.554 319.263 204.235 317.852 205.596 316.768C206.957 315.672 208.739 315.124 210.942 315.124C213.155 315.124 214.932 315.688 216.271 316.817C217.61 317.935 218.285 319.413 218.296 321.25H213.581C213.57 320.531 213.321 319.988 212.834 319.623C212.358 319.258 211.683 319.075 210.809 319.075C210.045 319.075 209.442 319.236 208.999 319.557C208.568 319.878 208.352 320.304 208.352 320.835C208.352 321.034 208.385 321.217 208.451 321.383C208.529 321.538 208.656 321.676 208.833 321.798C209.021 321.909 209.193 322.008 209.348 322.097C209.514 322.174 209.757 322.257 210.078 322.346C210.41 322.423 210.676 322.484 210.875 322.528C211.086 322.562 211.401 322.617 211.822 322.694C213.604 323.015 214.887 323.347 215.673 323.69C217.654 324.576 218.645 326.125 218.645 328.339C218.645 330.209 217.942 331.709 216.536 332.838C215.131 333.956 213.266 334.515 210.942 334.515ZM240.451 324.753C240.451 325.251 240.417 325.738 240.351 326.214H226.456C226.666 327.465 227.164 328.427 227.95 329.103C228.747 329.767 229.748 330.099 230.955 330.099C231.807 330.099 232.57 329.91 233.246 329.534C233.932 329.158 234.463 328.638 234.839 327.974H240.052C239.388 329.977 238.237 331.571 236.599 332.755C234.961 333.928 233.08 334.515 230.955 334.515C229.173 334.515 227.551 334.094 226.09 333.253C224.64 332.401 223.5 331.233 222.67 329.75C221.84 328.267 221.425 326.623 221.425 324.819C221.425 323.004 221.835 321.355 222.654 319.872C223.484 318.389 224.624 317.227 226.074 316.386C227.535 315.545 229.162 315.124 230.955 315.124C232.792 315.124 234.441 315.561 235.902 316.436C237.363 317.299 238.486 318.461 239.272 319.922C240.058 321.383 240.451 322.993 240.451 324.753ZM230.955 319.357C229.859 319.357 228.929 319.662 228.166 320.271C227.402 320.879 226.876 321.731 226.588 322.827H235.487C235.144 321.709 234.579 320.852 233.793 320.254C233.019 319.656 232.072 319.357 230.955 319.357ZM259.301 315.605H263.02V333.967H259.119L258.687 332.323C257.016 333.784 255.035 334.515 252.744 334.515C250.929 334.515 249.285 334.094 247.813 333.253C246.341 332.412 245.19 331.25 244.36 329.767C243.53 328.272 243.115 326.612 243.115 324.786C243.115 322.971 243.53 321.327 244.36 319.855C245.19 318.372 246.341 317.216 247.813 316.386C249.285 315.545 250.929 315.124 252.744 315.124C255.079 315.124 257.088 315.871 258.77 317.365L259.301 315.605ZM249.556 328.389C250.508 329.34 251.703 329.816 253.142 329.816C254.581 329.816 255.771 329.34 256.712 328.389C257.663 327.437 258.139 326.236 258.139 324.786C258.139 323.336 257.663 322.135 256.712 321.184C255.771 320.232 254.581 319.756 253.142 319.756C251.703 319.756 250.508 320.237 249.556 321.2C248.616 322.152 248.145 323.347 248.145 324.786C248.145 326.225 248.616 327.426 249.556 328.389ZM277.521 315.539H279.148V320.221H277.007C275.612 320.221 274.61 320.553 274.002 321.217C273.404 321.87 273.105 322.949 273.105 324.454V334H268.141V315.639H271.312L272.192 317.896C273.454 316.325 275.23 315.539 277.521 315.539ZM290.429 334.515C289.067 334.515 287.783 334.266 286.577 333.768C285.371 333.258 284.336 332.572 283.473 331.709C282.609 330.846 281.929 329.811 281.431 328.604C280.933 327.398 280.684 326.12 280.684 324.77C280.684 323.419 280.933 322.146 281.431 320.951C281.929 319.756 282.609 318.732 283.473 317.88C284.336 317.028 285.371 316.358 286.577 315.871C287.795 315.373 289.089 315.124 290.462 315.124C292.83 315.124 294.861 315.816 296.555 317.199C298.259 318.572 299.338 320.392 299.792 322.661H294.861C294.463 321.754 293.871 321.051 293.085 320.553C292.299 320.044 291.414 319.789 290.429 319.789C289.089 319.789 287.966 320.271 287.059 321.233C286.162 322.185 285.714 323.369 285.714 324.786C285.714 326.203 286.168 327.404 287.075 328.389C287.983 329.363 289.101 329.85 290.429 329.85C291.436 329.85 292.321 329.584 293.085 329.053C293.849 328.521 294.441 327.763 294.861 326.778H299.858C299.427 329.091 298.342 330.962 296.604 332.39C294.878 333.806 292.819 334.515 290.429 334.515ZM313.994 315.207C316.064 315.207 317.702 315.893 318.908 317.266C320.126 318.638 320.734 320.497 320.734 322.844V334H315.771V323.674C315.771 322.279 315.511 321.244 314.99 320.569C314.481 319.894 313.673 319.557 312.567 319.557C311.316 319.557 310.314 319.988 309.562 320.852C308.82 321.704 308.449 322.871 308.449 324.354V334H303.485V309.015H308.449V317.349C309.943 315.921 311.792 315.207 313.994 315.207Z" fill="white"/>
<path d="M298.694 420C286.008 549.384 450.922 441.327 492 570" stroke="white" stroke-opacity="0.3" stroke-width="3" stroke-dasharray="11 11"/>
<path d="M708.323 538.191C833 476.999 720 319.5 840 342" stroke="white" stroke-opacity="0.3" stroke-width="3" stroke-dasharray="11 11"/>
<path d="M986.5 429C1039 475.499 1109.5 394 1206 546" stroke="white" stroke-opacity="0.3" stroke-width="3" stroke-dasharray="11 11"/>
<circle cx="952.5" cy="305.5" r="138.5" fill="#C6B627"/>
<path d="M897.723 313V289.193H902.869V313H897.723ZM921.537 288.015H926.501V313H922.832L922.251 311.473C920.624 312.856 918.704 313.548 916.49 313.548C913.712 313.548 911.41 312.624 909.584 310.775C907.758 308.927 906.845 306.608 906.845 303.819C906.845 302.447 907.088 301.163 907.575 299.968C908.062 298.761 908.726 297.732 909.568 296.88C910.42 296.028 911.444 295.358 912.639 294.871C913.834 294.373 915.118 294.124 916.49 294.124C918.361 294.124 920.043 294.628 921.537 295.635V288.015ZM913.319 307.422C914.271 308.374 915.467 308.85 916.905 308.85C918.344 308.85 919.534 308.374 920.475 307.422C921.427 306.459 921.903 305.258 921.903 303.819C921.903 302.381 921.427 301.185 920.475 300.233C919.534 299.271 918.344 298.789 916.905 298.789C915.467 298.789 914.271 299.265 913.319 300.217C912.379 301.169 911.908 302.369 911.908 303.819C911.908 305.269 912.379 306.47 913.319 307.422ZM949.419 303.753C949.419 304.251 949.386 304.738 949.32 305.214H935.424C935.634 306.465 936.132 307.427 936.918 308.103C937.715 308.767 938.717 309.099 939.923 309.099C940.775 309.099 941.539 308.91 942.214 308.534C942.9 308.158 943.432 307.638 943.808 306.974H949.021C948.357 308.977 947.206 310.571 945.568 311.755C943.93 312.928 942.048 313.515 939.923 313.515C938.141 313.515 936.52 313.094 935.059 312.253C933.609 311.401 932.469 310.233 931.639 308.75C930.809 307.267 930.394 305.623 930.394 303.819C930.394 302.004 930.803 300.355 931.622 298.872C932.452 297.389 933.592 296.227 935.042 295.386C936.503 294.545 938.13 294.124 939.923 294.124C941.76 294.124 943.409 294.561 944.87 295.436C946.331 296.299 947.455 297.461 948.241 298.922C949.026 300.383 949.419 301.993 949.419 303.753ZM939.923 298.357C938.827 298.357 937.898 298.662 937.134 299.271C936.37 299.879 935.845 300.731 935.557 301.827H944.455C944.112 300.709 943.548 299.852 942.762 299.254C941.987 298.656 941.041 298.357 939.923 298.357ZM968.27 294.605H971.989V312.967H968.087L967.656 311.323C965.985 312.784 964.003 313.515 961.712 313.515C959.897 313.515 958.254 313.094 956.782 312.253C955.31 311.412 954.159 310.25 953.329 308.767C952.499 307.272 952.083 305.612 952.083 303.786C952.083 301.971 952.499 300.327 953.329 298.855C954.159 297.372 955.31 296.216 956.782 295.386C958.254 294.545 959.897 294.124 961.712 294.124C964.048 294.124 966.056 294.871 967.739 296.365L968.27 294.605ZM958.525 307.389C959.477 308.34 960.672 308.816 962.111 308.816C963.55 308.816 964.739 308.34 965.68 307.389C966.632 306.437 967.108 305.236 967.108 303.786C967.108 302.336 966.632 301.135 965.68 300.184C964.739 299.232 963.55 298.756 962.111 298.756C960.672 298.756 959.477 299.237 958.525 300.2C957.584 301.152 957.114 302.347 957.114 303.786C957.114 305.225 957.584 306.426 958.525 307.389ZM986.075 308.584H988.333V313H984.813C982.799 313 981.205 312.419 980.032 311.257C978.87 310.084 978.289 308.479 978.289 306.442V298.623H974.968V297.561L982.223 289.841H983.17V294.639H988.233V298.623H983.253V305.778C983.253 306.675 983.496 307.367 983.983 307.854C984.47 308.34 985.167 308.584 986.075 308.584ZM1009.71 303.753C1009.71 304.251 1009.67 304.738 1009.61 305.214H995.712C995.922 306.465 996.42 307.427 997.206 308.103C998.003 308.767 999.004 309.099 1000.21 309.099C1001.06 309.099 1001.83 308.91 1002.5 308.534C1003.19 308.158 1003.72 307.638 1004.1 306.974H1009.31C1008.64 308.977 1007.49 310.571 1005.86 311.755C1004.22 312.928 1002.34 313.515 1000.21 313.515C998.429 313.515 996.807 313.094 995.346 312.253C993.897 311.401 992.757 310.233 991.927 308.75C991.096 307.267 990.681 305.623 990.681 303.819C990.681 302.004 991.091 300.355 991.91 298.872C992.74 297.389 993.88 296.227 995.33 295.386C996.791 294.545 998.418 294.124 1000.21 294.124C1002.05 294.124 1003.7 294.561 1005.16 295.436C1006.62 296.299 1007.74 297.461 1008.53 298.922C1009.31 300.383 1009.71 301.993 1009.71 303.753ZM1000.21 298.357C999.115 298.357 998.185 298.662 997.422 299.271C996.658 299.879 996.132 300.731 995.845 301.827H1004.74C1004.4 300.709 1003.84 299.852 1003.05 299.254C1002.27 298.656 1001.33 298.357 1000.21 298.357Z" fill="white"/>
<circle cx="596.5" cy="495.5" r="138.5" fill="#6494EC"/>
<path d="M511.625 507.465C508.858 507.465 506.628 506.734 504.935 505.273C503.241 503.801 502.395 501.804 502.395 499.28H507.574C507.574 500.376 507.962 501.223 508.736 501.82C509.511 502.407 510.463 502.7 511.592 502.7C512.621 502.7 513.518 502.446 514.281 501.937C515.045 501.427 515.427 500.747 515.427 499.895C515.427 499.596 515.371 499.325 515.261 499.081C515.161 498.838 514.984 498.622 514.729 498.434C514.486 498.245 514.248 498.085 514.016 497.952C513.794 497.819 513.462 497.687 513.02 497.554C512.577 497.421 512.212 497.321 511.924 497.255C511.647 497.177 511.227 497.072 510.662 496.939C508.67 496.452 507.231 495.993 506.346 495.562C504.243 494.554 503.059 493.005 502.793 490.913C502.749 490.581 502.727 490.238 502.727 489.884C502.727 487.626 503.496 485.877 505.034 484.638C506.584 483.387 508.692 482.762 511.359 482.762C514.082 482.762 516.19 483.442 517.685 484.804C519.19 486.154 519.942 488.024 519.942 490.415H514.846C514.846 489.441 514.497 488.7 513.8 488.19C513.114 487.67 512.256 487.41 511.227 487.41C510.308 487.41 509.517 487.604 508.853 487.991C508.2 488.379 507.873 488.938 507.873 489.668C507.873 489.989 507.956 490.282 508.122 490.548C508.299 490.813 508.504 491.029 508.736 491.195C508.969 491.361 509.317 491.533 509.782 491.71C510.247 491.876 510.646 492.003 510.978 492.092C511.321 492.18 511.813 492.302 512.455 492.457C512.997 492.59 513.412 492.695 513.7 492.772C513.999 492.85 514.414 492.972 514.945 493.138C515.477 493.304 515.897 493.459 516.207 493.603C516.517 493.735 516.899 493.924 517.353 494.167C517.806 494.399 518.166 494.637 518.432 494.881C518.708 495.113 519.002 495.407 519.312 495.761C519.632 496.115 519.876 496.486 520.042 496.873C520.208 497.26 520.346 497.709 520.457 498.218C520.579 498.727 520.64 499.269 520.64 499.845C520.64 501.095 520.402 502.213 519.926 503.198C519.45 504.183 518.797 504.986 517.967 505.605C517.148 506.214 516.196 506.679 515.111 507C514.038 507.31 512.876 507.465 511.625 507.465ZM537.199 488.639H542.479L534.477 506.751C533.713 508.478 532.966 509.817 532.236 510.769C531.516 511.731 530.675 512.445 529.712 512.91C528.749 513.386 527.582 513.624 526.209 513.624H524.167V509.158H525.894C527.067 509.158 527.903 508.942 528.401 508.511C528.91 508.079 529.452 507.155 530.028 505.738L530.094 505.589L522.324 488.639H527.72L532.617 499.928L537.199 488.639ZM555.751 488.207C557.832 488.207 559.487 488.904 560.715 490.299C561.944 491.682 562.558 493.542 562.558 495.877V507H557.594V496.674C557.594 493.929 556.526 492.557 554.39 492.557C553.117 492.557 552.11 492.988 551.368 493.852C550.638 494.704 550.273 495.871 550.273 497.354V507H545.309V488.639H548.712L549.675 490.913C550.383 490.072 551.263 489.413 552.315 488.938C553.377 488.451 554.523 488.207 555.751 488.207ZM576.262 502.584H578.52V507H575C572.986 507 571.392 506.419 570.219 505.257C569.057 504.084 568.476 502.479 568.476 500.442V492.623H565.156V491.561L572.411 483.841H573.357V488.639H578.42V492.623H573.44V499.778C573.44 500.675 573.683 501.367 574.17 501.854C574.657 502.34 575.355 502.584 576.262 502.584ZM592.756 488.207C594.825 488.207 596.463 488.893 597.67 490.266C598.887 491.638 599.496 493.497 599.496 495.844V507H594.532V496.674C594.532 495.279 594.272 494.244 593.752 493.569C593.242 492.894 592.435 492.557 591.328 492.557C590.077 492.557 589.075 492.988 588.323 493.852C587.581 494.704 587.211 495.871 587.211 497.354V507H582.247V482.015H587.211V490.349C588.705 488.921 590.553 488.207 592.756 488.207ZM622.181 497.753C622.181 498.251 622.148 498.738 622.082 499.214H608.186C608.397 500.465 608.895 501.427 609.68 502.103C610.477 502.767 611.479 503.099 612.685 503.099C613.538 503.099 614.301 502.91 614.976 502.534C615.663 502.158 616.194 501.638 616.57 500.974H621.783C621.119 502.977 619.968 504.571 618.33 505.755C616.692 506.928 614.81 507.515 612.685 507.515C610.903 507.515 609.282 507.094 607.821 506.253C606.371 505.401 605.231 504.233 604.401 502.75C603.571 501.267 603.156 499.623 603.156 497.819C603.156 496.004 603.566 494.355 604.385 492.872C605.215 491.389 606.355 490.227 607.804 489.386C609.265 488.545 610.892 488.124 612.685 488.124C614.523 488.124 616.172 488.561 617.633 489.436C619.094 490.299 620.217 491.461 621.003 492.922C621.789 494.383 622.181 495.993 622.181 497.753ZM612.685 492.357C611.59 492.357 610.66 492.662 609.896 493.271C609.133 493.879 608.607 494.731 608.319 495.827H617.218C616.874 494.709 616.31 493.852 615.524 493.254C614.749 492.656 613.803 492.357 612.685 492.357ZM632.565 507.515C630.263 507.515 628.404 506.917 626.987 505.722C625.582 504.515 624.873 502.927 624.862 500.957H629.693C629.704 501.743 629.987 502.346 630.54 502.767C631.104 503.187 631.846 503.397 632.765 503.397C633.495 503.397 634.109 503.237 634.607 502.916C635.116 502.595 635.371 502.141 635.371 501.555C635.371 501.256 635.283 500.996 635.105 500.774C634.939 500.553 634.674 500.37 634.309 500.227C633.943 500.072 633.584 499.955 633.229 499.878C632.875 499.789 632.41 499.695 631.835 499.596C631.315 499.507 630.878 499.43 630.523 499.363C630.169 499.286 629.738 499.175 629.228 499.031C628.73 498.887 628.31 498.732 627.967 498.566C627.624 498.389 627.258 498.157 626.871 497.869C626.495 497.581 626.19 497.266 625.958 496.923C625.737 496.569 625.548 496.143 625.394 495.645C625.25 495.146 625.178 494.599 625.178 494.001C625.178 492.263 625.858 490.852 627.22 489.768C628.581 488.672 630.363 488.124 632.565 488.124C634.779 488.124 636.555 488.688 637.894 489.817C639.234 490.935 639.909 492.413 639.92 494.25H635.205C635.194 493.531 634.945 492.988 634.458 492.623C633.982 492.258 633.307 492.075 632.433 492.075C631.669 492.075 631.066 492.236 630.623 492.557C630.191 492.878 629.976 493.304 629.976 493.835C629.976 494.034 630.009 494.217 630.075 494.383C630.153 494.538 630.28 494.676 630.457 494.798C630.645 494.909 630.817 495.008 630.972 495.097C631.138 495.174 631.381 495.257 631.702 495.346C632.034 495.423 632.3 495.484 632.499 495.528C632.709 495.562 633.025 495.617 633.445 495.694C635.227 496.015 636.511 496.347 637.297 496.69C639.278 497.576 640.269 499.125 640.269 501.339C640.269 503.209 639.566 504.709 638.16 505.838C636.755 506.956 634.89 507.515 632.565 507.515ZM644.261 486.198V481.583H649.208V486.198H644.261ZM644.261 507V488.639H649.225V507H644.261ZM660.837 507.515C658.535 507.515 656.676 506.917 655.259 505.722C653.853 504.515 653.145 502.927 653.134 500.957H657.965C657.976 501.743 658.258 502.346 658.812 502.767C659.376 503.187 660.118 503.397 661.036 503.397C661.767 503.397 662.381 503.237 662.879 502.916C663.388 502.595 663.643 502.141 663.643 501.555C663.643 501.256 663.554 500.996 663.377 500.774C663.211 500.553 662.946 500.37 662.58 500.227C662.215 500.072 661.855 499.955 661.501 499.878C661.147 499.789 660.682 499.695 660.107 499.596C659.587 499.507 659.149 499.43 658.795 499.363C658.441 499.286 658.009 499.175 657.5 499.031C657.002 498.887 656.582 498.732 656.239 498.566C655.895 498.389 655.53 498.157 655.143 497.869C654.767 497.581 654.462 497.266 654.23 496.923C654.008 496.569 653.82 496.143 653.665 495.645C653.521 495.146 653.449 494.599 653.449 494.001C653.449 492.263 654.13 490.852 655.491 489.768C656.853 488.672 658.635 488.124 660.837 488.124C663.051 488.124 664.827 488.688 666.166 489.817C667.505 490.935 668.181 492.413 668.192 494.25H663.477C663.466 493.531 663.217 492.988 662.73 492.623C662.254 492.258 661.579 492.075 660.704 492.075C659.941 492.075 659.338 492.236 658.895 492.557C658.463 492.878 658.247 493.304 658.247 493.835C658.247 494.034 658.281 494.217 658.347 494.383C658.424 494.538 658.552 494.676 658.729 494.798C658.917 494.909 659.088 495.008 659.243 495.097C659.409 495.174 659.653 495.257 659.974 495.346C660.306 495.423 660.572 495.484 660.771 495.528C660.981 495.562 661.296 495.617 661.717 495.694C663.499 496.015 664.783 496.347 665.569 496.69C667.55 497.576 668.54 499.125 668.54 501.339C668.54 503.209 667.838 504.709 666.432 505.838C665.026 506.956 663.161 507.515 660.837 507.515ZM690.346 497.753C690.346 498.251 690.313 498.738 690.247 499.214H676.351C676.561 500.465 677.059 501.427 677.845 502.103C678.642 502.767 679.644 503.099 680.85 503.099C681.702 503.099 682.466 502.91 683.141 502.534C683.827 502.158 684.359 501.638 684.735 500.974H689.948C689.284 502.977 688.133 504.571 686.495 505.755C684.857 506.928 682.975 507.515 680.85 507.515C679.068 507.515 677.447 507.094 675.986 506.253C674.536 505.401 673.396 504.233 672.566 502.75C671.736 501.267 671.321 499.623 671.321 497.819C671.321 496.004 671.73 494.355 672.549 492.872C673.379 491.389 674.519 490.227 675.969 489.386C677.43 488.545 679.057 488.124 680.85 488.124C682.687 488.124 684.336 488.561 685.797 489.436C687.258 490.299 688.382 491.461 689.167 492.922C689.953 494.383 690.346 495.993 690.346 497.753ZM680.85 492.357C679.754 492.357 678.825 492.662 678.061 493.271C677.297 493.879 676.772 494.731 676.484 495.827H685.382C685.039 494.709 684.475 493.852 683.689 493.254C682.914 492.656 681.968 492.357 680.85 492.357Z" fill="white"/>
<circle cx="1308.5" cy="475.5" r="138.5" fill="#F0983B"/>
<path d="M1232.89 462.193C1234.46 462.193 1235.88 462.548 1237.15 463.256C1238.44 463.953 1239.44 464.933 1240.17 466.194C1240.92 467.445 1241.29 468.84 1241.29 470.378C1241.29 472.724 1240.48 474.678 1238.88 476.238C1237.28 477.788 1235.28 478.562 1232.89 478.562H1228.87V486H1223.72V462.193H1232.89ZM1232.65 473.798C1233.66 473.798 1234.48 473.477 1235.11 472.835C1235.74 472.193 1236.06 471.374 1236.06 470.378C1236.06 469.382 1235.74 468.568 1235.11 467.938C1234.49 467.296 1233.67 466.975 1232.65 466.975H1228.87V473.798H1232.65ZM1254.26 467.539H1255.89V472.221H1253.75C1252.35 472.221 1251.35 472.553 1250.74 473.217C1250.14 473.87 1249.84 474.949 1249.84 476.454V486H1244.88V467.639H1248.05L1248.93 469.896C1250.19 468.325 1251.97 467.539 1254.26 467.539ZM1267.35 486.515C1265.48 486.515 1263.79 486.094 1262.27 485.253C1260.75 484.412 1259.56 483.25 1258.7 481.767C1257.85 480.284 1257.42 478.634 1257.42 476.819C1257.42 474.982 1257.85 473.327 1258.7 471.855C1259.56 470.372 1260.75 469.216 1262.27 468.386C1263.79 467.545 1265.48 467.124 1267.35 467.124C1269.21 467.124 1270.9 467.545 1272.41 468.386C1273.93 469.216 1275.12 470.372 1275.98 471.855C1276.85 473.339 1277.28 474.993 1277.28 476.819C1277.28 478.634 1276.85 480.284 1275.98 481.767C1275.12 483.25 1273.93 484.412 1272.41 485.253C1270.9 486.094 1269.21 486.515 1267.35 486.515ZM1263.83 480.455C1264.75 481.385 1265.92 481.85 1267.35 481.85C1268.78 481.85 1269.95 481.385 1270.87 480.455C1271.79 479.514 1272.25 478.302 1272.25 476.819C1272.25 475.336 1271.79 474.13 1270.87 473.2C1269.95 472.259 1268.78 471.789 1267.35 471.789C1265.92 471.789 1264.75 472.259 1263.83 473.2C1262.91 474.13 1262.45 475.336 1262.45 476.819C1262.45 478.302 1262.91 479.514 1263.83 480.455ZM1289.89 481.584H1292.15V486H1288.63C1286.61 486 1285.02 485.419 1283.84 484.257C1282.68 483.084 1282.1 481.479 1282.1 479.442V471.623H1278.78V470.561L1286.04 462.841H1286.98V467.639H1292.05V471.623H1287.06V478.778C1287.06 479.675 1287.31 480.367 1287.8 480.854C1288.28 481.34 1288.98 481.584 1289.89 481.584ZM1304.42 486.515C1302.55 486.515 1300.86 486.094 1299.34 485.253C1297.83 484.412 1296.64 483.25 1295.77 481.767C1294.92 480.284 1294.49 478.634 1294.49 476.819C1294.49 474.982 1294.92 473.327 1295.77 471.855C1296.64 470.372 1297.83 469.216 1299.34 468.386C1300.86 467.545 1302.55 467.124 1304.42 467.124C1306.28 467.124 1307.97 467.545 1309.49 468.386C1311 469.216 1312.19 470.372 1313.05 471.855C1313.92 473.339 1314.35 474.993 1314.35 476.819C1314.35 478.634 1313.92 480.284 1313.05 481.767C1312.19 483.25 1311 484.412 1309.49 485.253C1307.97 486.094 1306.28 486.515 1304.42 486.515ZM1300.9 480.455C1301.82 481.385 1302.99 481.85 1304.42 481.85C1305.85 481.85 1307.02 481.385 1307.94 480.455C1308.86 479.514 1309.32 478.302 1309.32 476.819C1309.32 475.336 1308.86 474.13 1307.94 473.2C1307.02 472.259 1305.85 471.789 1304.42 471.789C1302.99 471.789 1301.82 472.259 1300.9 473.2C1299.98 474.13 1299.52 475.336 1299.52 476.819C1299.52 478.302 1299.98 479.514 1300.9 480.455ZM1326.96 481.584H1329.22V486H1325.7C1323.68 486 1322.09 485.419 1320.91 484.257C1319.75 483.084 1319.17 481.479 1319.17 479.442V471.623H1315.85V470.561L1323.11 462.841H1324.05V467.639H1329.12V471.623H1324.14V478.778C1324.14 479.675 1324.38 480.367 1324.87 480.854C1325.35 481.34 1326.05 481.584 1326.96 481.584ZM1345.63 467.639H1350.91L1342.9 485.751C1342.14 487.478 1341.39 488.817 1340.66 489.769C1339.94 490.731 1339.1 491.445 1338.14 491.91C1337.18 492.386 1336.01 492.624 1334.64 492.624H1332.59V488.158H1334.32C1335.49 488.158 1336.33 487.942 1336.83 487.511C1337.34 487.079 1337.88 486.155 1338.45 484.738L1338.52 484.589L1330.75 467.639H1336.15L1341.04 478.928L1345.63 467.639ZM1363.75 467.124C1365.56 467.124 1367.2 467.545 1368.66 468.386C1370.13 469.216 1371.28 470.372 1372.11 471.855C1372.94 473.339 1373.36 474.993 1373.36 476.819C1373.36 478.646 1372.94 480.306 1372.11 481.8C1371.28 483.283 1370.13 484.445 1368.66 485.286C1367.2 486.127 1365.56 486.548 1363.75 486.548C1361.89 486.548 1360.2 486.033 1358.7 485.004V492.624H1353.74V467.639H1357.01L1357.85 469.315C1359.5 467.854 1361.47 467.124 1363.75 467.124ZM1359.75 480.422C1360.7 481.374 1361.89 481.85 1363.33 481.85C1364.77 481.85 1365.96 481.374 1366.9 480.422C1367.85 479.47 1368.33 478.269 1368.33 476.819C1368.33 475.369 1367.85 474.169 1366.9 473.217C1365.96 472.265 1364.77 471.789 1363.33 471.789C1361.89 471.789 1360.7 472.271 1359.75 473.233C1358.8 474.185 1358.33 475.381 1358.33 476.819C1358.33 478.258 1358.8 479.459 1359.75 480.422ZM1395.06 476.753C1395.06 477.251 1395.03 477.738 1394.97 478.214H1381.07C1381.28 479.465 1381.78 480.427 1382.56 481.103C1383.36 481.767 1384.36 482.099 1385.57 482.099C1386.42 482.099 1387.18 481.91 1387.86 481.534C1388.55 481.158 1389.08 480.638 1389.45 479.974H1394.67C1394 481.977 1392.85 483.571 1391.21 484.755C1389.58 485.928 1387.69 486.515 1385.57 486.515C1383.79 486.515 1382.17 486.094 1380.7 485.253C1379.25 484.401 1378.11 483.233 1377.28 481.75C1376.45 480.267 1376.04 478.623 1376.04 476.819C1376.04 475.004 1376.45 473.355 1377.27 471.872C1378.1 470.389 1379.24 469.227 1380.69 468.386C1382.15 467.545 1383.78 467.124 1385.57 467.124C1387.41 467.124 1389.05 467.561 1390.52 468.436C1391.98 469.299 1393.1 470.461 1393.89 471.922C1394.67 473.383 1395.06 474.993 1395.06 476.753ZM1385.57 471.357C1384.47 471.357 1383.54 471.662 1382.78 472.271C1382.02 472.879 1381.49 473.731 1381.2 474.827H1390.1C1389.76 473.709 1389.19 472.852 1388.41 472.254C1387.63 471.656 1386.69 471.357 1385.57 471.357Z" fill="white"/>
<path d="M603.047 89.3906C605.484 89.3906 607.758 89.8125 609.867 90.6562C611.992 91.5 613.797 92.6641 615.281 94.1484C616.781 95.6172 617.953 97.3906 618.797 99.4688C619.656 101.547 620.086 103.781 620.086 106.172C620.086 108.578 619.656 110.828 618.797 112.922C617.938 115 616.758 116.781 615.258 118.266C613.773 119.734 611.969 120.891 609.844 121.734C607.734 122.578 605.469 123 603.047 123H590.344V89.3906H603.047ZM602.883 116.25C605.758 116.25 608.102 115.312 609.914 113.438C611.742 111.547 612.656 109.125 612.656 106.172C612.656 103.219 611.742 100.812 609.914 98.9531C608.102 97.0781 605.758 96.1406 602.883 96.1406H597.609V116.25H602.883ZM651.082 109.945C651.082 110.648 651.035 111.336 650.941 112.008H631.324C631.621 113.773 632.324 115.133 633.433 116.086C634.558 117.023 635.972 117.492 637.675 117.492C638.878 117.492 639.957 117.227 640.91 116.695C641.878 116.164 642.628 115.43 643.16 114.492H650.519C649.582 117.32 647.957 119.57 645.644 121.242C643.332 122.898 640.675 123.727 637.675 123.727C635.16 123.727 632.871 123.133 630.808 121.945C628.761 120.742 627.152 119.094 625.98 117C624.808 114.906 624.222 112.586 624.222 110.039C624.222 107.477 624.8 105.148 625.957 103.055C627.128 100.961 628.738 99.3203 630.785 98.1328C632.847 96.9453 635.144 96.3516 637.675 96.3516C640.269 96.3516 642.597 96.9688 644.66 98.2031C646.722 99.4219 648.308 101.062 649.417 103.125C650.527 105.188 651.082 107.461 651.082 109.945ZM637.675 102.328C636.128 102.328 634.816 102.758 633.738 103.617C632.66 104.477 631.917 105.68 631.511 107.227H644.074C643.589 105.648 642.792 104.438 641.683 103.594C640.589 102.75 639.253 102.328 637.675 102.328ZM665.741 123.727C662.491 123.727 659.866 122.883 657.866 121.195C655.882 119.492 654.882 117.25 654.866 114.469H661.687C661.702 115.578 662.101 116.43 662.882 117.023C663.679 117.617 664.726 117.914 666.022 117.914C667.054 117.914 667.921 117.688 668.624 117.234C669.343 116.781 669.702 116.141 669.702 115.312C669.702 114.891 669.577 114.523 669.327 114.211C669.093 113.898 668.718 113.641 668.202 113.438C667.687 113.219 667.179 113.055 666.679 112.945C666.179 112.82 665.522 112.688 664.71 112.547C663.976 112.422 663.358 112.312 662.858 112.219C662.358 112.109 661.749 111.953 661.03 111.75C660.327 111.547 659.733 111.328 659.249 111.094C658.765 110.844 658.249 110.516 657.702 110.109C657.171 109.703 656.741 109.258 656.413 108.773C656.101 108.273 655.835 107.672 655.616 106.969C655.413 106.266 655.312 105.492 655.312 104.648C655.312 102.195 656.272 100.203 658.194 98.6719C660.116 97.125 662.632 96.3516 665.741 96.3516C668.866 96.3516 671.374 97.1484 673.265 98.7422C675.155 100.32 676.108 102.406 676.124 105H669.468C669.452 103.984 669.101 103.219 668.413 102.703C667.741 102.188 666.788 101.93 665.554 101.93C664.476 101.93 663.624 102.156 662.999 102.609C662.39 103.062 662.085 103.664 662.085 104.414C662.085 104.695 662.132 104.953 662.226 105.188C662.335 105.406 662.515 105.602 662.765 105.773C663.03 105.93 663.272 106.07 663.491 106.195C663.726 106.305 664.069 106.422 664.522 106.547C664.991 106.656 665.366 106.742 665.647 106.805C665.944 106.852 666.39 106.93 666.983 107.039C669.499 107.492 671.312 107.961 672.421 108.445C675.218 109.695 676.616 111.883 676.616 115.008C676.616 117.648 675.624 119.766 673.64 121.359C671.655 122.938 669.022 123.727 665.741 123.727ZM682.253 93.6328V87.1172H689.237V93.6328H682.253ZM682.253 123V97.0781H689.26V123H682.253ZM717.373 97.0781H721.92V120C721.92 124.047 720.74 127.234 718.381 129.562C716.022 131.906 712.787 133.078 708.678 133.078C705.162 133.078 702.232 132.234 699.889 130.547C697.545 128.859 696.076 126.531 695.482 123.562H702.443C702.818 124.672 703.584 125.531 704.74 126.141C705.912 126.766 707.186 127.078 708.561 127.078C710.389 127.078 711.928 126.523 713.178 125.414C714.428 124.32 715.053 122.852 715.053 121.008V120.023C712.85 121.57 710.381 122.344 707.647 122.344C705.272 122.344 703.092 121.773 701.107 120.633C699.139 119.492 697.584 117.93 696.443 115.945C695.318 113.945 694.756 111.75 694.756 109.359C694.756 106.984 695.318 104.805 696.443 102.82C697.584 100.82 699.139 99.2422 701.107 98.0859C703.092 96.9297 705.272 96.3516 707.647 96.3516C711.006 96.3516 713.873 97.4531 716.248 99.6562L717.373 97.0781ZM708.467 116.086C710.373 116.086 711.951 115.453 713.201 114.188C714.451 112.906 715.076 111.297 715.076 109.359C715.076 107.438 714.451 105.852 713.201 104.602C711.967 103.336 710.389 102.703 708.467 102.703C706.561 102.703 704.982 103.336 703.732 104.602C702.482 105.852 701.857 107.438 701.857 109.359C701.857 111.297 702.475 112.906 703.709 114.188C704.959 115.453 706.545 116.086 708.467 116.086ZM743.892 96.4688C746.83 96.4688 749.166 97.4531 750.9 99.4219C752.634 101.375 753.502 104 753.502 107.297V123H746.494V108.422C746.494 104.547 744.986 102.609 741.97 102.609C740.173 102.609 738.752 103.219 737.705 104.438C736.673 105.641 736.158 107.289 736.158 109.383V123H729.15V97.0781H733.955L735.314 100.289C736.314 99.1016 737.556 98.1719 739.041 97.5C740.541 96.8125 742.158 96.4688 743.892 96.4688ZM785.751 89.3906C787.969 89.3906 789.977 89.8906 791.774 90.8906C793.587 91.875 795.008 93.2578 796.04 95.0391C797.087 96.8047 797.61 98.7734 797.61 100.945C797.61 104.258 796.477 107.016 794.212 109.219C791.946 111.406 789.126 112.5 785.751 112.5H780.079V123H772.813V89.3906H785.751ZM785.423 105.773C786.844 105.773 788.001 105.32 788.891 104.414C789.782 103.508 790.227 102.352 790.227 100.945C790.227 99.5391 789.782 98.3906 788.891 97.5C788.016 96.5938 786.86 96.1406 785.423 96.1406H780.079V105.773H785.423ZM815.926 96.9375H818.223V103.547H815.199C813.231 103.547 811.817 104.016 810.957 104.953C810.113 105.875 809.692 107.398 809.692 109.523V123H802.684V97.0781H807.16L808.402 100.266C810.184 98.0469 812.692 96.9375 815.926 96.9375ZM834.406 123.727C831.765 123.727 829.375 123.133 827.234 121.945C825.093 120.758 823.414 119.117 822.195 117.023C820.992 114.93 820.39 112.602 820.39 110.039C820.39 107.445 820.992 105.109 822.195 103.031C823.414 100.938 825.093 99.3047 827.234 98.1328C829.375 96.9453 831.765 96.3516 834.406 96.3516C837.031 96.3516 839.414 96.9453 841.554 98.1328C843.695 99.3047 845.375 100.938 846.593 103.031C847.812 105.125 848.422 107.461 848.422 110.039C848.422 112.602 847.812 114.93 846.593 117.023C845.375 119.117 843.695 120.758 841.554 121.945C839.414 123.133 837.031 123.727 834.406 123.727ZM829.437 115.172C830.734 116.484 832.39 117.141 834.406 117.141C836.422 117.141 838.078 116.484 839.375 115.172C840.672 113.844 841.32 112.133 841.32 110.039C841.32 107.945 840.672 106.242 839.375 104.93C838.078 103.602 836.422 102.938 834.406 102.938C832.39 102.938 830.734 103.602 829.437 104.93C828.14 106.242 827.492 107.945 827.492 110.039C827.492 112.133 828.14 113.844 829.437 115.172ZM865.987 123.727C864.066 123.727 862.253 123.375 860.55 122.672C858.847 121.953 857.386 120.984 856.167 119.766C854.948 118.547 853.987 117.086 853.284 115.383C852.581 113.68 852.23 111.875 852.23 109.969C852.23 108.062 852.581 106.266 853.284 104.578C853.987 102.891 854.948 101.445 856.167 100.242C857.386 99.0391 858.847 98.0938 860.55 97.4062C862.269 96.7031 864.097 96.3516 866.034 96.3516C869.378 96.3516 872.245 97.3281 874.636 99.2812C877.042 101.219 878.566 103.789 879.206 106.992H872.245C871.683 105.711 870.847 104.719 869.737 104.016C868.628 103.297 867.378 102.938 865.987 102.938C864.097 102.938 862.511 103.617 861.23 104.977C859.964 106.32 859.331 107.992 859.331 109.992C859.331 111.992 859.972 113.688 861.253 115.078C862.534 116.453 864.112 117.141 865.987 117.141C867.409 117.141 868.659 116.766 869.737 116.016C870.816 115.266 871.652 114.195 872.245 112.805H879.3C878.691 116.07 877.159 118.711 874.706 120.727C872.269 122.727 869.362 123.727 865.987 123.727ZM909.569 109.945C909.569 110.648 909.522 111.336 909.428 112.008H889.811C890.108 113.773 890.811 115.133 891.921 116.086C893.046 117.023 894.46 117.492 896.163 117.492C897.366 117.492 898.444 117.227 899.397 116.695C900.366 116.164 901.116 115.43 901.647 114.492H909.007C908.069 117.32 906.444 119.57 904.132 121.242C901.819 122.898 899.163 123.727 896.163 123.727C893.647 123.727 891.358 123.133 889.296 121.945C887.249 120.742 885.639 119.094 884.467 117C883.296 114.906 882.71 112.586 882.71 110.039C882.71 107.477 883.288 105.148 884.444 103.055C885.616 100.961 887.225 99.3203 889.272 98.1328C891.335 96.9453 893.632 96.3516 896.163 96.3516C898.757 96.3516 901.085 96.9688 903.147 98.2031C905.21 99.4219 906.796 101.062 907.905 103.125C909.014 105.188 909.569 107.461 909.569 109.945ZM896.163 102.328C894.616 102.328 893.303 102.758 892.225 103.617C891.147 104.477 890.405 105.68 889.999 107.227H902.561C902.077 105.648 901.28 104.438 900.171 103.594C899.077 102.75 897.741 102.328 896.163 102.328ZM924.229 123.727C920.979 123.727 918.354 122.883 916.354 121.195C914.369 119.492 913.369 117.25 913.354 114.469H920.174C920.19 115.578 920.588 116.43 921.369 117.023C922.166 117.617 923.213 117.914 924.51 117.914C925.541 117.914 926.408 117.688 927.112 117.234C927.83 116.781 928.19 116.141 928.19 115.312C928.19 114.891 928.065 114.523 927.815 114.211C927.58 113.898 927.205 113.641 926.69 113.438C926.174 113.219 925.666 113.055 925.166 112.945C924.666 112.82 924.01 112.688 923.198 112.547C922.463 112.422 921.846 112.312 921.346 112.219C920.846 112.109 920.237 111.953 919.518 111.75C918.815 111.547 918.221 111.328 917.737 111.094C917.252 110.844 916.737 110.516 916.19 110.109C915.658 109.703 915.229 109.258 914.901 108.773C914.588 108.273 914.323 107.672 914.104 106.969C913.901 106.266 913.799 105.492 913.799 104.648C913.799 102.195 914.76 100.203 916.682 98.6719C918.604 97.125 921.119 96.3516 924.229 96.3516C927.354 96.3516 929.862 97.1484 931.752 98.7422C933.643 100.32 934.596 102.406 934.612 105H927.955C927.94 103.984 927.588 103.219 926.901 102.703C926.229 102.188 925.276 101.93 924.041 101.93C922.963 101.93 922.112 102.156 921.487 102.609C920.877 103.062 920.573 103.664 920.573 104.414C920.573 104.695 920.619 104.953 920.713 105.188C920.823 105.406 921.002 105.602 921.252 105.773C921.518 105.93 921.76 106.07 921.979 106.195C922.213 106.305 922.557 106.422 923.01 106.547C923.479 106.656 923.854 106.742 924.135 106.805C924.432 106.852 924.877 106.93 925.471 107.039C927.987 107.492 929.799 107.961 930.908 108.445C933.705 109.695 935.104 111.883 935.104 115.008C935.104 117.648 934.112 119.766 932.127 121.359C930.143 122.938 927.51 123.727 924.229 123.727ZM949.927 123.727C946.677 123.727 944.052 122.883 942.052 121.195C940.068 119.492 939.068 117.25 939.052 114.469H945.873C945.888 115.578 946.287 116.43 947.068 117.023C947.865 117.617 948.912 117.914 950.209 117.914C951.24 117.914 952.107 117.688 952.81 117.234C953.529 116.781 953.888 116.141 953.888 115.312C953.888 114.891 953.763 114.523 953.513 114.211C953.279 113.898 952.904 113.641 952.388 113.438C951.873 113.219 951.365 113.055 950.865 112.945C950.365 112.82 949.709 112.688 948.896 112.547C948.162 112.422 947.545 112.312 947.045 112.219C946.545 112.109 945.935 111.953 945.217 111.75C944.513 111.547 943.92 111.328 943.435 111.094C942.951 110.844 942.435 110.516 941.888 110.109C941.357 109.703 940.927 109.258 940.599 108.773C940.287 108.273 940.021 107.672 939.802 106.969C939.599 106.266 939.498 105.492 939.498 104.648C939.498 102.195 940.459 100.203 942.381 98.6719C944.302 97.125 946.818 96.3516 949.927 96.3516C953.052 96.3516 955.56 97.1484 957.451 98.7422C959.342 100.32 960.295 102.406 960.31 105H953.654C953.638 103.984 953.287 103.219 952.599 102.703C951.927 102.188 950.974 101.93 949.74 101.93C948.662 101.93 947.81 102.156 947.185 102.609C946.576 103.062 946.271 103.664 946.271 104.414C946.271 104.695 946.318 104.953 946.412 105.188C946.521 105.406 946.701 105.602 946.951 105.773C947.217 105.93 947.459 106.07 947.677 106.195C947.912 106.305 948.256 106.422 948.709 106.547C949.177 106.656 949.552 106.742 949.834 106.805C950.131 106.852 950.576 106.93 951.17 107.039C953.685 107.492 955.498 107.961 956.607 108.445C959.404 109.695 960.802 111.883 960.802 115.008C960.802 117.648 959.81 119.766 957.826 121.359C955.842 122.938 953.209 123.727 949.927 123.727Z" fill="white"/>
</svg>
