<svg width="1345" height="467" viewBox="0 0 1345 467" fill="none" xmlns="http://www.w3.org/2000/svg">
<circle cx="138.5" cy="155.5" r="138.5" fill="#8188D6"/>
<path d="M71.8213 167L67.1729 158.882H63.8691V167H58.7227V143.193H68.335C70.7256 143.193 72.7067 143.94 74.2783 145.435C75.861 146.918 76.6523 148.799 76.6523 151.079C76.6523 152.618 76.265 153.995 75.4902 155.213C74.7155 156.419 73.6585 157.349 72.3193 158.002L77.582 167H71.8213ZM63.8691 147.958V154.117H67.9863C69.0488 154.117 69.89 153.835 70.5098 153.271C71.1296 152.695 71.4395 151.953 71.4395 151.046C71.4395 150.138 71.1296 149.397 70.5098 148.821C69.89 148.246 69.0488 147.958 67.9863 147.958H63.8691ZM98.5578 157.753C98.5578 158.251 98.5246 158.738 98.4582 159.214H84.5627C84.7729 160.465 85.271 161.427 86.0568 162.103C86.8537 162.767 87.8553 163.099 89.0617 163.099C89.9139 163.099 90.6776 162.91 91.3527 162.534C92.0389 162.158 92.5701 161.638 92.9464 160.974H98.1593C97.4953 162.977 96.3442 164.571 94.7062 165.755C93.0682 166.928 91.1867 167.515 89.0617 167.515C87.2798 167.515 85.6584 167.094 84.1974 166.253C82.7476 165.401 81.6076 164.233 80.7775 162.75C79.9474 161.267 79.5324 159.623 79.5324 157.819C79.5324 156.004 79.9419 154.355 80.7609 152.872C81.591 151.389 82.731 150.227 84.1808 149.386C85.6418 148.545 87.2687 148.124 89.0617 148.124C90.8989 148.124 92.548 148.561 94.0089 149.436C95.4699 150.299 96.5933 151.461 97.3791 152.922C98.1649 154.383 98.5578 155.993 98.5578 157.753ZM89.0617 152.357C87.966 152.357 87.0363 152.662 86.2726 153.271C85.5089 153.879 84.9832 154.731 84.6955 155.827H93.5939C93.2508 154.709 92.6864 153.852 91.9005 153.254C91.1258 152.656 90.1795 152.357 89.0617 152.357ZM108.942 167.515C106.64 167.515 104.78 166.917 103.364 165.722C101.958 164.515 101.25 162.927 101.239 160.957H106.07C106.081 161.743 106.363 162.346 106.916 162.767C107.481 163.187 108.222 163.397 109.141 163.397C109.871 163.397 110.486 163.237 110.984 162.916C111.493 162.595 111.747 162.141 111.747 161.555C111.747 161.256 111.659 160.996 111.482 160.774C111.316 160.553 111.05 160.37 110.685 160.227C110.32 160.072 109.96 159.955 109.606 159.878C109.252 159.789 108.787 159.695 108.211 159.596C107.691 159.507 107.254 159.43 106.9 159.363C106.546 159.286 106.114 159.175 105.605 159.031C105.107 158.887 104.686 158.732 104.343 158.566C104 158.389 103.635 158.157 103.247 157.869C102.871 157.581 102.567 157.266 102.334 156.923C102.113 156.569 101.925 156.143 101.77 155.645C101.626 155.146 101.554 154.599 101.554 154.001C101.554 152.263 102.235 150.852 103.596 149.768C104.957 148.672 106.739 148.124 108.942 148.124C111.155 148.124 112.932 148.688 114.271 149.817C115.61 150.935 116.285 152.413 116.296 154.25H111.581C111.57 153.531 111.321 152.988 110.834 152.623C110.358 152.258 109.683 152.075 108.809 152.075C108.045 152.075 107.442 152.236 106.999 152.557C106.568 152.878 106.352 153.304 106.352 153.835C106.352 154.034 106.385 154.217 106.451 154.383C106.529 154.538 106.656 154.676 106.833 154.798C107.021 154.909 107.193 155.008 107.348 155.097C107.514 155.174 107.757 155.257 108.078 155.346C108.41 155.423 108.676 155.484 108.875 155.528C109.086 155.562 109.401 155.617 109.822 155.694C111.604 156.015 112.887 156.347 113.673 156.69C115.654 157.576 116.645 159.125 116.645 161.339C116.645 163.209 115.942 164.709 114.536 165.838C113.131 166.956 111.266 167.515 108.942 167.515ZM138.451 157.753C138.451 158.251 138.417 158.738 138.351 159.214H124.456C124.666 160.465 125.164 161.427 125.95 162.103C126.747 162.767 127.748 163.099 128.955 163.099C129.807 163.099 130.57 162.91 131.246 162.534C131.932 162.158 132.463 161.638 132.839 160.974H138.052C137.388 162.977 136.237 164.571 134.599 165.755C132.961 166.928 131.08 167.515 128.955 167.515C127.173 167.515 125.551 167.094 124.09 166.253C122.64 165.401 121.5 164.233 120.67 162.75C119.84 161.267 119.425 159.623 119.425 157.819C119.425 156.004 119.835 154.355 120.654 152.872C121.484 151.389 122.624 150.227 124.074 149.386C125.535 148.545 127.162 148.124 128.955 148.124C130.792 148.124 132.441 148.561 133.902 149.436C135.363 150.299 136.486 151.461 137.272 152.922C138.058 154.383 138.451 155.993 138.451 157.753ZM128.955 152.357C127.859 152.357 126.929 152.662 126.166 153.271C125.402 153.879 124.876 154.731 124.588 155.827H133.487C133.144 154.709 132.579 153.852 131.793 153.254C131.019 152.656 130.072 152.357 128.955 152.357ZM157.301 148.605H161.02V166.967H157.119L156.687 165.323C155.016 166.784 153.035 167.515 150.744 167.515C148.929 167.515 147.285 167.094 145.813 166.253C144.341 165.412 143.19 164.25 142.36 162.767C141.53 161.272 141.115 159.612 141.115 157.786C141.115 155.971 141.53 154.327 142.36 152.855C143.19 151.372 144.341 150.216 145.813 149.386C147.285 148.545 148.929 148.124 150.744 148.124C153.079 148.124 155.088 148.871 156.77 150.365L157.301 148.605ZM147.556 161.389C148.508 162.34 149.703 162.816 151.142 162.816C152.581 162.816 153.771 162.34 154.712 161.389C155.663 160.437 156.139 159.236 156.139 157.786C156.139 156.336 155.663 155.135 154.712 154.184C153.771 153.232 152.581 152.756 151.142 152.756C149.703 152.756 148.508 153.237 147.556 154.2C146.616 155.152 146.145 156.347 146.145 157.786C146.145 159.225 146.616 160.426 147.556 161.389ZM175.521 148.539H177.148V153.221H175.007C173.612 153.221 172.61 153.553 172.002 154.217C171.404 154.87 171.105 155.949 171.105 157.454V167H166.141V148.639H169.312L170.192 150.896C171.454 149.325 173.23 148.539 175.521 148.539ZM188.429 167.515C187.067 167.515 185.783 167.266 184.577 166.768C183.371 166.258 182.336 165.572 181.473 164.709C180.609 163.846 179.929 162.811 179.431 161.604C178.933 160.398 178.684 159.12 178.684 157.77C178.684 156.419 178.933 155.146 179.431 153.951C179.929 152.756 180.609 151.732 181.473 150.88C182.336 150.028 183.371 149.358 184.577 148.871C185.795 148.373 187.089 148.124 188.462 148.124C190.83 148.124 192.861 148.816 194.555 150.199C196.259 151.572 197.338 153.392 197.792 155.661H192.861C192.463 154.754 191.871 154.051 191.085 153.553C190.299 153.044 189.414 152.789 188.429 152.789C187.089 152.789 185.966 153.271 185.059 154.233C184.162 155.185 183.714 156.369 183.714 157.786C183.714 159.203 184.168 160.404 185.075 161.389C185.983 162.363 187.101 162.85 188.429 162.85C189.436 162.85 190.321 162.584 191.085 162.053C191.849 161.521 192.441 160.763 192.861 159.778H197.858C197.427 162.091 196.342 163.962 194.604 165.39C192.878 166.806 190.819 167.515 188.429 167.515ZM211.994 148.207C214.064 148.207 215.702 148.893 216.908 150.266C218.126 151.638 218.734 153.497 218.734 155.844V167H213.771V156.674C213.771 155.279 213.511 154.244 212.99 153.569C212.481 152.894 211.673 152.557 210.567 152.557C209.316 152.557 208.314 152.988 207.562 153.852C206.82 154.704 206.449 155.871 206.449 157.354V167H201.485V142.015H206.449V150.349C207.943 148.921 209.792 148.207 211.994 148.207Z" fill="white"/>
<path d="M196.694 253C184.008 382.384 348.922 274.327 390 403" stroke="white" stroke-opacity="0.3" stroke-width="3" stroke-dasharray="11 11"/>
<path d="M606.323 371.191C731 309.999 618 152.5 738 175" stroke="white" stroke-opacity="0.3" stroke-width="3" stroke-dasharray="11 11"/>
<path d="M884.5 262C937 308.499 1007.5 227 1104 379" stroke="white" stroke-opacity="0.3" stroke-width="3" stroke-dasharray="11 11"/>
<circle cx="850.5" cy="138.5" r="138.5" fill="#C6B627"/>
<path d="M795.723 146V122.193H800.869V146H795.723ZM819.537 121.015H824.501V146H820.832L820.251 144.473C818.624 145.856 816.704 146.548 814.49 146.548C811.712 146.548 809.41 145.624 807.584 143.775C805.758 141.927 804.845 139.608 804.845 136.819C804.845 135.447 805.088 134.163 805.575 132.968C806.062 131.761 806.726 130.732 807.568 129.88C808.42 129.028 809.444 128.358 810.639 127.871C811.834 127.373 813.118 127.124 814.49 127.124C816.361 127.124 818.043 127.628 819.537 128.635V121.015ZM811.319 140.422C812.271 141.374 813.467 141.85 814.905 141.85C816.344 141.85 817.534 141.374 818.475 140.422C819.427 139.459 819.903 138.258 819.903 136.819C819.903 135.381 819.427 134.185 818.475 133.233C817.534 132.271 816.344 131.789 814.905 131.789C813.467 131.789 812.271 132.265 811.319 133.217C810.379 134.169 809.908 135.369 809.908 136.819C809.908 138.269 810.379 139.47 811.319 140.422ZM847.419 136.753C847.419 137.251 847.386 137.738 847.32 138.214H833.424C833.634 139.465 834.132 140.427 834.918 141.103C835.715 141.767 836.717 142.099 837.923 142.099C838.775 142.099 839.539 141.91 840.214 141.534C840.9 141.158 841.432 140.638 841.808 139.974H847.021C846.357 141.977 845.206 143.571 843.568 144.755C841.93 145.928 840.048 146.515 837.923 146.515C836.141 146.515 834.52 146.094 833.059 145.253C831.609 144.401 830.469 143.233 829.639 141.75C828.809 140.267 828.394 138.623 828.394 136.819C828.394 135.004 828.803 133.355 829.622 131.872C830.452 130.389 831.592 129.227 833.042 128.386C834.503 127.545 836.13 127.124 837.923 127.124C839.76 127.124 841.409 127.561 842.87 128.436C844.331 129.299 845.455 130.461 846.241 131.922C847.026 133.383 847.419 134.993 847.419 136.753ZM837.923 131.357C836.827 131.357 835.898 131.662 835.134 132.271C834.37 132.879 833.845 133.731 833.557 134.827H842.455C842.112 133.709 841.548 132.852 840.762 132.254C839.987 131.656 839.041 131.357 837.923 131.357ZM866.27 127.605H869.989V145.967H866.087L865.656 144.323C863.985 145.784 862.003 146.515 859.712 146.515C857.897 146.515 856.254 146.094 854.782 145.253C853.31 144.412 852.159 143.25 851.329 141.767C850.499 140.272 850.083 138.612 850.083 136.786C850.083 134.971 850.499 133.327 851.329 131.855C852.159 130.372 853.31 129.216 854.782 128.386C856.254 127.545 857.897 127.124 859.712 127.124C862.048 127.124 864.056 127.871 865.739 129.365L866.27 127.605ZM856.525 140.389C857.477 141.34 858.672 141.816 860.111 141.816C861.55 141.816 862.739 141.34 863.68 140.389C864.632 139.437 865.108 138.236 865.108 136.786C865.108 135.336 864.632 134.135 863.68 133.184C862.739 132.232 861.55 131.756 860.111 131.756C858.672 131.756 857.477 132.237 856.525 133.2C855.584 134.152 855.114 135.347 855.114 136.786C855.114 138.225 855.584 139.426 856.525 140.389ZM884.075 141.584H886.333V146H882.813C880.799 146 879.205 145.419 878.032 144.257C876.87 143.084 876.289 141.479 876.289 139.442V131.623H872.968V130.561L880.223 122.841H881.17V127.639H886.233V131.623H881.253V138.778C881.253 139.675 881.496 140.367 881.983 140.854C882.47 141.34 883.167 141.584 884.075 141.584ZM907.707 136.753C907.707 137.251 907.674 137.738 907.607 138.214H893.712C893.922 139.465 894.42 140.427 895.206 141.103C896.003 141.767 897.004 142.099 898.211 142.099C899.063 142.099 899.827 141.91 900.502 141.534C901.188 141.158 901.719 140.638 902.096 139.974H907.308C906.644 141.977 905.493 143.571 903.855 144.755C902.217 145.928 900.336 146.515 898.211 146.515C896.429 146.515 894.807 146.094 893.346 145.253C891.897 144.401 890.757 143.233 889.927 141.75C889.096 140.267 888.681 138.623 888.681 136.819C888.681 135.004 889.091 133.355 889.91 131.872C890.74 130.389 891.88 129.227 893.33 128.386C894.791 127.545 896.418 127.124 898.211 127.124C900.048 127.124 901.697 127.561 903.158 128.436C904.619 129.299 905.742 130.461 906.528 131.922C907.314 133.383 907.707 134.993 907.707 136.753ZM898.211 131.357C897.115 131.357 896.185 131.662 895.422 132.271C894.658 132.879 894.132 133.731 893.845 134.827H902.743C902.4 133.709 901.835 132.852 901.05 132.254C900.275 131.656 899.329 131.357 898.211 131.357Z" fill="white"/>
<circle cx="494.5" cy="328.5" r="138.5" fill="#6494EC"/>
<path d="M409.625 340.465C406.858 340.465 404.628 339.734 402.935 338.273C401.241 336.801 400.395 334.804 400.395 332.28H405.574C405.574 333.376 405.962 334.223 406.736 334.82C407.511 335.407 408.463 335.7 409.592 335.7C410.621 335.7 411.518 335.446 412.281 334.937C413.045 334.427 413.427 333.747 413.427 332.895C413.427 332.596 413.371 332.325 413.261 332.081C413.161 331.838 412.984 331.622 412.729 331.434C412.486 331.245 412.248 331.085 412.016 330.952C411.794 330.819 411.462 330.687 411.02 330.554C410.577 330.421 410.212 330.321 409.924 330.255C409.647 330.177 409.227 330.072 408.662 329.939C406.67 329.452 405.231 328.993 404.346 328.562C402.243 327.554 401.059 326.005 400.793 323.913C400.749 323.581 400.727 323.238 400.727 322.884C400.727 320.626 401.496 318.877 403.034 317.638C404.584 316.387 406.692 315.762 409.359 315.762C412.082 315.762 414.19 316.442 415.685 317.804C417.19 319.154 417.942 321.024 417.942 323.415H412.846C412.846 322.441 412.497 321.7 411.8 321.19C411.114 320.67 410.256 320.41 409.227 320.41C408.308 320.41 407.517 320.604 406.853 320.991C406.2 321.379 405.873 321.938 405.873 322.668C405.873 322.989 405.956 323.282 406.122 323.548C406.299 323.813 406.504 324.029 406.736 324.195C406.969 324.361 407.317 324.533 407.782 324.71C408.247 324.876 408.646 325.003 408.978 325.092C409.321 325.18 409.813 325.302 410.455 325.457C410.997 325.59 411.412 325.695 411.7 325.772C411.999 325.85 412.414 325.972 412.945 326.138C413.477 326.304 413.897 326.459 414.207 326.603C414.517 326.735 414.899 326.924 415.353 327.167C415.806 327.399 416.166 327.637 416.432 327.881C416.708 328.113 417.002 328.407 417.312 328.761C417.632 329.115 417.876 329.486 418.042 329.873C418.208 330.26 418.346 330.709 418.457 331.218C418.579 331.727 418.64 332.269 418.64 332.845C418.64 334.095 418.402 335.213 417.926 336.198C417.45 337.183 416.797 337.986 415.967 338.605C415.148 339.214 414.196 339.679 413.111 340C412.038 340.31 410.876 340.465 409.625 340.465ZM435.199 321.639H440.479L432.477 339.751C431.713 341.478 430.966 342.817 430.236 343.769C429.516 344.731 428.675 345.445 427.712 345.91C426.749 346.386 425.582 346.624 424.209 346.624H422.167V342.158H423.894C425.067 342.158 425.903 341.942 426.401 341.511C426.91 341.079 427.452 340.155 428.028 338.738L428.094 338.589L420.324 321.639H425.72L430.617 332.928L435.199 321.639ZM453.751 321.207C455.832 321.207 457.487 321.904 458.715 323.299C459.944 324.682 460.558 326.542 460.558 328.877V340H455.594V329.674C455.594 326.929 454.526 325.557 452.39 325.557C451.117 325.557 450.11 325.988 449.368 326.852C448.638 327.704 448.273 328.871 448.273 330.354V340H443.309V321.639H446.712L447.675 323.913C448.383 323.072 449.263 322.413 450.315 321.938C451.377 321.451 452.523 321.207 453.751 321.207ZM474.262 335.584H476.52V340H473C470.986 340 469.392 339.419 468.219 338.257C467.057 337.084 466.476 335.479 466.476 333.442V325.623H463.156V324.561L470.411 316.841H471.357V321.639H476.42V325.623H471.44V332.778C471.44 333.675 471.683 334.367 472.17 334.854C472.657 335.34 473.355 335.584 474.262 335.584ZM490.756 321.207C492.825 321.207 494.463 321.893 495.67 323.266C496.887 324.638 497.496 326.497 497.496 328.844V340H492.532V329.674C492.532 328.279 492.272 327.244 491.752 326.569C491.242 325.894 490.435 325.557 489.328 325.557C488.077 325.557 487.075 325.988 486.323 326.852C485.581 327.704 485.211 328.871 485.211 330.354V340H480.247V315.015H485.211V323.349C486.705 321.921 488.553 321.207 490.756 321.207ZM520.181 330.753C520.181 331.251 520.148 331.738 520.082 332.214H506.186C506.397 333.465 506.895 334.427 507.68 335.103C508.477 335.767 509.479 336.099 510.685 336.099C511.538 336.099 512.301 335.91 512.976 335.534C513.663 335.158 514.194 334.638 514.57 333.974H519.783C519.119 335.977 517.968 337.571 516.33 338.755C514.692 339.928 512.81 340.515 510.685 340.515C508.903 340.515 507.282 340.094 505.821 339.253C504.371 338.401 503.231 337.233 502.401 335.75C501.571 334.267 501.156 332.623 501.156 330.819C501.156 329.004 501.566 327.355 502.385 325.872C503.215 324.389 504.355 323.227 505.804 322.386C507.265 321.545 508.892 321.124 510.685 321.124C512.523 321.124 514.172 321.561 515.633 322.436C517.094 323.299 518.217 324.461 519.003 325.922C519.789 327.383 520.181 328.993 520.181 330.753ZM510.685 325.357C509.59 325.357 508.66 325.662 507.896 326.271C507.133 326.879 506.607 327.731 506.319 328.827H515.218C514.874 327.709 514.31 326.852 513.524 326.254C512.749 325.656 511.803 325.357 510.685 325.357ZM530.565 340.515C528.263 340.515 526.404 339.917 524.987 338.722C523.582 337.515 522.873 335.927 522.862 333.957H527.693C527.704 334.743 527.987 335.346 528.54 335.767C529.104 336.187 529.846 336.397 530.765 336.397C531.495 336.397 532.109 336.237 532.607 335.916C533.116 335.595 533.371 335.141 533.371 334.555C533.371 334.256 533.283 333.996 533.105 333.774C532.939 333.553 532.674 333.37 532.309 333.227C531.943 333.072 531.584 332.955 531.229 332.878C530.875 332.789 530.41 332.695 529.835 332.596C529.315 332.507 528.878 332.43 528.523 332.363C528.169 332.286 527.738 332.175 527.228 332.031C526.73 331.887 526.31 331.732 525.967 331.566C525.624 331.389 525.258 331.157 524.871 330.869C524.495 330.581 524.19 330.266 523.958 329.923C523.737 329.569 523.548 329.143 523.394 328.645C523.25 328.146 523.178 327.599 523.178 327.001C523.178 325.263 523.858 323.852 525.22 322.768C526.581 321.672 528.363 321.124 530.565 321.124C532.779 321.124 534.555 321.688 535.894 322.817C537.234 323.935 537.909 325.413 537.92 327.25H533.205C533.194 326.531 532.945 325.988 532.458 325.623C531.982 325.258 531.307 325.075 530.433 325.075C529.669 325.075 529.066 325.236 528.623 325.557C528.191 325.878 527.976 326.304 527.976 326.835C527.976 327.034 528.009 327.217 528.075 327.383C528.153 327.538 528.28 327.676 528.457 327.798C528.645 327.909 528.817 328.008 528.972 328.097C529.138 328.174 529.381 328.257 529.702 328.346C530.034 328.423 530.3 328.484 530.499 328.528C530.709 328.562 531.025 328.617 531.445 328.694C533.227 329.015 534.511 329.347 535.297 329.69C537.278 330.576 538.269 332.125 538.269 334.339C538.269 336.209 537.566 337.709 536.16 338.838C534.755 339.956 532.89 340.515 530.565 340.515ZM542.261 319.198V314.583H547.208V319.198H542.261ZM542.261 340V321.639H547.225V340H542.261ZM558.837 340.515C556.535 340.515 554.676 339.917 553.259 338.722C551.853 337.515 551.145 335.927 551.134 333.957H555.965C555.976 334.743 556.258 335.346 556.812 335.767C557.376 336.187 558.118 336.397 559.036 336.397C559.767 336.397 560.381 336.237 560.879 335.916C561.388 335.595 561.643 335.141 561.643 334.555C561.643 334.256 561.554 333.996 561.377 333.774C561.211 333.553 560.946 333.37 560.58 333.227C560.215 333.072 559.855 332.955 559.501 332.878C559.147 332.789 558.682 332.695 558.107 332.596C557.587 332.507 557.149 332.43 556.795 332.363C556.441 332.286 556.009 332.175 555.5 332.031C555.002 331.887 554.582 331.732 554.239 331.566C553.895 331.389 553.53 331.157 553.143 330.869C552.767 330.581 552.462 330.266 552.23 329.923C552.008 329.569 551.82 329.143 551.665 328.645C551.521 328.146 551.449 327.599 551.449 327.001C551.449 325.263 552.13 323.852 553.491 322.768C554.853 321.672 556.635 321.124 558.837 321.124C561.051 321.124 562.827 321.688 564.166 322.817C565.505 323.935 566.181 325.413 566.192 327.25H561.477C561.466 326.531 561.217 325.988 560.73 325.623C560.254 325.258 559.579 325.075 558.704 325.075C557.941 325.075 557.338 325.236 556.895 325.557C556.463 325.878 556.247 326.304 556.247 326.835C556.247 327.034 556.281 327.217 556.347 327.383C556.424 327.538 556.552 327.676 556.729 327.798C556.917 327.909 557.088 328.008 557.243 328.097C557.409 328.174 557.653 328.257 557.974 328.346C558.306 328.423 558.572 328.484 558.771 328.528C558.981 328.562 559.296 328.617 559.717 328.694C561.499 329.015 562.783 329.347 563.569 329.69C565.55 330.576 566.54 332.125 566.54 334.339C566.54 336.209 565.838 337.709 564.432 338.838C563.026 339.956 561.161 340.515 558.837 340.515ZM588.346 330.753C588.346 331.251 588.313 331.738 588.247 332.214H574.351C574.561 333.465 575.059 334.427 575.845 335.103C576.642 335.767 577.644 336.099 578.85 336.099C579.702 336.099 580.466 335.91 581.141 335.534C581.827 335.158 582.359 334.638 582.735 333.974H587.948C587.284 335.977 586.133 337.571 584.495 338.755C582.857 339.928 580.975 340.515 578.85 340.515C577.068 340.515 575.447 340.094 573.986 339.253C572.536 338.401 571.396 337.233 570.566 335.75C569.736 334.267 569.321 332.623 569.321 330.819C569.321 329.004 569.73 327.355 570.549 325.872C571.379 324.389 572.519 323.227 573.969 322.386C575.43 321.545 577.057 321.124 578.85 321.124C580.687 321.124 582.336 321.561 583.797 322.436C585.258 323.299 586.382 324.461 587.167 325.922C587.953 327.383 588.346 328.993 588.346 330.753ZM578.85 325.357C577.754 325.357 576.825 325.662 576.061 326.271C575.297 326.879 574.772 327.731 574.484 328.827H583.382C583.039 327.709 582.475 326.852 581.689 326.254C580.914 325.656 579.968 325.357 578.85 325.357Z" fill="white"/>
<circle cx="1206.5" cy="308.5" r="138.5" fill="#F0983B"/>
<path d="M1130.89 295.193C1132.46 295.193 1133.88 295.548 1135.15 296.256C1136.44 296.953 1137.44 297.933 1138.17 299.194C1138.92 300.445 1139.29 301.84 1139.29 303.378C1139.29 305.724 1138.48 307.678 1136.88 309.238C1135.28 310.788 1133.28 311.562 1130.89 311.562H1126.87V319H1121.72V295.193H1130.89ZM1130.65 306.798C1131.66 306.798 1132.48 306.477 1133.11 305.835C1133.74 305.193 1134.06 304.374 1134.06 303.378C1134.06 302.382 1133.74 301.568 1133.11 300.938C1132.49 300.296 1131.67 299.975 1130.65 299.975H1126.87V306.798H1130.65ZM1152.26 300.539H1153.89V305.221H1151.75C1150.35 305.221 1149.35 305.553 1148.74 306.217C1148.14 306.87 1147.84 307.949 1147.84 309.454V319H1142.88V300.639H1146.05L1146.93 302.896C1148.19 301.325 1149.97 300.539 1152.26 300.539ZM1165.35 319.515C1163.48 319.515 1161.79 319.094 1160.27 318.253C1158.75 317.412 1157.56 316.25 1156.7 314.767C1155.85 313.284 1155.42 311.634 1155.42 309.819C1155.42 307.982 1155.85 306.327 1156.7 304.855C1157.56 303.372 1158.75 302.216 1160.27 301.386C1161.79 300.545 1163.48 300.124 1165.35 300.124C1167.21 300.124 1168.9 300.545 1170.41 301.386C1171.93 302.216 1173.12 303.372 1173.98 304.855C1174.85 306.339 1175.28 307.993 1175.28 309.819C1175.28 311.634 1174.85 313.284 1173.98 314.767C1173.12 316.25 1171.93 317.412 1170.41 318.253C1168.9 319.094 1167.21 319.515 1165.35 319.515ZM1161.83 313.455C1162.75 314.385 1163.92 314.85 1165.35 314.85C1166.78 314.85 1167.95 314.385 1168.87 313.455C1169.79 312.514 1170.25 311.302 1170.25 309.819C1170.25 308.336 1169.79 307.13 1168.87 306.2C1167.95 305.259 1166.78 304.789 1165.35 304.789C1163.92 304.789 1162.75 305.259 1161.83 306.2C1160.91 307.13 1160.45 308.336 1160.45 309.819C1160.45 311.302 1160.91 312.514 1161.83 313.455ZM1187.89 314.584H1190.15V319H1186.63C1184.61 319 1183.02 318.419 1181.84 317.257C1180.68 316.084 1180.1 314.479 1180.1 312.442V304.623H1176.78V303.561L1184.04 295.841H1184.98V300.639H1190.05V304.623H1185.06V311.778C1185.06 312.675 1185.31 313.367 1185.8 313.854C1186.28 314.34 1186.98 314.584 1187.89 314.584ZM1202.42 319.515C1200.55 319.515 1198.86 319.094 1197.34 318.253C1195.83 317.412 1194.64 316.25 1193.77 314.767C1192.92 313.284 1192.49 311.634 1192.49 309.819C1192.49 307.982 1192.92 306.327 1193.77 304.855C1194.64 303.372 1195.83 302.216 1197.34 301.386C1198.86 300.545 1200.55 300.124 1202.42 300.124C1204.28 300.124 1205.97 300.545 1207.49 301.386C1209 302.216 1210.19 303.372 1211.05 304.855C1211.92 306.339 1212.35 307.993 1212.35 309.819C1212.35 311.634 1211.92 313.284 1211.05 314.767C1210.19 316.25 1209 317.412 1207.49 318.253C1205.97 319.094 1204.28 319.515 1202.42 319.515ZM1198.9 313.455C1199.82 314.385 1200.99 314.85 1202.42 314.85C1203.85 314.85 1205.02 314.385 1205.94 313.455C1206.86 312.514 1207.32 311.302 1207.32 309.819C1207.32 308.336 1206.86 307.13 1205.94 306.2C1205.02 305.259 1203.85 304.789 1202.42 304.789C1200.99 304.789 1199.82 305.259 1198.9 306.2C1197.98 307.13 1197.52 308.336 1197.52 309.819C1197.52 311.302 1197.98 312.514 1198.9 313.455ZM1224.96 314.584H1227.22V319H1223.7C1221.68 319 1220.09 318.419 1218.91 317.257C1217.75 316.084 1217.17 314.479 1217.17 312.442V304.623H1213.85V303.561L1221.11 295.841H1222.05V300.639H1227.12V304.623H1222.14V311.778C1222.14 312.675 1222.38 313.367 1222.87 313.854C1223.35 314.34 1224.05 314.584 1224.96 314.584ZM1243.63 300.639H1248.91L1240.9 318.751C1240.14 320.478 1239.39 321.817 1238.66 322.769C1237.94 323.731 1237.1 324.445 1236.14 324.91C1235.18 325.386 1234.01 325.624 1232.64 325.624H1230.59V321.158H1232.32C1233.49 321.158 1234.33 320.942 1234.83 320.511C1235.34 320.079 1235.88 319.155 1236.45 317.738L1236.52 317.589L1228.75 300.639H1234.15L1239.04 311.928L1243.63 300.639ZM1261.75 300.124C1263.56 300.124 1265.2 300.545 1266.66 301.386C1268.13 302.216 1269.28 303.372 1270.11 304.855C1270.94 306.339 1271.36 307.993 1271.36 309.819C1271.36 311.646 1270.94 313.306 1270.11 314.8C1269.28 316.283 1268.13 317.445 1266.66 318.286C1265.2 319.127 1263.56 319.548 1261.75 319.548C1259.89 319.548 1258.2 319.033 1256.7 318.004V325.624H1251.74V300.639H1255.01L1255.85 302.315C1257.5 300.854 1259.47 300.124 1261.75 300.124ZM1257.75 313.422C1258.7 314.374 1259.89 314.85 1261.33 314.85C1262.77 314.85 1263.96 314.374 1264.9 313.422C1265.85 312.47 1266.33 311.269 1266.33 309.819C1266.33 308.369 1265.85 307.169 1264.9 306.217C1263.96 305.265 1262.77 304.789 1261.33 304.789C1259.89 304.789 1258.7 305.271 1257.75 306.233C1256.8 307.185 1256.33 308.381 1256.33 309.819C1256.33 311.258 1256.8 312.459 1257.75 313.422ZM1293.06 309.753C1293.06 310.251 1293.03 310.738 1292.97 311.214H1279.07C1279.28 312.465 1279.78 313.427 1280.56 314.103C1281.36 314.767 1282.36 315.099 1283.57 315.099C1284.42 315.099 1285.18 314.91 1285.86 314.534C1286.55 314.158 1287.08 313.638 1287.45 312.974H1292.67C1292 314.977 1290.85 316.571 1289.21 317.755C1287.58 318.928 1285.69 319.515 1283.57 319.515C1281.79 319.515 1280.17 319.094 1278.7 318.253C1277.25 317.401 1276.11 316.233 1275.28 314.75C1274.45 313.267 1274.04 311.623 1274.04 309.819C1274.04 308.004 1274.45 306.355 1275.27 304.872C1276.1 303.389 1277.24 302.227 1278.69 301.386C1280.15 300.545 1281.78 300.124 1283.57 300.124C1285.41 300.124 1287.05 300.561 1288.52 301.436C1289.98 302.299 1291.1 303.461 1291.89 304.922C1292.67 306.383 1293.06 307.993 1293.06 309.753ZM1283.57 304.357C1282.47 304.357 1281.54 304.662 1280.78 305.271C1280.02 305.879 1279.49 306.731 1279.2 307.827H1288.1C1287.76 306.709 1287.19 305.852 1286.41 305.254C1285.63 304.656 1284.69 304.357 1283.57 304.357Z" fill="white"/>
</svg>
