<svg width="64" height="64" viewBox="0 0 64 64" fill="none" xmlns="http://www.w3.org/2000/svg">
<path d="M4 24.2667C4 17.1727 4 13.6257 5.38058 10.9161C6.59498 8.53273 8.53273 6.59498 10.9161 5.38058C13.6257 4 17.1727 4 24.2667 4H39.7333C46.8273 4 50.3743 4 53.0839 5.38058C55.4673 6.59498 57.405 8.53273 58.6194 10.9161C60 13.6257 60 17.1727 60 24.2667V39.7333C60 46.8273 60 50.3743 58.6194 53.0839C57.405 55.4673 55.4673 57.405 53.0839 58.6194C50.3743 60 46.8273 60 39.7333 60H24.2667C17.1727 60 13.6257 60 10.9161 58.6194C8.53273 57.405 6.59498 55.4673 5.38058 53.0839C4 50.3743 4 46.8273 4 39.7333V24.2667Z" fill="#001E36"/>
<path d="M16 45.0325V20.4068C16 20.2393 16.07 20.1436 16.2333 20.1436C18.6446 20.1436 21.0548 20 23.4667 20C27.3803 20 31.618 21.3382 33.1033 25.4325C33.4533 26.4376 33.64 27.4667 33.64 28.5436C33.64 30.6017 33.1733 32.3009 32.24 33.641C29.6328 37.3847 25.114 37.3265 21.0633 37.3265V45.0086C21.095 45.236 20.9012 45.3436 20.7133 45.3436H16.28C16.0933 45.3436 16 45.2479 16 45.0325ZM21.0867 24.7624V32.8034C22.6928 32.9211 24.3735 32.9339 25.9167 32.4205C27.6203 31.9291 28.5533 30.4543 28.5533 28.6872C28.6007 27.1814 27.7802 25.7366 26.3833 25.1932C24.8587 24.5592 22.7324 24.5213 21.0867 24.7624Z" fill="#31A8FF"/>
<path d="M48.1933 31.2148C47.4873 30.8427 46.7354 30.5705 45.9581 30.4056C44.9592 30.1705 41.0196 29.3474 41.0181 31.4074C41.053 32.5575 42.8786 33.1209 43.6852 33.4495C46.5169 34.4216 49.7214 36.1594 49.6584 39.6528C49.745 44.0016 45.5314 45.7401 41.9196 45.7405C40.0393 45.76 38.0806 45.4688 36.3598 44.6617C36.1955 44.5747 36.0897 44.3887 36.0968 44.1993V40.0381C36.0783 39.8712 36.2573 39.7254 36.3973 39.8454C38.0834 40.8651 40.0819 41.3601 42.0323 41.3866C42.8933 41.3866 44.5998 41.3031 44.5869 40.0381C44.5869 38.824 42.5455 38.2659 41.7318 37.9574C40.5522 37.5364 39.4338 36.9531 38.4071 36.2236C36.9724 35.2002 36.0723 33.5594 36.0968 31.7541C36.0884 27.6594 39.9669 25.8214 43.4599 25.8205C45.0928 25.8071 46.8463 25.928 48.3664 26.5911C48.585 26.6555 48.6303 26.8857 48.6293 27.092V30.9835C48.6432 31.2251 48.3749 31.3074 48.1933 31.2148Z" fill="#31A8FF"/>
</svg>
