<svg width="160" height="24" viewBox="0 0 160 24" fill="none" xmlns="http://www.w3.org/2000/svg">
<rect width="24" height="24" transform="translate(0.000488281)" fill="white"/>
<path d="M12.0003 18.275L7.85031 20.775C7.66698 20.8916 7.47531 20.9416 7.27531 20.9249C7.07531 20.9083 6.90031 20.8416 6.75031 20.725C6.60031 20.6083 6.48365 20.4626 6.40031 20.288C6.31698 20.1126 6.30031 19.9166 6.35031 19.7L7.45031 14.975L3.77531 11.8C3.60865 11.65 3.50465 11.479 3.46331 11.287C3.42131 11.0956 3.43365 10.9083 3.50031 10.725C3.56698 10.5416 3.66698 10.3916 3.80031 10.275C3.93365 10.1583 4.11698 10.0833 4.35031 10.05L9.20031 9.62495L11.0753 5.17495C11.1586 4.97495 11.288 4.82495 11.4633 4.72495C11.638 4.62495 11.817 4.57495 12.0003 4.57495C12.1836 4.57495 12.363 4.62495 12.5383 4.72495C12.713 4.82495 12.842 4.97495 12.9253 5.17495L14.8003 9.62495L19.6503 10.05C19.8836 10.0833 20.067 10.1583 20.2003 10.275C20.3336 10.3916 20.4336 10.5416 20.5003 10.725C20.567 10.9083 20.5796 11.0956 20.5383 11.287C20.4963 11.479 20.392 11.65 20.2253 11.8L16.5503 14.975L17.6503 19.7C17.7003 19.9166 17.6836 20.1126 17.6003 20.288C17.517 20.4626 17.4003 20.6083 17.2503 20.725C17.1003 20.8416 16.9253 20.9083 16.7253 20.9249C16.5253 20.9416 16.3336 20.8916 16.1503 20.775L12.0003 18.275Z" fill="#FFE601"/>
<rect width="24" height="24" transform="translate(34.0005)" fill="white"/>
<path d="M46.0003 18.275L41.8503 20.775C41.667 20.8916 41.4753 20.9416 41.2753 20.9249C41.0753 20.9083 40.9003 20.8416 40.7503 20.725C40.6003 20.6083 40.4836 20.4626 40.4003 20.288C40.317 20.1126 40.3003 19.9166 40.3503 19.7L41.4503 14.975L37.7753 11.8C37.6086 11.65 37.5046 11.479 37.4633 11.287C37.4213 11.0956 37.4336 10.9083 37.5003 10.725C37.567 10.5416 37.667 10.3916 37.8003 10.275C37.9336 10.1583 38.117 10.0833 38.3503 10.05L43.2003 9.62495L45.0753 5.17495C45.1586 4.97495 45.288 4.82495 45.4633 4.72495C45.638 4.62495 45.817 4.57495 46.0003 4.57495C46.1836 4.57495 46.363 4.62495 46.5383 4.72495C46.713 4.82495 46.842 4.97495 46.9253 5.17495L48.8003 9.62495L53.6503 10.05C53.8836 10.0833 54.067 10.1583 54.2003 10.275C54.3336 10.3916 54.4336 10.5416 54.5003 10.725C54.567 10.9083 54.5796 11.0956 54.5383 11.287C54.4963 11.479 54.392 11.65 54.2253 11.8L50.5503 14.975L51.6503 19.7C51.7003 19.9166 51.6836 20.1126 51.6003 20.288C51.517 20.4626 51.4003 20.6083 51.2503 20.725C51.1003 20.8416 50.9253 20.9083 50.7253 20.9249C50.5253 20.9416 50.3336 20.8916 50.1503 20.775L46.0003 18.275Z" fill="#FFE601"/>
<rect width="24" height="24" transform="translate(68.0005)" fill="white"/>
<path d="M80.0003 18.275L75.8503 20.775C75.667 20.8916 75.4753 20.9416 75.2753 20.9249C75.0753 20.9083 74.9003 20.8416 74.7503 20.725C74.6003 20.6083 74.4836 20.4626 74.4003 20.288C74.317 20.1126 74.3003 19.9166 74.3503 19.7L75.4503 14.975L71.7753 11.8C71.6086 11.65 71.5046 11.479 71.4633 11.287C71.4213 11.0956 71.4336 10.9083 71.5003 10.725C71.567 10.5416 71.667 10.3916 71.8003 10.275C71.9336 10.1583 72.117 10.0833 72.3503 10.05L77.2003 9.62495L79.0753 5.17495C79.1586 4.97495 79.288 4.82495 79.4633 4.72495C79.638 4.62495 79.817 4.57495 80.0003 4.57495C80.1836 4.57495 80.363 4.62495 80.5383 4.72495C80.713 4.82495 80.842 4.97495 80.9253 5.17495L82.8003 9.62495L87.6503 10.05C87.8836 10.0833 88.067 10.1583 88.2003 10.275C88.3336 10.3916 88.4336 10.5416 88.5003 10.725C88.567 10.9083 88.5796 11.0956 88.5383 11.287C88.4963 11.479 88.392 11.65 88.2253 11.8L84.5503 14.975L85.6503 19.7C85.7003 19.9166 85.6836 20.1126 85.6003 20.288C85.517 20.4626 85.4003 20.6083 85.2503 20.725C85.1003 20.8416 84.9253 20.9083 84.7253 20.9249C84.5253 20.9416 84.3336 20.8916 84.1503 20.775L80.0003 18.275Z" fill="#FFE601"/>
<rect width="24" height="24" transform="translate(102)" fill="white"/>
<path d="M114 18.275L109.85 20.775C109.667 20.8916 109.475 20.9416 109.275 20.9249C109.075 20.9083 108.9 20.8416 108.75 20.725C108.6 20.6083 108.484 20.4626 108.4 20.288C108.317 20.1126 108.3 19.9166 108.35 19.7L109.45 14.975L105.775 11.8C105.609 11.65 105.505 11.479 105.463 11.287C105.421 11.0956 105.434 10.9083 105.5 10.725C105.567 10.5416 105.667 10.3916 105.8 10.275C105.934 10.1583 106.117 10.0833 106.35 10.05L111.2 9.62495L113.075 5.17495C113.159 4.97495 113.288 4.82495 113.463 4.72495C113.638 4.62495 113.817 4.57495 114 4.57495C114.184 4.57495 114.363 4.62495 114.538 4.72495C114.713 4.82495 114.842 4.97495 114.925 5.17495L116.8 9.62495L121.65 10.05C121.884 10.0833 122.067 10.1583 122.2 10.275C122.334 10.3916 122.434 10.5416 122.5 10.725C122.567 10.9083 122.58 11.0956 122.538 11.287C122.496 11.479 122.392 11.65 122.225 11.8L118.55 14.975L119.65 19.7C119.7 19.9166 119.684 20.1126 119.6 20.288C119.517 20.4626 119.4 20.6083 119.25 20.725C119.1 20.8416 118.925 20.9083 118.725 20.9249C118.525 20.9416 118.334 20.8916 118.15 20.775L114 18.275Z" fill="#FFE601"/>
<rect width="24" height="24" transform="translate(136)" fill="white"/>
<path d="M148 18.275L143.85 20.775C143.667 20.8916 143.475 20.9416 143.275 20.9249C143.075 20.9083 142.9 20.8416 142.75 20.725C142.6 20.6083 142.484 20.4626 142.4 20.288C142.317 20.1126 142.3 19.9166 142.35 19.7L143.45 14.975L139.775 11.8C139.609 11.65 139.505 11.479 139.463 11.287C139.421 11.0956 139.434 10.9083 139.5 10.725C139.567 10.5416 139.667 10.3916 139.8 10.275C139.934 10.1583 140.117 10.0833 140.35 10.05L145.2 9.62495L147.075 5.17495C147.159 4.97495 147.288 4.82495 147.463 4.72495C147.638 4.62495 147.817 4.57495 148 4.57495C148.184 4.57495 148.363 4.62495 148.538 4.72495C148.713 4.82495 148.842 4.97495 148.925 5.17495L150.8 9.62495L155.65 10.05C155.884 10.0833 156.067 10.1583 156.2 10.275C156.334 10.3916 156.434 10.5416 156.5 10.725C156.567 10.9083 156.58 11.0956 156.538 11.287C156.496 11.479 156.392 11.65 156.225 11.8L152.55 14.975L153.65 19.7C153.7 19.9166 153.684 20.1126 153.6 20.288C153.517 20.4626 153.4 20.6083 153.25 20.725C153.1 20.8416 152.925 20.9083 152.725 20.9249C152.525 20.9416 152.334 20.8916 152.15 20.775L148 18.275Z" fill="#FFE601"/>
</svg>
