<svg width="24" height="25" viewBox="0 0 24 25" fill="none" xmlns="http://www.w3.org/2000/svg">
<path d="M0.00469651 25L1.58682 18.79C0.544326 16.8811 -0.00338265 14.71 1.57186e-05 12.5C1.57186e-05 5.59625 5.23906 0 11.7021 0C18.1652 0 23.4043 5.59625 23.4043 12.5C23.4043 19.4037 18.1652 25 11.7021 25C9.63411 25.0035 7.60248 24.4189 5.81597 23.3062L0.00469651 25ZM7.47884 6.635C7.32772 6.64502 7.18006 6.68753 7.04469 6.76C6.91775 6.83678 6.80187 6.93278 6.70065 7.045C6.56022 7.18625 6.48065 7.30874 6.39522 7.4275C5.96273 8.02874 5.73009 8.76677 5.73405 9.52499C5.73639 10.1375 5.88618 10.7337 6.12022 11.2912C6.59884 12.4187 7.38639 13.6125 8.42671 14.7187C8.67714 14.985 8.92171 15.2525 9.18501 15.5012C10.4762 16.7156 12.0149 17.5913 13.6786 18.0587L14.3445 18.1675C14.561 18.18 14.7775 18.1625 14.9951 18.1512C15.3359 18.1324 15.6687 18.0339 15.9699 17.8625C16.1231 17.7782 16.2727 17.6864 16.4181 17.5875C16.4181 17.5875 16.4684 17.5525 16.5644 17.475C16.7223 17.35 16.8195 17.2612 16.9505 17.115C17.0477 17.0075 17.1319 16.8812 17.1963 16.7375C17.2876 16.5337 17.3788 16.145 17.4163 15.8212C17.4444 15.5737 17.4362 15.4387 17.4327 15.355C17.428 15.2212 17.3238 15.0825 17.2103 15.0237L16.5293 14.6975C16.5293 14.6975 15.5112 14.2237 14.8898 13.9212C14.8243 13.8907 14.7541 13.8734 14.6827 13.87C14.6026 13.8612 14.5217 13.8708 14.4454 13.8982C14.3691 13.9256 14.2992 13.9701 14.2403 14.0287V14.0262C14.2345 14.0262 14.1561 14.0975 13.31 15.1925C13.2614 15.2622 13.1946 15.3149 13.1179 15.3438C13.0412 15.3728 12.9581 15.3766 12.8794 15.355C12.8031 15.3332 12.7284 15.3056 12.6559 15.2725C12.5108 15.2075 12.4604 15.1825 12.361 15.1362L12.3551 15.1337C11.6856 14.8215 11.0658 14.3998 10.5179 13.8837C10.3704 13.7462 10.2335 13.5962 10.0931 13.4512C9.63271 12.9803 9.23148 12.4475 8.89948 11.8662L8.83043 11.7475C8.78084 11.6677 8.74075 11.5816 8.71107 11.4912C8.66661 11.3075 8.78246 11.16 8.78246 11.16C8.78246 11.16 9.06682 10.8275 9.19905 10.6475C9.30916 10.4979 9.41188 10.3423 9.50682 10.1812C9.6449 9.94374 9.6882 9.69999 9.61565 9.51124C9.28799 8.65624 8.94863 7.80499 8.5999 6.96C8.53086 6.7925 8.32607 6.6725 8.14001 6.64875C8.07682 6.64125 8.01363 6.63375 7.95044 6.62875C7.79328 6.62041 7.63581 6.62208 7.47884 6.63375V6.635Z" fill="#02B61F"/>
</svg>
