<svg width="59" height="59" viewBox="0 0 59 59" fill="none" xmlns="http://www.w3.org/2000/svg">
<rect width="59" height="59" rx="29.5" fill="#4FCA5D" fill-opacity="0.2"/>
<path fill-rule="evenodd" clip-rule="evenodd" d="M29.5 42.1563C36.0239 42.1563 41.3125 36.8676 41.3125 30.3438C41.3125 23.8199 36.0239 18.5312 29.5 18.5312C22.9761 18.5312 17.6875 23.8199 17.6875 30.3438C17.6875 32.4623 18.2452 34.4506 19.2218 36.1698L17.6875 42.1563L23.8594 40.7251C25.5355 41.6377 27.4572 42.1563 29.5 42.1563ZM29.5 40.3389C35.0202 40.3389 39.4952 35.8639 39.4952 30.3438C39.4952 24.8236 35.0202 20.3486 29.5 20.3486C23.9798 20.3486 19.5048 24.8236 19.5048 30.3438C19.5048 32.4751 20.1719 34.4507 21.3087 36.073L20.4135 39.4303L23.8299 38.5762C25.441 39.6879 27.3945 40.3389 29.5 40.3389Z" fill="#BFC8D0"/>
<path d="M39.625 29.5C39.625 35.0919 35.0919 39.625 29.5 39.625C27.3671 39.625 25.3883 38.9655 23.7563 37.8393L20.2955 38.7045L21.2024 35.3037C20.0508 33.6603 19.375 31.659 19.375 29.5C19.375 23.9081 23.9081 19.375 29.5 19.375C35.0919 19.375 39.625 23.9081 39.625 29.5Z" fill="url(#paint0_linear_604_8571)"/>
<path fill-rule="evenodd" clip-rule="evenodd" d="M29.5 41.3125C36.0239 41.3125 41.3125 36.0239 41.3125 29.5C41.3125 22.9761 36.0239 17.6875 29.5 17.6875C22.9761 17.6875 17.6875 22.9761 17.6875 29.5C17.6875 31.6186 18.2452 33.6068 19.2218 35.3261L17.6875 41.3125L23.8594 39.8813C25.5355 40.794 27.4572 41.3125 29.5 41.3125ZM29.5 39.4952C35.0202 39.4952 39.4952 35.0202 39.4952 29.5C39.4952 23.9798 35.0202 19.5048 29.5 19.5048C23.9798 19.5048 19.5048 23.9798 19.5048 29.5C19.5048 31.6314 20.1719 33.6069 21.3087 35.2292L20.4135 38.5865L23.8299 37.7324C25.441 38.8442 27.3945 39.4952 29.5 39.4952Z" fill="white"/>
<path d="M26.5469 24.0156C26.266 23.4515 25.8352 23.5015 25.3999 23.5015C24.6221 23.5015 23.4092 24.4332 23.4092 26.1673C23.4092 27.5884 24.0354 29.1441 26.1456 31.4712C28.1821 33.7171 30.8579 34.8789 33.0794 34.8393C35.3008 34.7998 35.7578 32.8881 35.7578 32.2426C35.7578 31.9564 35.5803 31.8137 35.4579 31.7749C34.7009 31.4116 33.3048 30.7346 32.9871 30.6074C32.6694 30.4803 32.5035 30.6523 32.4004 30.7459C32.1123 31.0204 31.5412 31.8295 31.3457 32.0115C31.1502 32.1935 30.8587 32.1014 30.7374 32.0326C30.291 31.8534 29.0806 31.3151 28.1158 30.3798C26.9226 29.2232 26.8526 28.8252 26.6278 28.471C26.448 28.1876 26.5799 28.0137 26.6458 27.9378C26.9029 27.6411 27.2578 27.1832 27.417 26.9556C27.5762 26.728 27.4498 26.3825 27.374 26.1673C27.0479 25.2417 26.7716 24.4669 26.5469 24.0156Z" fill="white"/>
<defs>
<linearGradient id="paint0_linear_604_8571" x1="38.3594" y1="21.9062" x2="19.375" y2="39.625" gradientUnits="userSpaceOnUse">
<stop stop-color="#5BD066"/>
<stop offset="1" stop-color="#27B43E"/>
</linearGradient>
</defs>
</svg>
