<svg width="64" height="64" viewBox="0 0 64 64" fill="none" xmlns="http://www.w3.org/2000/svg">
<circle cx="32" cy="32" r="32" fill="#028CB0"/>
<path d="M12.9108 32C12.9108 39.5646 17.3108 46.08 23.6738 49.1769L14.5692 24.2323C13.476 26.676 12.9108 29.3229 12.9108 32ZM32 51.0892C34.2169 51.0892 36.3492 50.7 38.3462 50.0062L38.2108 49.7523L32.3385 33.6754L26.6185 50.3108C28.3108 50.8185 30.1215 51.0892 32 51.0892ZM34.6231 23.0477L41.5277 43.5754L43.44 37.2123C44.2523 34.5723 44.8785 32.6769 44.8785 31.0354C44.8785 28.6662 44.0323 27.0415 43.3215 25.7892C42.34 24.1985 41.4431 22.8615 41.4431 21.3046C41.4431 19.5446 42.7631 17.92 44.6585 17.92H44.8954C41.378 14.6909 36.7748 12.9028 32 12.9108C28.8385 12.9102 25.7263 13.6955 22.9436 15.1962C20.1609 16.6968 17.7949 18.8657 16.0585 21.5077L17.2769 21.5415C19.2738 21.5415 22.3538 21.2877 22.3538 21.2877C23.4031 21.2369 23.5215 22.7431 22.4892 22.8615C22.4892 22.8615 21.4569 22.9969 20.2892 23.0477L27.2615 43.7277L31.4415 31.2046L28.4631 23.0477C27.7959 23.0109 27.13 22.9544 26.4662 22.8785C25.4338 22.8108 25.5523 21.2369 26.5846 21.2877C26.5846 21.2877 29.7323 21.5415 31.6108 21.5415C33.6077 21.5415 36.6877 21.2877 36.6877 21.2877C37.72 21.2369 37.8554 22.7431 36.8231 22.8615C36.8231 22.8615 35.7908 22.98 34.6231 23.0477ZM41.5954 48.5C44.4832 46.8209 46.8798 44.4133 48.5458 41.5179C50.2118 38.6224 51.0888 35.3405 51.0892 32C51.0892 28.6831 50.2431 25.5692 48.7538 22.8446C49.0563 25.8422 48.6024 28.8677 47.4338 31.6446L41.5954 48.5ZM32 54C26.1652 54 20.5695 51.6822 16.4437 47.5564C12.3179 43.4305 10 37.8348 10 32C10 26.1652 12.3179 20.5695 16.4437 16.4437C20.5695 12.3179 26.1652 10 32 10C37.8348 10 43.4305 12.3179 47.5564 16.4437C51.6822 20.5695 54 26.1652 54 32C54 37.8348 51.6822 43.4305 47.5564 47.5564C43.4305 51.6822 37.8348 54 32 54Z" fill="white"/>
</svg>
