<svg width="64" height="64" viewBox="0 0 64 64" fill="none" xmlns="http://www.w3.org/2000/svg">
<path d="M4 24.2667C4 17.1727 4 13.6257 5.38058 10.9161C6.59498 8.53273 8.53273 6.59498 10.9161 5.38058C13.6257 4 17.1727 4 24.2667 4H39.7333C46.8273 4 50.3743 4 53.0839 5.38058C55.4673 6.59498 57.405 8.53273 58.6194 10.9161C60 13.6257 60 17.1727 60 24.2667V39.7333C60 46.8273 60 50.3743 58.6194 53.0839C57.405 55.4673 55.4673 57.405 53.0839 58.6194C50.3743 60 46.8273 60 39.7333 60H24.2667C17.1727 60 13.6257 60 10.9161 58.6194C8.53273 57.405 6.59498 55.4673 5.38058 53.0839C4 50.3743 4 46.8273 4 39.7333V24.2667Z" fill="#470137"/>
<path d="M33.293 20.4676L26.3055 32.2963L33.7813 44.8571C33.9367 45.1419 33.7813 45.2048 33.5559 45.2048H28.2215C27.8458 45.2048 27.5828 45.1912 27.4325 44.9341C26.9312 43.9324 26.4303 42.937 25.9299 41.9481C25.4286 40.9595 24.8964 39.9513 24.3333 38.9234C23.7698 37.8964 23.2126 36.8561 22.6616 35.8025C22.1603 36.8302 21.603 37.8577 21.065 38.8849C20.5262 39.9126 19.994 40.9337 19.4684 41.9481C18.9425 42.9631 18.4041 43.9713 17.8531 44.9727C17.7527 45.2039 17.5772 45.2277 17.3271 45.2277H12.1805C11.9783 45.2277 11.9539 45.0757 12.0678 44.8956L19.3181 32.6816L12.2556 20.4291C12.1273 20.2542 12.2377 20.0679 12.4435 20.0823H17.7403C17.9697 20.0693 18.1724 20.1559 18.3038 20.352C18.7546 21.3797 19.2555 22.4071 19.8065 23.4344C20.3571 24.4621 20.9143 25.4767 21.4782 26.4783C22.0417 27.4801 22.599 28.4947 23.0748 29.5221C23.5755 28.4692 24.0826 27.4417 24.5963 26.4398C25.1093 25.438 25.6352 24.4298 26.174 23.4151C26.7124 22.4007 27.232 21.3925 27.7331 20.3906C27.7996 20.1708 27.9588 20.0594 28.1839 20.0823H33.1051C33.293 20.0823 33.3707 20.3388 33.293 20.4676Z" fill="#FF61F6"/>
<path d="M44.0743 45.705C40.7612 45.7567 37.291 44.3927 35.5467 41.3704C34.6949 39.9195 34.2691 38.1022 34.2694 35.9184C34.2552 34.15 34.6958 32.4091 35.5467 30.871C37.742 26.9467 42.1647 25.4763 46.3658 25.8621V18.2717C46.3658 18.0923 46.441 18.002 46.5913 18.002H51.3246C51.454 17.9831 51.5685 18.1005 51.5501 18.2332V41.0044C51.5501 41.9439 51.6432 42.8801 51.7003 43.817C51.7095 43.9771 51.6169 44.1354 51.4749 44.2023C49.1361 45.2028 46.6056 45.6934 44.0743 45.705ZM46.3658 40.9273V30.4087C42.9347 29.4553 39.6034 32.0688 39.6038 35.6872C39.5223 39.4282 42.7471 42.0128 46.3658 40.9273Z" fill="#FF61F6"/>
</svg>
