<svg width="45" height="36" viewBox="0 0 45 36" fill="none" xmlns="http://www.w3.org/2000/svg">
<path d="M0.69043 35.4111V26.5488C0.69043 23.5703 1.17871 20.4697 2.15527 17.2471C3.18066 13.9756 4.64551 10.8506 6.5498 7.87207C8.4541 4.84473 10.749 2.23242 13.4346 0.0351562L21.125 5.38184C18.8789 8.60449 17.1455 11.9248 15.9248 15.3428C14.7041 18.7119 14.0938 22.374 14.0938 26.3291V35.4111H0.69043ZM23.7617 35.4111V26.5488C23.7617 23.5703 24.25 20.4697 25.2266 17.2471C26.252 13.9756 27.7168 10.8506 29.6211 7.87207C31.5254 4.84473 33.8203 2.23242 36.5059 0.0351562L44.1963 5.38184C41.9502 8.60449 40.2168 11.9248 38.9961 15.3428C37.7754 18.7119 37.165 22.374 37.165 26.3291V35.4111H23.7617Z" fill="#39B7B3"/>
</svg>
