<svg width="64" height="64" viewBox="0 0 64 64" fill="none" xmlns="http://www.w3.org/2000/svg">
<path fill-rule="evenodd" clip-rule="evenodd" d="M16.2182 9.58035L31.9999 8L47.7817 9.58035L59.9999 25.116L31.9999 55.9998L4 25.116L16.2182 9.58035Z" fill="#FDB300"/>
<path d="M15.3413 25.116L31.9998 56L4 25.116H15.3413ZM48.6587 25.116L32.0002 56L60 25.116" fill="#EA6C00"/>
<path fill-rule="evenodd" clip-rule="evenodd" d="M15.3413 25.116H48.6584L31.9999 56" fill="#FDAD00"/>
<path d="M31.9999 8L16.2181 9.58009L15.3413 25.1158L31.9999 8ZM32.0001 8L47.7819 9.58009L48.6587 25.1158" fill="#FDD231"/>
<path d="M60 25.1158L47.782 9.58002L48.6587 25.1158H60ZM4 25.1158L16.218 9.58002L15.3413 25.1158" fill="#FDAD00"/>
<path fill-rule="evenodd" clip-rule="evenodd" d="M31.9999 8L15.3413 25.1158H48.6584" fill="#FEEEB7"/>
</svg>
