<svg width="64" height="64" viewBox="0 0 64 64" fill="none" xmlns="http://www.w3.org/2000/svg">
<path fill-rule="evenodd" clip-rule="evenodd" d="M32 32C32 27.5817 35.5817 24 40 24C44.4183 24 48 27.5817 48 32C48 36.4183 44.4183 40 40 40C35.5817 40 32 36.4183 32 32Z" fill="#1ABCFE"/>
<path fill-rule="evenodd" clip-rule="evenodd" d="M16 48C16 43.5817 19.5817 40 24 40H32V48C32 52.4183 28.4183 56 24 56C19.5817 56 16 52.4183 16 48Z" fill="#0ACF83"/>
<path fill-rule="evenodd" clip-rule="evenodd" d="M32 8V24H40C44.4183 24 48 20.4183 48 16C48 11.5817 44.4183 8 40 8H32Z" fill="#FF7262"/>
<path fill-rule="evenodd" clip-rule="evenodd" d="M16 16C16 20.4183 19.5817 24 24 24H32V8H24C19.5817 8 16 11.5817 16 16Z" fill="#F24E1E"/>
<path fill-rule="evenodd" clip-rule="evenodd" d="M16 32C16 36.4183 19.5817 40 24 40H32V24H24C19.5817 24 16 27.5817 16 32Z" fill="#A259FF"/>
</svg>
