<svg width="277" height="50" viewBox="0 0 277 50" fill="none" xmlns="http://www.w3.org/2000/svg">
<path d="M96.0698 12.8081H84.613V7.51852H113.305V12.8081H101.849V42.7829H96.0702V12.8081H96.0698Z" fill="#07102B"/>
<path d="M108.029 30.1889C108.029 23.0857 113.506 17.5944 120.49 17.5944C127.173 17.5944 131.998 22.6829 131.998 29.6346C131.998 30.4409 131.898 31.2464 131.696 32.2544H113.707C114.511 35.5793 117.124 37.5946 120.741 37.5946C123.204 37.5946 125.415 36.7381 126.872 35.025L130.389 38.6023C128.028 41.3732 124.561 42.7837 120.792 42.7837C113.556 42.7829 108.029 37.3929 108.029 30.1889ZM113.707 27.7201H126.571C125.868 24.4954 123.756 22.6826 120.39 22.6826C116.973 22.6826 114.511 24.5963 113.707 27.7201Z" fill="#07102B"/>
<path d="M133.102 30.1889C133.102 23.0857 138.579 17.5944 145.765 17.5944C149.483 17.5944 152.9 19.1057 155.161 21.7758L151.544 25.4532C150.136 23.7907 148.127 22.9346 145.766 22.9346C141.644 22.9346 138.781 25.9073 138.781 30.1892C138.781 34.4715 141.644 37.4431 145.766 37.4431C148.127 37.4431 150.136 36.587 151.544 34.9245L155.161 38.6023C152.9 41.272 149.483 42.7837 145.765 42.7837C138.579 42.7829 133.102 37.2916 133.102 30.1889Z" fill="#07102B"/>
<path d="M157.372 7.67801H162.899V22.0615C164.559 20.062 167.12 18.8913 170.085 18.8913C175.461 18.8913 179.43 22.6953 179.43 28.1067V42.7826H173.903V29.277C173.903 26.1568 171.643 23.9141 168.426 23.9141C165.211 23.9141 162.899 26.1564 162.899 29.277V42.7826H157.372V7.67801Z" fill="#07102B"/>
<path d="M192.345 14.1177H181.239V7.21667H211.338V14.1177H200.233V42.783H192.345V14.1177Z" fill="#2776EA"/>
<path d="M214.001 7.21667H239.225V14.0172H221.89V21.3224H237.719V27.9219H221.89V35.9319H239.477V42.783H214.001V7.21667Z" fill="#2776EA"/>
<path d="M243.145 7.21667H257.364C268.017 7.21667 276.006 14.5212 276.006 24.9998C276.006 35.3779 268.067 42.783 257.465 42.783H243.145V7.21667ZM251.034 14.1177V35.831H257.264C263.696 35.831 267.916 31.7501 267.916 24.9492C267.916 18.199 263.645 14.1177 257.264 14.1177H251.034Z" fill="#2776EA"/>
<path d="M24.0246 48.6586L19.5088 46.0381L18.0649 45.2H18.0627L12.0445 41.7182V41.716L6.02705 38.2346V38.2324L1.42144 35.5678L0.00921631 34.7506V36.0935L0.261656 36.2403L4.8651 38.9067L6.02705 39.5792L10.8811 42.391L12.047 43.0653L16.8968 45.8746L18.0649 46.5493L18.3425 46.7124L22.9124 49.3586L24.0225 50L36.034 43.0462V41.7081L24.0246 48.6586Z" fill="#07102B"/>
<path d="M42.0388 17.3789V18.7055L58.8964 28.4715L60.0529 27.8055L42.0388 17.3789Z" fill="#07102B"/>
<path d="M30.0295 17.3767L31.1784 18.0409L48.0501 8.27239V6.94366L30.0295 17.3767Z" fill="#2776EA"/>
<path d="M12.0327 27.7972L13.1795 28.4646L18.0242 25.6618L18.0198 24.3309L12.0327 27.7972Z" fill="#2776EA"/>
<path d="M36.034 34.7597V34.7557L18.0198 24.3309L18.0241 25.6618L36.034 36.0848L48.0433 29.1346V27.8055L36.034 34.7597Z" fill="#07102B"/>
<path d="M54.0568 45.1841L42.0475 38.2335V39.5622L54.0583 46.5132L55.4629 45.7022L72.0641 36.0808V34.7557L54.0568 45.1841Z" fill="#2776EA"/>
<path d="M36.034 0L0.00598145 20.8455L0.00814679 34.7535L12.0153 27.8073L48.0501 6.94333L36.034 0Z" fill="#07102B"/>
<path d="M24.0246 48.6586L0.00921631 34.7513L0.0110185 20.843L12.0182 27.7892L36.034 41.708L24.0246 48.6586Z" fill="#2776EA"/>
<path d="M54.0568 45.1841L72.0641 34.7557L72.0623 20.8528L66.0629 24.315L42.0475 38.2338L54.0568 45.1841Z" fill="#07102B"/>
<path d="M54.0481 10.4265L72.0623 20.8528L60.0529 27.8055L42.0388 17.3789L54.0481 10.4265Z" fill="#2776EA"/>
<path d="M36.034 34.7557L18.0198 24.3309L30.0295 17.3768L48.0433 27.8033L36.034 34.7557Z" fill="#2776EA"/>
</svg>
