<svg width="173" height="125" viewBox="0 0 173 125" fill="none" xmlns="http://www.w3.org/2000/svg">
<rect x="57" width="59" height="59" rx="29.5" fill="#1275B1" fill-opacity="0.2"/>
<rect x="74.6875" y="17.6875" width="23.625" height="23.625" rx="11.8125" fill="#1275B1"/>
<path d="M83.6469 24.1778C83.6469 24.9663 82.9634 25.6055 82.1203 25.6055C81.2772 25.6055 80.5938 24.9663 80.5938 24.1778C80.5938 23.3892 81.2772 22.75 82.1203 22.75C82.9634 22.75 83.6469 23.3892 83.6469 24.1778Z" fill="white"/>
<path d="M80.8025 26.655H83.412V34.5625H80.8025V26.655Z" fill="white"/>
<path d="M87.6134 26.655H85.0039V34.5625H87.6134C87.6134 34.5625 87.6134 32.0731 87.6134 30.5166C87.6134 29.5824 87.9324 28.644 89.2052 28.644C90.6437 28.644 90.635 29.8666 90.6283 30.8138C90.6195 32.0519 90.6405 33.3153 90.6405 34.5625H93.25V30.3891C93.2279 27.7242 92.5335 26.4963 90.249 26.4963C88.8924 26.4963 88.0514 27.1122 87.6134 27.6695V26.655Z" fill="white"/>
<path d="M10.2809 106.188V108.238H6.71641V111.998H4.53867V108.238H0.954689V106.188H4.53867V102.535H6.71641V106.188H10.2809ZM15.9984 111.959H20.9594V114H11.8578V113.414C13.85 111.24 15.2888 109.615 16.1742 108.541C17.0661 107.467 17.6553 106.653 17.9418 106.1C18.2348 105.54 18.3813 104.986 18.3813 104.439C18.3813 103.854 18.1957 103.382 17.8246 103.023C17.46 102.665 16.9783 102.486 16.3793 102.486C15.7543 102.486 15.2497 102.672 14.8656 103.043C14.488 103.408 14.2992 103.883 14.2992 104.469V104.762H12.141V104.459C12.141 103.261 12.5284 102.294 13.3031 101.559C14.0779 100.816 15.0967 100.445 16.3598 100.445C17.5967 100.445 18.6059 100.82 19.3871 101.568C20.1684 102.311 20.559 103.264 20.559 104.43C20.559 105.048 20.4483 105.644 20.227 106.217C20.0056 106.79 19.5661 107.532 18.9086 108.443C18.251 109.348 17.281 110.52 15.9984 111.959ZM28.5031 105.68C29.5448 105.868 30.3814 106.34 31.0129 107.096C31.6444 107.851 31.9602 108.762 31.9602 109.83C31.9602 111.106 31.524 112.161 30.6516 112.994C29.7857 113.827 28.6984 114.244 27.3898 114.244C26.1203 114.244 25.0689 113.847 24.2355 113.053C23.4087 112.258 22.9693 111.236 22.9172 109.986H25.0656C25.1047 110.65 25.3358 111.188 25.759 111.598C26.1887 112.001 26.7323 112.203 27.3898 112.203C28.0865 112.203 28.6594 111.975 29.1086 111.52C29.5578 111.057 29.7824 110.471 29.7824 109.762C29.7824 109.052 29.5383 108.476 29.05 108.033C28.5682 107.584 27.9465 107.359 27.1848 107.359H25.5051V106.949L28.2688 102.662H23.298V100.699H31.4426V101.148L28.5031 105.68ZM43.4688 109.4V111.305H42.1895V114H40.1094V111.305H33.4883V110.865L38.0293 100.699H40.2363L36.3398 109.4H40.1484L40.5098 105.689H42.1895V109.4H43.4688ZM50.0211 100.699H59.2398V101.031L54.0738 114H51.7984L56.3492 102.662H50.0211V100.699ZM65.8363 114.244C64.2217 114.244 62.9425 113.622 61.9984 112.379C61.0544 111.135 60.5824 109.456 60.5824 107.34C60.5824 105.217 61.0512 103.541 61.9887 102.311C62.9327 101.074 64.2152 100.455 65.8363 100.455C67.4509 100.455 68.727 101.074 69.6645 102.311C70.6085 103.541 71.0805 105.217 71.0805 107.34C71.0805 109.456 70.6085 111.135 69.6645 112.379C68.7204 113.622 67.4444 114.244 65.8363 114.244ZM65.8363 112.203C66.7999 112.203 67.5518 111.777 68.0922 110.924C68.6326 110.071 68.9027 108.88 68.9027 107.35C68.9027 105.82 68.6293 104.628 68.0824 103.775C67.5421 102.923 66.7934 102.496 65.8363 102.496C64.8663 102.496 64.1111 102.923 63.5707 103.775C63.0369 104.622 62.7699 105.81 62.7699 107.34C62.7699 108.876 63.0369 110.071 63.5707 110.924C64.1111 111.777 64.8663 112.203 65.8363 112.203ZM78.7414 105.68C79.7831 105.868 80.6197 106.34 81.2512 107.096C81.8827 107.851 82.1984 108.762 82.1984 109.83C82.1984 111.106 81.7622 112.161 80.8898 112.994C80.024 113.827 78.9367 114.244 77.6281 114.244C76.3586 114.244 75.3072 113.847 74.4738 113.053C73.647 112.258 73.2076 111.236 73.1555 109.986H75.3039C75.343 110.65 75.5741 111.188 75.9973 111.598C76.427 112.001 76.9706 112.203 77.6281 112.203C78.3247 112.203 78.8977 111.975 79.3469 111.52C79.7961 111.057 80.0207 110.471 80.0207 109.762C80.0207 109.052 79.7766 108.476 79.2883 108.033C78.8065 107.584 78.1848 107.359 77.423 107.359H75.7434V106.949L78.507 102.662H73.5363V100.699H81.6809V101.148L78.7414 105.68ZM94.0047 100.445C95.4305 100.445 96.5991 100.882 97.5106 101.754C98.422 102.62 98.8777 103.733 98.8777 105.094C98.8777 106.396 98.4122 107.841 97.4813 109.43L94.8152 114H92.4422C93.9201 111.428 94.8445 109.804 95.2156 109.127C94.7078 109.335 94.1805 109.439 93.6336 109.439C92.3576 109.439 91.2931 109.026 90.4402 108.199C89.5874 107.366 89.1609 106.331 89.1609 105.094C89.1609 103.74 89.6134 102.626 90.5184 101.754C91.4298 100.882 92.5919 100.445 94.0047 100.445ZM94.0242 107.701C94.812 107.701 95.463 107.457 95.9773 106.969C96.4917 106.48 96.7488 105.855 96.7488 105.094C96.7488 104.339 96.4917 103.714 95.9773 103.219C95.463 102.717 94.812 102.467 94.0242 102.467C93.2365 102.467 92.5854 102.714 92.0711 103.209C91.5568 103.704 91.2996 104.332 91.2996 105.094C91.2996 105.855 91.5535 106.48 92.0613 106.969C92.5757 107.457 93.23 107.701 94.0242 107.701ZM105.181 105.484C106.529 105.484 107.639 105.898 108.511 106.725C109.39 107.545 109.83 108.577 109.83 109.82C109.83 111.09 109.397 112.145 108.531 112.984C107.671 113.824 106.597 114.244 105.308 114.244C104.026 114.244 102.958 113.844 102.105 113.043C101.259 112.236 100.819 111.217 100.787 109.986H102.945C102.971 110.637 103.205 111.171 103.648 111.588C104.091 111.998 104.644 112.203 105.308 112.203C105.979 112.203 106.535 111.979 106.978 111.529C107.427 111.074 107.652 110.504 107.652 109.82C107.652 109.117 107.411 108.535 106.929 108.072C106.448 107.61 105.839 107.379 105.103 107.379H101.578L101.324 107.066L102.027 100.699H108.912V102.662H103.775L103.463 105.484H105.181ZM121.202 109.4V111.305H119.922V114H117.842V111.305H111.221V110.865L115.762 100.699H117.969L114.073 109.4H117.881L118.243 105.689H119.922V109.4H121.202ZM132.422 105.484C133.77 105.484 134.88 105.898 135.752 106.725C136.631 107.545 137.07 108.577 137.07 109.82C137.07 111.09 136.637 112.145 135.771 112.984C134.912 113.824 133.838 114.244 132.549 114.244C131.266 114.244 130.199 113.844 129.346 113.043C128.499 112.236 128.06 111.217 128.027 109.986H130.186C130.212 110.637 130.446 111.171 130.889 111.588C131.331 111.998 131.885 112.203 132.549 112.203C133.219 112.203 133.776 111.979 134.219 111.529C134.668 111.074 134.893 110.504 134.893 109.82C134.893 109.117 134.652 108.535 134.17 108.072C133.688 107.61 133.079 107.379 132.344 107.379H128.818L128.564 107.066L129.268 100.699H136.152V102.662H131.016L130.703 105.484H132.422ZM144.263 105.25C145.506 105.25 146.564 105.657 147.436 106.471C148.309 107.278 148.745 108.32 148.745 109.596C148.745 110.95 148.289 112.063 147.378 112.936C146.473 113.808 145.311 114.244 143.891 114.244C142.453 114.244 141.274 113.811 140.356 112.945C139.445 112.073 138.989 110.956 138.989 109.596C138.989 108.365 139.464 106.92 140.415 105.26L143.071 100.621H145.444C143.869 103.401 142.944 105.048 142.671 105.562C143.198 105.354 143.729 105.25 144.263 105.25ZM141.929 111.471C142.443 111.959 143.091 112.203 143.872 112.203C144.653 112.203 145.298 111.959 145.805 111.471C146.313 110.982 146.567 110.357 146.567 109.596C146.567 108.827 146.313 108.202 145.805 107.721C145.304 107.232 144.66 106.988 143.872 106.988C143.091 106.988 142.443 107.232 141.929 107.721C141.421 108.209 141.167 108.834 141.167 109.596C141.167 110.351 141.421 110.976 141.929 111.471ZM154.111 111.959H159.072V114H149.97V113.414C151.962 111.24 153.401 109.615 154.287 108.541C155.179 107.467 155.768 106.653 156.054 106.1C156.347 105.54 156.494 104.986 156.494 104.439C156.494 103.854 156.308 103.382 155.937 103.023C155.573 102.665 155.091 102.486 154.492 102.486C153.867 102.486 153.362 102.672 152.978 103.043C152.601 103.408 152.412 103.883 152.412 104.469V104.762H150.254V104.459C150.254 103.261 150.641 102.294 151.416 101.559C152.19 100.816 153.209 100.445 154.472 100.445C155.709 100.445 156.718 100.82 157.5 101.568C158.281 102.311 158.671 103.264 158.671 104.43C158.671 105.048 158.561 105.644 158.339 106.217C158.118 106.79 157.679 107.532 157.021 108.443C156.364 109.348 155.393 110.52 154.111 111.959ZM166.45 114.244C164.835 114.244 163.556 113.622 162.612 112.379C161.668 111.135 161.196 109.456 161.196 107.34C161.196 105.217 161.664 103.541 162.602 102.311C163.546 101.074 164.829 100.455 166.45 100.455C168.064 100.455 169.34 101.074 170.278 102.311C171.222 103.541 171.694 105.217 171.694 107.34C171.694 109.456 171.222 111.135 170.278 112.379C169.334 113.622 168.058 114.244 166.45 114.244ZM166.45 112.203C167.413 112.203 168.165 111.777 168.705 110.924C169.246 110.071 169.516 108.88 169.516 107.35C169.516 105.82 169.243 104.628 168.696 103.775C168.155 102.923 167.407 102.496 166.45 102.496C165.48 102.496 164.724 102.923 164.184 103.775C163.65 104.622 163.383 105.81 163.383 107.34C163.383 108.876 163.65 110.071 164.184 110.924C164.724 111.777 165.48 112.203 166.45 112.203Z" fill="black"/>
</svg>
