<svg width="1345" height="467" viewBox="0 0 1345 467" fill="none" xmlns="http://www.w3.org/2000/svg">
<circle cx="138.5" cy="155.5" r="138.5" fill="#8188D6"/>
<path d="M36.1621 96.3887H44.4629V119H39.6816V100.655H36.1621V96.3887Z" fill="white"/>
<path d="M65.8691 114.202H75.3818V119H60.7227V95.1934H75.0166V99.958H65.8691V104.656H74.1201V109.321H65.8691V114.202ZM100.408 100.207C102.312 100.207 103.861 100.882 105.057 102.232C106.263 103.583 106.866 105.331 106.866 107.479V119H101.903V108.309C101.903 107.08 101.665 106.15 101.189 105.52C100.724 104.878 100.043 104.557 99.1466 104.557C98.0399 104.557 97.1711 104.955 96.5402 105.752C95.9204 106.538 95.6105 107.645 95.6105 109.072V119H90.7795V108.309C90.7795 107.08 90.547 106.15 90.0822 105.52C89.6284 104.878 88.9588 104.557 88.0734 104.557C86.9445 104.557 86.0646 104.955 85.4338 105.752C84.8029 106.538 84.4875 107.645 84.4875 109.072V119H79.5236V100.639H82.9767L83.9064 102.913C84.5594 102.083 85.3673 101.424 86.3302 100.938C87.3042 100.451 88.3224 100.207 89.3849 100.207C90.547 100.207 91.5929 100.467 92.5226 100.987C93.4523 101.496 94.1828 102.216 94.714 103.146C95.356 102.238 96.175 101.524 97.1711 101.004C98.1782 100.473 99.2573 100.207 100.408 100.207ZM121.783 100.124C123.598 100.124 125.236 100.545 126.697 101.386C128.169 102.216 129.32 103.372 130.15 104.855C130.98 106.339 131.395 107.993 131.395 109.819C131.395 111.646 130.98 113.306 130.15 114.8C129.32 116.283 128.169 117.445 126.697 118.286C125.236 119.127 123.598 119.548 121.783 119.548C119.923 119.548 118.241 119.033 116.736 118.004V125.624H111.772V100.639H115.042L115.889 102.315C117.538 100.854 119.503 100.124 121.783 100.124ZM117.782 113.422C118.733 114.374 119.929 114.85 121.368 114.85C122.806 114.85 123.996 114.374 124.937 113.422C125.889 112.47 126.365 111.269 126.365 109.819C126.365 108.369 125.889 107.169 124.937 106.217C123.996 105.265 122.806 104.789 121.368 104.789C119.929 104.789 118.733 105.271 117.782 106.233C116.841 107.185 116.37 108.381 116.37 109.819C116.37 111.258 116.841 112.459 117.782 113.422ZM150.262 100.605H153.981V118.967H150.08L149.648 117.323C147.977 118.784 145.996 119.515 143.705 119.515C141.889 119.515 140.246 119.094 138.774 118.253C137.302 117.412 136.151 116.25 135.321 114.767C134.491 113.272 134.076 111.612 134.076 109.786C134.076 107.971 134.491 106.327 135.321 104.855C136.151 103.372 137.302 102.216 138.774 101.386C140.246 100.545 141.889 100.124 143.705 100.124C146.04 100.124 148.049 100.871 149.731 102.365L150.262 100.605ZM140.517 113.389C141.469 114.34 142.664 114.816 144.103 114.816C145.542 114.816 146.732 114.34 147.672 113.389C148.624 112.437 149.1 111.236 149.1 109.786C149.1 108.336 148.624 107.135 147.672 106.184C146.732 105.232 145.542 104.756 144.103 104.756C142.664 104.756 141.469 105.237 140.517 106.2C139.576 107.152 139.106 108.347 139.106 109.786C139.106 111.225 139.576 112.426 140.517 113.389ZM168.067 114.584H170.325V119H166.805C164.791 119 163.197 118.419 162.024 117.257C160.862 116.084 160.281 114.479 160.281 112.442V104.623H156.961V103.561L164.215 95.8408H165.162V100.639H170.225V104.623H165.245V111.778C165.245 112.675 165.488 113.367 165.975 113.854C166.462 114.34 167.159 114.584 168.067 114.584ZM184.56 100.207C186.63 100.207 188.268 100.893 189.474 102.266C190.692 103.638 191.301 105.497 191.301 107.844V119H186.337V108.674C186.337 107.279 186.077 106.244 185.556 105.569C185.047 104.894 184.239 104.557 183.133 104.557C181.882 104.557 180.88 104.988 180.128 105.852C179.386 106.704 179.015 107.871 179.015 109.354V119H174.052V94.0146H179.015V102.349C180.51 100.921 182.358 100.207 184.56 100.207ZM196.173 98.1982V93.583H201.12V98.1982H196.173ZM196.173 119V100.639H201.137V119H196.173ZM212.002 114.435H219.738V119H204.565V118.452L212.384 105.138H205.312V100.639H219.738V101.319L212.002 114.435ZM241.129 109.753C241.129 110.251 241.096 110.738 241.03 111.214H227.134C227.344 112.465 227.842 113.427 228.628 114.103C229.425 114.767 230.427 115.099 231.633 115.099C232.485 115.099 233.249 114.91 233.924 114.534C234.61 114.158 235.142 113.638 235.518 112.974H240.731C240.067 114.977 238.916 116.571 237.278 117.755C235.64 118.928 233.758 119.515 231.633 119.515C229.851 119.515 228.23 119.094 226.769 118.253C225.319 117.401 224.179 116.233 223.349 114.75C222.519 113.267 222.104 111.623 222.104 109.819C222.104 108.004 222.513 106.355 223.332 104.872C224.162 103.389 225.302 102.227 226.752 101.386C228.213 100.545 229.84 100.124 231.633 100.124C233.47 100.124 235.119 100.561 236.58 101.436C238.041 102.299 239.165 103.461 239.95 104.922C240.736 106.383 241.129 107.993 241.129 109.753ZM231.633 104.357C230.537 104.357 229.608 104.662 228.844 105.271C228.08 105.879 227.555 106.731 227.267 107.827H236.165C235.822 106.709 235.258 105.852 234.472 105.254C233.697 104.656 232.751 104.357 231.633 104.357Z" fill="white"/>
<path d="M71.35 170.234C69.7615 170.234 68.4464 169.723 67.4047 168.701C66.363 167.679 65.8422 166.374 65.8422 164.785V155.996H67.6195V164.658C67.6195 165.804 67.9646 166.735 68.6547 167.451C69.3513 168.161 70.2497 168.516 71.35 168.516C72.4372 168.516 73.3259 168.161 74.016 167.451C74.7126 166.735 75.0609 165.804 75.0609 164.658V155.996H76.8383V164.785C76.8383 165.833 76.6006 166.774 76.1254 167.607C75.6501 168.441 74.9926 169.089 74.1527 169.551C73.3194 170.007 72.3852 170.234 71.35 170.234ZM83.7766 170.234C82.5005 170.234 81.4751 169.915 80.7004 169.277C79.9257 168.639 79.5155 167.777 79.4699 166.689H81.1301C81.1757 167.314 81.4426 167.799 81.9309 168.145C82.4257 168.49 83.0604 168.662 83.8352 168.662C84.5839 168.662 85.1926 168.512 85.6613 168.213C86.1366 167.913 86.3742 167.503 86.3742 166.982C86.3742 166.781 86.3417 166.598 86.2766 166.436C86.2115 166.273 86.1073 166.136 85.9641 166.025C85.8208 165.908 85.6776 165.811 85.5344 165.732C85.3911 165.648 85.1926 165.573 84.9387 165.508C84.6913 165.443 84.4764 165.394 84.2941 165.361C84.1184 165.322 83.8775 165.277 83.5715 165.225C83.3306 165.186 83.1418 165.153 83.0051 165.127C82.8749 165.101 82.6926 165.062 82.4582 165.01C82.2303 164.958 82.048 164.909 81.9113 164.863C81.7746 164.818 81.6053 164.759 81.4035 164.688C81.2017 164.616 81.0389 164.538 80.9152 164.453C80.798 164.368 80.6646 164.271 80.5148 164.16C80.3651 164.043 80.2447 163.916 80.1535 163.779C80.0689 163.643 79.9842 163.493 79.8996 163.33C79.815 163.161 79.7531 162.972 79.7141 162.764C79.6815 162.555 79.6652 162.331 79.6652 162.09C79.6652 161.159 80.0396 160.407 80.7883 159.834C81.537 159.255 82.5201 158.965 83.7375 158.965C84.9549 158.965 85.9283 159.268 86.6574 159.873C87.3931 160.472 87.7772 161.283 87.8098 162.305H86.1984C86.1659 161.719 85.9315 161.27 85.4953 160.957C85.0591 160.638 84.4602 160.479 83.6984 160.479C82.9693 160.479 82.3898 160.622 81.9602 160.908C81.5305 161.188 81.3156 161.562 81.3156 162.031C81.3156 162.214 81.3449 162.38 81.4035 162.529C81.4621 162.673 81.5598 162.796 81.6965 162.9C81.8332 163.005 81.9699 163.092 82.1066 163.164C82.2434 163.236 82.4322 163.301 82.673 163.359C82.9139 163.418 83.119 163.464 83.2883 163.496C83.4576 163.529 83.6952 163.568 84.0012 163.613C85.0689 163.789 85.8339 163.975 86.2961 164.17C87.3638 164.619 87.9432 165.407 88.0344 166.533C88.0474 166.657 88.0539 166.781 88.0539 166.904C88.0539 167.913 87.6633 168.721 86.882 169.326C86.1008 169.932 85.0656 170.234 83.7766 170.234ZM100.91 164.648C100.91 164.844 100.9 165.046 100.881 165.254H91.6719C91.8021 166.257 92.2122 167.061 92.9023 167.666C93.599 168.271 94.4551 168.574 95.4707 168.574C96.2129 168.574 96.8737 168.411 97.4531 168.086C98.0326 167.754 98.4915 167.295 98.8301 166.709H100.627C100.165 167.822 99.4811 168.688 98.5762 169.307C97.6777 169.925 96.6426 170.234 95.4707 170.234C94.4421 170.234 93.5046 169.99 92.6582 169.502C91.8184 169.014 91.1576 168.34 90.6758 167.48C90.2005 166.621 89.9629 165.661 89.9629 164.6C89.9629 163.545 90.2005 162.588 90.6758 161.729C91.1576 160.863 91.8184 160.186 92.6582 159.697C93.5046 159.209 94.4421 158.965 95.4707 158.965C96.5384 158.965 97.4889 159.219 98.3223 159.727C99.1556 160.234 99.7936 160.921 100.236 161.787C100.686 162.646 100.91 163.6 100.91 164.648ZM95.4707 160.576C94.4941 160.576 93.6673 160.859 92.9902 161.426C92.3132 161.986 91.8867 162.738 91.7109 163.682H99.2109C99.0286 162.725 98.599 161.969 97.9219 161.416C97.2513 160.856 96.4342 160.576 95.4707 160.576ZM108.591 159.141H109.548V160.752H108.444C107.468 160.752 106.709 161.051 106.169 161.65C105.628 162.249 105.358 163.076 105.358 164.131V170H103.649V159.199H104.86L105.134 160.84C105.915 159.707 107.067 159.141 108.591 159.141ZM116.637 170V155.996H118.385V170H116.637ZM127.628 158.965C128.891 158.965 129.9 159.391 130.655 160.244C131.417 161.097 131.798 162.194 131.798 163.535V170H130.099V163.936C130.099 162.842 129.848 161.999 129.347 161.406C128.846 160.814 128.126 160.518 127.189 160.518C126.264 160.518 125.489 160.863 124.864 161.553C124.239 162.243 123.927 163.096 123.927 164.111V170H122.218V159.199H123.429L123.761 160.889C124.171 160.283 124.711 159.811 125.382 159.473C126.053 159.134 126.801 158.965 127.628 158.965ZM139.635 168.428H140.807V170H139.41C138.245 170 137.327 169.665 136.656 168.994C135.992 168.317 135.66 167.393 135.66 166.221V160.732H133.756V160.43L137.096 156.914H137.359V159.199H140.748V160.732H137.359V166.172C137.359 166.901 137.555 167.461 137.945 167.852C138.336 168.236 138.899 168.428 139.635 168.428ZM153.243 164.648C153.243 164.844 153.233 165.046 153.214 165.254H144.005C144.135 166.257 144.545 167.061 145.235 167.666C145.932 168.271 146.788 168.574 147.804 168.574C148.546 168.574 149.207 168.411 149.786 168.086C150.365 167.754 150.824 167.295 151.163 166.709H152.96C152.498 167.822 151.814 168.688 150.909 169.307C150.011 169.925 148.975 170.234 147.804 170.234C146.775 170.234 145.837 169.99 144.991 169.502C144.151 169.014 143.49 168.34 143.009 167.48C142.533 166.621 142.296 165.661 142.296 164.6C142.296 163.545 142.533 162.588 143.009 161.729C143.49 160.863 144.151 160.186 144.991 159.697C145.837 159.209 146.775 158.965 147.804 158.965C148.871 158.965 149.822 159.219 150.655 159.727C151.488 160.234 152.126 160.921 152.569 161.787C153.018 162.646 153.243 163.6 153.243 164.648ZM147.804 160.576C146.827 160.576 146 160.859 145.323 161.426C144.646 161.986 144.22 162.738 144.044 163.682H151.544C151.361 162.725 150.932 161.969 150.255 161.416C149.584 160.856 148.767 160.576 147.804 160.576ZM160.923 159.141H161.88V160.752H160.777C159.8 160.752 159.042 161.051 158.502 161.65C157.961 162.249 157.691 163.076 157.691 164.131V170H155.982V159.199H157.193L157.466 160.84C158.248 159.707 159.4 159.141 160.923 159.141ZM171.524 159.199H173.262L168.711 170H167.168L162.491 159.199H164.268L167.93 167.793L171.524 159.199ZM175.474 157.334V155.381H177.32V157.334H175.474ZM175.542 170V159.199H177.251V170H175.542ZM190.957 164.648C190.957 164.844 190.947 165.046 190.928 165.254H181.719C181.849 166.257 182.259 167.061 182.949 167.666C183.646 168.271 184.502 168.574 185.518 168.574C186.26 168.574 186.921 168.411 187.5 168.086C188.079 167.754 188.538 167.295 188.877 166.709H190.674C190.212 167.822 189.528 168.688 188.623 169.307C187.725 169.925 186.689 170.234 185.518 170.234C184.489 170.234 183.551 169.99 182.705 169.502C181.865 169.014 181.204 168.34 180.723 167.48C180.247 166.621 180.01 165.661 180.01 164.6C180.01 163.545 180.247 162.588 180.723 161.729C181.204 160.863 181.865 160.186 182.705 159.697C183.551 159.209 184.489 158.965 185.518 158.965C186.585 158.965 187.536 159.219 188.369 159.727C189.202 160.234 189.84 160.921 190.283 161.787C190.732 162.646 190.957 163.6 190.957 164.648ZM185.518 160.576C184.541 160.576 183.714 160.859 183.037 161.426C182.36 161.986 181.934 162.738 181.758 163.682H189.258C189.076 162.725 188.646 161.969 187.969 161.416C187.298 160.856 186.481 160.576 185.518 160.576ZM206.714 159.199H208.432L204.751 170H203.364L200.317 162.637L197.261 170H195.884L192.231 159.199H194.009L196.694 167.158L200.005 159.365H200.62L203.95 167.227L206.714 159.199ZM33.1719 205.215C31.8047 205.215 30.5742 204.909 29.4805 204.297C28.3867 203.678 27.5306 202.819 26.9121 201.719C26.3001 200.618 25.9941 199.378 25.9941 197.998C25.9941 196.618 26.3001 195.378 26.9121 194.277C27.5306 193.177 28.3867 192.321 29.4805 191.709C30.5742 191.09 31.8047 190.781 33.1719 190.781C34.793 190.781 36.2025 191.23 37.4004 192.129C38.5983 193.021 39.3991 194.222 39.8027 195.732H38.0156C37.6445 194.723 37.0293 193.932 36.1699 193.359C35.3171 192.786 34.3177 192.5 33.1719 192.5C31.6029 192.5 30.3138 193.014 29.3047 194.043C28.2956 195.072 27.791 196.39 27.791 197.998C27.791 199.606 28.2956 200.924 29.3047 201.953C30.3138 202.982 31.6029 203.496 33.1719 203.496C34.3503 203.496 35.3724 203.193 36.2383 202.588C37.1042 201.976 37.7194 201.133 38.084 200.059H39.8711C39.474 201.641 38.6699 202.897 37.459 203.828C36.2546 204.753 34.8255 205.215 33.1719 205.215ZM47.3465 205.234C45.7124 205.234 44.3484 204.701 43.2547 203.633C42.1674 202.559 41.6238 201.214 41.6238 199.6C41.6238 198.532 41.8712 197.568 42.366 196.709C42.8608 195.85 43.5444 195.179 44.4168 194.697C45.2957 194.209 46.2723 193.965 47.3465 193.965C48.4207 193.965 49.394 194.209 50.2664 194.697C51.1453 195.179 51.8322 195.853 52.327 196.719C52.8283 197.578 53.0789 198.538 53.0789 199.6C53.0789 200.661 52.8283 201.624 52.327 202.49C51.8322 203.35 51.1453 204.023 50.2664 204.512C49.394 204.993 48.4207 205.234 47.3465 205.234ZM44.4852 202.471C45.2339 203.219 46.1876 203.594 47.3465 203.594C48.5053 203.594 49.4591 203.219 50.2078 202.471C50.963 201.715 51.3406 200.758 51.3406 199.6C51.3406 198.441 50.963 197.487 50.2078 196.738C49.4591 195.983 48.5053 195.605 47.3465 195.605C46.1876 195.605 45.2339 195.983 44.4852 196.738C43.7365 197.487 43.3621 198.441 43.3621 199.6C43.3621 200.758 43.7365 201.715 44.4852 202.471ZM67.8004 193.965C68.9332 193.965 69.8479 194.349 70.5445 195.117C71.2411 195.885 71.5895 196.878 71.5895 198.096V205H69.9L69.8902 198.623C69.8902 197.646 69.6754 196.885 69.2457 196.338C68.816 195.791 68.2171 195.518 67.4488 195.518C66.6546 195.518 65.9742 195.856 65.4078 196.533C64.8479 197.204 64.568 198.031 64.568 199.014V205H62.9078V198.623C62.9078 197.646 62.693 196.885 62.2633 196.338C61.8336 195.791 61.2281 195.518 60.4469 195.518C59.6526 195.518 58.9723 195.856 58.4059 196.533C57.846 197.204 57.566 198.031 57.566 199.014V205H55.857V194.199H57.0875L57.3609 195.684C57.7776 195.143 58.2887 194.723 58.8941 194.424C59.5061 194.118 60.1507 193.965 60.8277 193.965C61.5829 193.965 62.247 194.147 62.8199 194.512C63.3928 194.876 63.8323 195.378 64.1383 196.016C64.5419 195.378 65.066 194.876 65.7105 194.512C66.3616 194.147 67.0582 193.965 67.8004 193.965ZM80.8031 193.965C81.8643 193.965 82.8181 194.209 83.6645 194.697C84.5108 195.186 85.1684 195.859 85.6371 196.719C86.1124 197.572 86.35 198.532 86.35 199.6C86.35 201.214 85.8259 202.559 84.7777 203.633C83.7296 204.701 82.4047 205.234 80.8031 205.234C80.0089 205.234 79.2634 205.088 78.5668 204.795C77.8767 204.502 77.2777 204.089 76.7699 203.555V208.857H75.0609V194.199H76.2328L76.5746 195.85C77.0824 195.257 77.7009 194.795 78.4301 194.463C79.1592 194.131 79.9503 193.965 80.8031 193.965ZM77.8246 202.451C78.5863 203.213 79.5368 203.594 80.6762 203.594C81.8155 203.594 82.7595 203.216 83.5082 202.461C84.2569 201.699 84.6312 200.745 84.6312 199.6C84.6312 198.454 84.2569 197.503 83.5082 196.748C82.7595 195.986 81.8155 195.605 80.6762 195.605C79.5368 195.605 78.5863 195.986 77.8246 196.748C77.0694 197.51 76.6918 198.46 76.6918 199.6C76.6918 200.739 77.0694 201.689 77.8246 202.451ZM99.2258 199.648C99.2258 199.844 99.216 200.046 99.1965 200.254H89.9875C90.1177 201.257 90.5279 202.061 91.218 202.666C91.9146 203.271 92.7707 203.574 93.7863 203.574C94.5285 203.574 95.1893 203.411 95.7687 203.086C96.3482 202.754 96.8072 202.295 97.1457 201.709H98.9426C98.4803 202.822 97.7967 203.688 96.8918 204.307C95.9934 204.925 94.9582 205.234 93.7863 205.234C92.7577 205.234 91.8202 204.99 90.9738 204.502C90.134 204.014 89.4732 203.34 88.9914 202.48C88.5161 201.621 88.2785 200.661 88.2785 199.6C88.2785 198.545 88.5161 197.588 88.9914 196.729C89.4732 195.863 90.134 195.186 90.9738 194.697C91.8202 194.209 92.7577 193.965 93.7863 193.965C94.854 193.965 95.8046 194.219 96.6379 194.727C97.4712 195.234 98.1092 195.921 98.552 196.787C99.0012 197.646 99.2258 198.6 99.2258 199.648ZM93.7863 195.576C92.8098 195.576 91.9829 195.859 91.3059 196.426C90.6288 196.986 90.2023 197.738 90.0266 198.682H97.5266C97.3443 197.725 96.9146 196.969 96.2375 196.416C95.5669 195.856 94.7499 195.576 93.7863 195.576ZM106.33 203.428H107.502V205H106.105C104.94 205 104.022 204.665 103.352 203.994C102.688 203.317 102.355 202.393 102.355 201.221V195.732H100.451V195.43L103.791 191.914H104.055V194.199H107.443V195.732H104.055V201.172C104.055 201.901 104.25 202.461 104.641 202.852C105.031 203.236 105.594 203.428 106.33 203.428ZM109.909 192.334V190.381H111.755V192.334H109.909ZM109.977 205V194.199H111.686V205H109.977ZM119.777 203.428H120.949V205H119.552C118.387 205 117.469 204.665 116.798 203.994C116.134 203.317 115.802 202.393 115.802 201.221V195.732H113.898V195.43L117.238 191.914H117.502V194.199H120.89V195.732H117.502V201.172C117.502 201.901 117.697 202.461 118.088 202.852C118.478 203.236 119.041 203.428 119.777 203.428ZM123.356 192.334V190.381H125.202V192.334H123.356ZM123.424 205V194.199H125.133V205H123.424ZM136.368 194.199H138.107L133.556 205H132.013L127.335 194.199H129.113L132.775 202.793L136.368 194.199ZM150.152 199.648C150.152 199.844 150.143 200.046 150.123 200.254H140.914C141.044 201.257 141.454 202.061 142.145 202.666C142.841 203.271 143.697 203.574 144.713 203.574C145.455 203.574 146.116 203.411 146.695 203.086C147.275 202.754 147.734 202.295 148.072 201.709H149.869C149.407 202.822 148.723 203.688 147.818 204.307C146.92 204.925 145.885 205.234 144.713 205.234C143.684 205.234 142.747 204.99 141.9 204.502C141.061 204.014 140.4 203.34 139.918 202.48C139.443 201.621 139.205 200.661 139.205 199.6C139.205 198.545 139.443 197.588 139.918 196.729C140.4 195.863 141.061 195.186 141.9 194.697C142.747 194.209 143.684 193.965 144.713 193.965C145.781 193.965 146.731 194.219 147.564 194.727C148.398 195.234 149.036 195.921 149.479 196.787C149.928 197.646 150.152 198.6 150.152 199.648ZM144.713 195.576C143.736 195.576 142.91 195.859 142.232 196.426C141.555 196.986 141.129 197.738 140.953 198.682H148.453C148.271 197.725 147.841 196.969 147.164 196.416C146.493 195.856 145.676 195.576 144.713 195.576ZM166.685 205L163.472 199.521H160.279V205H158.531V190.996H163.834C165.149 190.996 166.236 191.4 167.095 192.207C167.961 193.014 168.394 194.04 168.394 195.283C168.394 196.26 168.114 197.109 167.554 197.832C166.994 198.548 166.246 199.043 165.308 199.316L168.658 205H166.685ZM160.279 192.666V197.861H163.746C164.599 197.861 165.289 197.62 165.816 197.139C166.343 196.65 166.607 196.025 166.607 195.264C166.607 194.508 166.34 193.887 165.806 193.398C165.279 192.91 164.592 192.666 163.746 192.666H160.279ZM181.26 199.648C181.26 199.844 181.25 200.046 181.231 200.254H172.022C172.152 201.257 172.562 202.061 173.252 202.666C173.949 203.271 174.805 203.574 175.821 203.574C176.563 203.574 177.224 203.411 177.803 203.086C178.383 202.754 178.842 202.295 179.18 201.709H180.977C180.515 202.822 179.831 203.688 178.926 204.307C178.028 204.925 176.993 205.234 175.821 205.234C174.792 205.234 173.855 204.99 173.008 204.502C172.168 204.014 171.508 203.34 171.026 202.48C170.551 201.621 170.313 200.661 170.313 199.6C170.313 198.545 170.551 197.588 171.026 196.729C171.508 195.863 172.168 195.186 173.008 194.697C173.855 194.209 174.792 193.965 175.821 193.965C176.888 193.965 177.839 194.219 178.672 194.727C179.506 195.234 180.144 195.921 180.586 196.787C181.036 197.646 181.26 198.6 181.26 199.648ZM175.821 195.576C174.844 195.576 174.017 195.859 173.34 196.426C172.663 196.986 172.237 197.738 172.061 198.682H179.561C179.379 197.725 178.949 196.969 178.272 196.416C177.601 195.856 176.784 195.576 175.821 195.576ZM187.417 205.234C186.141 205.234 185.116 204.915 184.341 204.277C183.566 203.639 183.156 202.777 183.111 201.689H184.771C184.816 202.314 185.083 202.799 185.571 203.145C186.066 203.49 186.701 203.662 187.476 203.662C188.224 203.662 188.833 203.512 189.302 203.213C189.777 202.913 190.015 202.503 190.015 201.982C190.015 201.781 189.982 201.598 189.917 201.436C189.852 201.273 189.748 201.136 189.605 201.025C189.461 200.908 189.318 200.811 189.175 200.732C189.032 200.648 188.833 200.573 188.579 200.508C188.332 200.443 188.117 200.394 187.935 200.361C187.759 200.322 187.518 200.277 187.212 200.225C186.971 200.186 186.782 200.153 186.646 200.127C186.515 200.101 186.333 200.062 186.099 200.01C185.871 199.958 185.689 199.909 185.552 199.863C185.415 199.818 185.246 199.759 185.044 199.688C184.842 199.616 184.68 199.538 184.556 199.453C184.439 199.368 184.305 199.271 184.155 199.16C184.006 199.043 183.885 198.916 183.794 198.779C183.71 198.643 183.625 198.493 183.54 198.33C183.456 198.161 183.394 197.972 183.355 197.764C183.322 197.555 183.306 197.331 183.306 197.09C183.306 196.159 183.68 195.407 184.429 194.834C185.178 194.255 186.161 193.965 187.378 193.965C188.596 193.965 189.569 194.268 190.298 194.873C191.034 195.472 191.418 196.283 191.45 197.305H189.839C189.807 196.719 189.572 196.27 189.136 195.957C188.7 195.638 188.101 195.479 187.339 195.479C186.61 195.479 186.03 195.622 185.601 195.908C185.171 196.188 184.956 196.562 184.956 197.031C184.956 197.214 184.986 197.38 185.044 197.529C185.103 197.673 185.2 197.796 185.337 197.9C185.474 198.005 185.611 198.092 185.747 198.164C185.884 198.236 186.073 198.301 186.314 198.359C186.555 198.418 186.76 198.464 186.929 198.496C187.098 198.529 187.336 198.568 187.642 198.613C188.71 198.789 189.474 198.975 189.937 199.17C191.004 199.619 191.584 200.407 191.675 201.533C191.688 201.657 191.695 201.781 191.695 201.904C191.695 202.913 191.304 203.721 190.523 204.326C189.741 204.932 188.706 205.234 187.417 205.234ZM204.551 199.648C204.551 199.844 204.541 200.046 204.521 200.254H195.312C195.443 201.257 195.853 202.061 196.543 202.666C197.24 203.271 198.096 203.574 199.111 203.574C199.854 203.574 200.514 203.411 201.094 203.086C201.673 202.754 202.132 202.295 202.471 201.709H204.268C203.805 202.822 203.122 203.688 202.217 204.307C201.318 204.925 200.283 205.234 199.111 205.234C198.083 205.234 197.145 204.99 196.299 204.502C195.459 204.014 194.798 203.34 194.316 202.48C193.841 201.621 193.604 200.661 193.604 199.6C193.604 198.545 193.841 197.588 194.316 196.729C194.798 195.863 195.459 195.186 196.299 194.697C197.145 194.209 198.083 193.965 199.111 193.965C200.179 193.965 201.13 194.219 201.963 194.727C202.796 195.234 203.434 195.921 203.877 196.787C204.326 197.646 204.551 198.6 204.551 199.648ZM199.111 195.576C198.135 195.576 197.308 195.859 196.631 196.426C195.954 196.986 195.527 197.738 195.352 198.682H202.852C202.669 197.725 202.24 196.969 201.562 196.416C200.892 195.856 200.075 195.576 199.111 195.576ZM216.499 194.199H217.856V205H216.45L216.264 203.359C215.757 203.952 215.138 204.414 214.409 204.746C213.686 205.072 212.892 205.234 212.026 205.234C210.978 205.234 210.027 204.99 209.175 204.502C208.322 204.014 207.651 203.34 207.163 202.48C206.681 201.615 206.44 200.654 206.44 199.6C206.44 197.985 206.971 196.644 208.032 195.576C209.1 194.502 210.431 193.965 212.026 193.965C212.892 193.965 213.693 194.131 214.429 194.463C215.164 194.795 215.786 195.26 216.294 195.859L216.499 194.199ZM209.311 202.451C210.067 203.213 211.014 203.594 212.153 203.594C213.292 203.594 214.236 203.216 214.985 202.461C215.74 201.699 216.118 200.745 216.118 199.6C216.118 198.454 215.74 197.503 214.985 196.748C214.236 195.986 213.292 195.605 212.153 195.605C211.014 195.605 210.067 195.986 209.311 196.748C208.556 197.51 208.179 198.46 208.179 199.6C208.179 200.739 208.556 201.689 209.311 202.451ZM226.416 194.141H227.373V195.752H226.269C225.293 195.752 224.534 196.051 223.994 196.65C223.453 197.249 223.183 198.076 223.183 199.131V205H221.474V194.199H222.685L222.959 195.84C223.74 194.707 224.892 194.141 226.416 194.141ZM233.803 205.234C232.755 205.234 231.801 204.99 230.942 204.502C230.082 204.014 229.409 203.34 228.92 202.48C228.432 201.615 228.188 200.654 228.188 199.6C228.188 198.538 228.432 197.578 228.92 196.719C229.409 195.859 230.082 195.186 230.942 194.697C231.801 194.209 232.755 193.965 233.803 193.965C235.086 193.965 236.196 194.316 237.133 195.02C238.077 195.723 238.715 196.663 239.047 197.842H237.368C237.049 197.145 236.573 196.598 235.942 196.201C235.31 195.804 234.597 195.605 233.803 195.605C232.696 195.605 231.772 195.99 231.03 196.758C230.294 197.52 229.926 198.467 229.926 199.6C229.926 200.726 230.297 201.673 231.039 202.441C231.782 203.21 232.703 203.594 233.803 203.594C234.597 203.594 235.304 203.392 235.922 202.988C236.541 202.585 237.016 202.021 237.348 201.299H239.067C238.735 202.49 238.09 203.444 237.133 204.16C236.183 204.876 235.073 205.234 233.803 205.234ZM247.05 193.965C248.333 193.965 249.348 194.378 250.097 195.205C250.846 196.025 251.22 197.135 251.22 198.535V205H249.521V198.936C249.521 197.842 249.27 196.999 248.769 196.406C248.267 195.814 247.548 195.518 246.611 195.518C245.686 195.518 244.911 195.863 244.286 196.553C243.661 197.243 243.349 198.096 243.349 199.111V205H241.64V190.342H243.349V195.674C243.772 195.133 244.303 194.714 244.941 194.414C245.579 194.115 246.282 193.965 247.05 193.965Z" fill="white"/>
<path d="M196.694 253C184.008 382.384 348.922 274.327 390 403" stroke="white" stroke-opacity="0.3" stroke-width="3" stroke-dasharray="11 11"/>
<path d="M606.323 371.191C731 309.999 618 152.5 738 175" stroke="white" stroke-opacity="0.3" stroke-width="3" stroke-dasharray="11 11"/>
<path d="M884.5 262C937 308.499 1007.5 227 1104 379" stroke="white" stroke-opacity="0.3" stroke-width="3" stroke-dasharray="11 11"/>
<circle cx="850.5" cy="138.5" r="138.5" fill="#C6B627"/>
<path d="M790.204 80.7559C791.886 81.1322 793.226 81.9512 794.222 83.2129C795.229 84.4635 795.732 85.9743 795.732 87.7451C795.732 89.9587 794.969 91.7904 793.441 93.2402C791.925 94.6901 790.016 95.415 787.714 95.415C785.467 95.415 783.624 94.7178 782.186 93.3232C780.747 91.9176 779.989 90.097 779.911 87.8613H784.759C784.803 88.7799 785.091 89.516 785.622 90.0693C786.164 90.6117 786.862 90.8828 787.714 90.8828C788.621 90.8828 789.368 90.5785 789.955 89.9697C790.542 89.3499 790.835 88.5586 790.835 87.5957C790.835 86.6328 790.52 85.8691 789.889 85.3047C789.258 84.7292 788.422 84.4414 787.382 84.4414H784.095V83.5283L788.212 76.7383H780.459V72.3887H794.869V73.2852L790.204 80.7559Z" fill="white"/>
<path d="M810.223 95V71.1934H815.369V95H810.223ZM834.037 70.0146H839.001V95H835.332L834.751 93.4727C833.124 94.8561 831.204 95.5479 828.99 95.5479C826.212 95.5479 823.91 94.6237 822.084 92.7754C820.258 90.9271 819.345 88.6084 819.345 85.8193C819.345 84.4469 819.588 83.1631 820.075 81.9678C820.562 80.7614 821.226 79.7321 822.068 78.8799C822.92 78.0277 823.944 77.3581 825.139 76.8711C826.334 76.373 827.618 76.124 828.99 76.124C830.861 76.124 832.543 76.6276 834.037 77.6348V70.0146ZM825.819 89.4219C826.771 90.3737 827.967 90.8496 829.405 90.8496C830.844 90.8496 832.034 90.3737 832.975 89.4219C833.927 88.459 834.403 87.2581 834.403 85.8193C834.403 84.3805 833.927 83.1852 832.975 82.2334C832.034 81.2705 830.844 80.7891 829.405 80.7891C827.967 80.7891 826.771 81.265 825.819 82.2168C824.879 83.1686 824.408 84.3695 824.408 85.8193C824.408 87.2692 824.879 88.4701 825.819 89.4219ZM861.919 85.7529C861.919 86.251 861.886 86.738 861.82 87.2139H847.924C848.134 88.4645 848.632 89.4274 849.418 90.1025C850.215 90.7666 851.217 91.0986 852.423 91.0986C853.275 91.0986 854.039 90.9105 854.714 90.5342C855.4 90.1579 855.932 89.6377 856.308 88.9736H861.521C860.857 90.9769 859.706 92.5706 858.068 93.7549C856.43 94.9281 854.548 95.5146 852.423 95.5146C850.641 95.5146 849.02 95.0941 847.559 94.2529C846.109 93.4007 844.969 92.2331 844.139 90.75C843.309 89.2669 842.894 87.6234 842.894 85.8193C842.894 84.0042 843.303 82.3551 844.122 80.8721C844.952 79.389 846.092 78.2269 847.542 77.3857C849.003 76.5446 850.63 76.124 852.423 76.124C854.26 76.124 855.909 76.5612 857.37 77.4355C858.831 78.2988 859.955 79.4609 860.741 80.9219C861.526 82.3828 861.919 83.9932 861.919 85.7529ZM852.423 80.3574C851.327 80.3574 850.398 80.6618 849.634 81.2705C848.87 81.8792 848.345 82.7314 848.057 83.8271H856.955C856.612 82.7093 856.048 81.8516 855.262 81.2539C854.487 80.6562 853.541 80.3574 852.423 80.3574ZM880.77 76.6055H884.489V94.9668H880.587L880.156 93.3232C878.485 94.7842 876.503 95.5146 874.212 95.5146C872.397 95.5146 870.754 95.0941 869.282 94.2529C867.81 93.4118 866.659 92.2497 865.829 90.7666C864.999 89.2725 864.583 87.6123 864.583 85.7861C864.583 83.971 864.999 82.3275 865.829 80.8555C866.659 79.3724 867.81 78.2158 869.282 77.3857C870.754 76.5446 872.397 76.124 874.212 76.124C876.548 76.124 878.556 76.8711 880.239 78.3652L880.77 76.6055ZM871.025 89.3887C871.977 90.3405 873.172 90.8164 874.611 90.8164C876.05 90.8164 877.239 90.3405 878.18 89.3887C879.132 88.4368 879.608 87.236 879.608 85.7861C879.608 84.3363 879.132 83.1354 878.18 82.1836C877.239 81.2318 876.05 80.7559 874.611 80.7559C873.172 80.7559 871.977 81.2373 871.025 82.2002C870.084 83.152 869.614 84.3473 869.614 85.7861C869.614 87.2249 870.084 88.4258 871.025 89.3887ZM898.575 90.584H900.833V95H897.313C895.299 95 893.705 94.4189 892.532 93.2568C891.37 92.0837 890.789 90.4788 890.789 88.4424V80.623H887.468V79.5605L894.723 71.8408H895.67V76.6387H900.733V80.623H895.753V87.7783C895.753 88.6748 895.996 89.3665 896.483 89.8535C896.97 90.3405 897.667 90.584 898.575 90.584ZM922.207 85.7529C922.207 86.251 922.174 86.738 922.107 87.2139H908.212C908.422 88.4645 908.92 89.4274 909.706 90.1025C910.503 90.7666 911.504 91.0986 912.711 91.0986C913.563 91.0986 914.327 90.9105 915.002 90.5342C915.688 90.1579 916.219 89.6377 916.596 88.9736H921.808C921.144 90.9769 919.993 92.5706 918.355 93.7549C916.717 94.9281 914.836 95.5146 912.711 95.5146C910.929 95.5146 909.307 95.0941 907.846 94.2529C906.397 93.4007 905.257 92.2331 904.427 90.75C903.596 89.2669 903.181 87.6234 903.181 85.8193C903.181 84.0042 903.591 82.3551 904.41 80.8721C905.24 79.389 906.38 78.2269 907.83 77.3857C909.291 76.5446 910.918 76.124 912.711 76.124C914.548 76.124 916.197 76.5612 917.658 77.4355C919.119 78.2988 920.242 79.4609 921.028 80.9219C921.814 82.3828 922.207 83.9932 922.207 85.7529ZM912.711 80.3574C911.615 80.3574 910.685 80.6618 909.922 81.2705C909.158 81.8792 908.632 82.7314 908.345 83.8271H917.243C916.9 82.7093 916.335 81.8516 915.55 81.2539C914.775 80.6562 913.829 80.3574 912.711 80.3574Z" fill="white"/>
<path d="M809.848 146.234C808.26 146.234 806.945 145.723 805.903 144.701C804.861 143.679 804.341 142.374 804.341 140.785V131.996H806.118V140.658C806.118 141.804 806.463 142.735 807.153 143.451C807.85 144.161 808.748 144.516 809.848 144.516C810.936 144.516 811.824 144.161 812.514 143.451C813.211 142.735 813.559 141.804 813.559 140.658V131.996H815.337V140.785C815.337 141.833 815.099 142.774 814.624 143.607C814.149 144.441 813.491 145.089 812.651 145.551C811.818 146.007 810.884 146.234 809.848 146.234ZM822.275 146.234C820.999 146.234 819.974 145.915 819.199 145.277C818.424 144.639 818.014 143.777 817.968 142.689H819.629C819.674 143.314 819.941 143.799 820.429 144.145C820.924 144.49 821.559 144.662 822.334 144.662C823.082 144.662 823.691 144.512 824.16 144.213C824.635 143.913 824.873 143.503 824.873 142.982C824.873 142.781 824.84 142.598 824.775 142.436C824.71 142.273 824.606 142.136 824.463 142.025C824.319 141.908 824.176 141.811 824.033 141.732C823.89 141.648 823.691 141.573 823.437 141.508C823.19 141.443 822.975 141.394 822.793 141.361C822.617 141.322 822.376 141.277 822.07 141.225C821.829 141.186 821.64 141.153 821.504 141.127C821.373 141.101 821.191 141.062 820.957 141.01C820.729 140.958 820.546 140.909 820.41 140.863C820.273 140.818 820.104 140.759 819.902 140.688C819.7 140.616 819.537 140.538 819.414 140.453C819.296 140.368 819.163 140.271 819.013 140.16C818.864 140.043 818.743 139.916 818.652 139.779C818.567 139.643 818.483 139.493 818.398 139.33C818.313 139.161 818.252 138.972 818.213 138.764C818.18 138.555 818.164 138.331 818.164 138.09C818.164 137.159 818.538 136.407 819.287 135.834C820.035 135.255 821.018 134.965 822.236 134.965C823.453 134.965 824.427 135.268 825.156 135.873C825.892 136.472 826.276 137.283 826.308 138.305H824.697C824.664 137.719 824.43 137.27 823.994 136.957C823.558 136.638 822.959 136.479 822.197 136.479C821.468 136.479 820.888 136.622 820.459 136.908C820.029 137.188 819.814 137.562 819.814 138.031C819.814 138.214 819.843 138.38 819.902 138.529C819.961 138.673 820.058 138.796 820.195 138.9C820.332 139.005 820.468 139.092 820.605 139.164C820.742 139.236 820.931 139.301 821.171 139.359C821.412 139.418 821.617 139.464 821.787 139.496C821.956 139.529 822.194 139.568 822.5 139.613C823.567 139.789 824.332 139.975 824.795 140.17C825.862 140.619 826.442 141.407 826.533 142.533C826.546 142.657 826.552 142.781 826.552 142.904C826.552 143.913 826.162 144.721 825.38 145.326C824.599 145.932 823.564 146.234 822.275 146.234ZM839.409 140.648C839.409 140.844 839.399 141.046 839.379 141.254H830.17C830.301 142.257 830.711 143.061 831.401 143.666C832.097 144.271 832.954 144.574 833.969 144.574C834.711 144.574 835.372 144.411 835.952 144.086C836.531 143.754 836.99 143.295 837.329 142.709H839.125C838.663 143.822 837.98 144.688 837.075 145.307C836.176 145.925 835.141 146.234 833.969 146.234C832.94 146.234 832.003 145.99 831.157 145.502C830.317 145.014 829.656 144.34 829.174 143.48C828.699 142.621 828.461 141.661 828.461 140.6C828.461 139.545 828.699 138.588 829.174 137.729C829.656 136.863 830.317 136.186 831.157 135.697C832.003 135.209 832.94 134.965 833.969 134.965C835.037 134.965 835.987 135.219 836.821 135.727C837.654 136.234 838.292 136.921 838.735 137.787C839.184 138.646 839.409 139.6 839.409 140.648ZM833.969 136.576C832.993 136.576 832.166 136.859 831.489 137.426C830.812 137.986 830.385 138.738 830.209 139.682H837.709C837.527 138.725 837.097 137.969 836.42 137.416C835.75 136.856 834.933 136.576 833.969 136.576ZM847.089 135.141H848.046V136.752H846.943C845.966 136.752 845.208 137.051 844.667 137.65C844.127 138.249 843.857 139.076 843.857 140.131V146H842.148V135.199H843.359L843.632 136.84C844.413 135.707 845.566 135.141 847.089 135.141ZM862.997 133.666H856.884V138.285H862.479V139.916H856.884V146H855.136V131.996H862.997V133.666ZM865.599 146V131.342H867.308V146H865.599ZM875.789 146.234C874.155 146.234 872.791 145.701 871.698 144.633C870.61 143.559 870.067 142.214 870.067 140.6C870.067 139.532 870.314 138.568 870.809 137.709C871.304 136.85 871.987 136.179 872.86 135.697C873.739 135.209 874.715 134.965 875.789 134.965C876.864 134.965 877.837 135.209 878.709 135.697C879.588 136.179 880.275 136.853 880.77 137.719C881.271 138.578 881.522 139.538 881.522 140.6C881.522 141.661 881.271 142.624 880.77 143.49C880.275 144.35 879.588 145.023 878.709 145.512C877.837 145.993 876.864 146.234 875.789 146.234ZM872.928 143.471C873.677 144.219 874.631 144.594 875.789 144.594C876.948 144.594 877.902 144.219 878.651 143.471C879.406 142.715 879.784 141.758 879.784 140.6C879.784 139.441 879.406 138.487 878.651 137.738C877.902 136.983 876.948 136.605 875.789 136.605C874.631 136.605 873.677 136.983 872.928 137.738C872.179 138.487 871.805 139.441 871.805 140.6C871.805 141.758 872.179 142.715 872.928 143.471ZM897.318 135.199H899.036L895.355 146H893.968L890.921 138.637L887.864 146H886.488L882.835 135.199H884.613L887.298 143.158L890.609 135.365H891.224L894.554 143.227L897.318 135.199ZM774.668 179.359H780.821V181H772.92V166.996H774.668V179.359ZM787.554 181.234C785.92 181.234 784.556 180.701 783.462 179.633C782.375 178.559 781.831 177.214 781.831 175.6C781.831 174.532 782.079 173.568 782.573 172.709C783.068 171.85 783.752 171.179 784.624 170.697C785.503 170.209 786.48 169.965 787.554 169.965C788.628 169.965 789.601 170.209 790.474 170.697C791.353 171.179 792.04 171.853 792.534 172.719C793.036 173.578 793.286 174.538 793.286 175.6C793.286 176.661 793.036 177.624 792.534 178.49C792.04 179.35 791.353 180.023 790.474 180.512C789.601 180.993 788.628 181.234 787.554 181.234ZM784.693 178.471C785.441 179.219 786.395 179.594 787.554 179.594C788.713 179.594 789.667 179.219 790.415 178.471C791.17 177.715 791.548 176.758 791.548 175.6C791.548 174.441 791.17 173.487 790.415 172.738C789.667 171.983 788.713 171.605 787.554 171.605C786.395 171.605 785.441 171.983 784.693 172.738C783.944 173.487 783.57 174.441 783.57 175.6C783.57 176.758 783.944 177.715 784.693 178.471ZM809.082 170.199H810.801L807.119 181H805.732L802.686 173.637L799.629 181H798.252L794.6 170.199H796.377L799.062 178.158L802.373 170.365H802.988L806.318 178.227L809.082 170.199ZM812.358 176.234V174.594H818.706V176.234H812.358ZM827.285 170.277V171.703H823.974V181H822.275V171.703H820.146V170.277H822.275V169.398C822.275 168.233 822.555 167.367 823.115 166.801C823.675 166.234 824.55 165.951 825.742 165.951H827.265V167.328H826.045C825.276 167.328 824.729 167.491 824.404 167.816C824.078 168.135 823.916 168.676 823.916 169.438V170.277H827.285ZM829.37 168.334V166.381H831.215V168.334H829.37ZM829.438 181V170.199H831.147V181H829.438ZM844.564 181.176C843.015 181.176 841.765 180.769 840.814 179.955C839.87 179.141 839.398 178.051 839.398 176.684H841.186C841.186 177.536 841.498 178.214 842.123 178.715C842.748 179.21 843.555 179.457 844.545 179.457C845.443 179.457 846.192 179.239 846.791 178.803C847.39 178.36 847.689 177.774 847.689 177.045C847.689 176.869 847.667 176.703 847.621 176.547C847.576 176.384 847.523 176.244 847.465 176.127C847.406 176.003 847.312 175.886 847.182 175.775C847.058 175.665 846.944 175.57 846.84 175.492C846.742 175.414 846.596 175.336 846.4 175.258C846.205 175.173 846.046 175.108 845.922 175.062C845.805 175.01 845.622 174.952 845.375 174.887C845.128 174.822 844.942 174.773 844.818 174.74C844.695 174.708 844.493 174.659 844.213 174.594C843.021 174.307 842.169 174.044 841.654 173.803C840.528 173.262 839.88 172.452 839.711 171.371C839.678 171.163 839.662 170.945 839.662 170.717C839.662 169.512 840.092 168.562 840.951 167.865C841.811 167.169 842.969 166.82 844.428 166.82C845.873 166.82 847.012 167.195 847.846 167.943C848.686 168.686 849.105 169.695 849.105 170.971H847.367C847.367 170.209 847.087 169.607 846.527 169.164C845.974 168.721 845.261 168.5 844.389 168.5C843.523 168.5 842.81 168.695 842.25 169.086C841.697 169.47 841.42 169.988 841.42 170.639C841.42 170.854 841.452 171.052 841.518 171.234C841.589 171.41 841.674 171.566 841.771 171.703C841.869 171.833 842.012 171.96 842.201 172.084C842.39 172.201 842.562 172.299 842.719 172.377C842.875 172.449 843.09 172.527 843.363 172.611C843.643 172.696 843.874 172.761 844.057 172.807C844.239 172.852 844.493 172.914 844.818 172.992C846.01 173.285 846.863 173.552 847.377 173.793C848.536 174.327 849.219 175.131 849.428 176.205C849.48 176.465 849.506 176.739 849.506 177.025C849.506 177.885 849.285 178.633 848.842 179.271C848.406 179.903 847.816 180.378 847.074 180.697C846.339 181.016 845.502 181.176 844.564 181.176ZM859.452 181L855.751 176.156H854.208V181H852.509V166.342H854.208V174.584H855.78L859.11 170.199H861.18L857.245 175.375L861.581 181H859.452ZM873.363 175.648C873.363 175.844 873.353 176.046 873.334 176.254H864.125C864.255 177.257 864.665 178.061 865.355 178.666C866.052 179.271 866.908 179.574 867.923 179.574C868.666 179.574 869.326 179.411 869.906 179.086C870.485 178.754 870.944 178.295 871.283 177.709H873.08C872.617 178.822 871.934 179.688 871.029 180.307C870.13 180.925 869.095 181.234 867.923 181.234C866.895 181.234 865.957 180.99 865.111 180.502C864.271 180.014 863.61 179.34 863.129 178.48C862.653 177.621 862.416 176.661 862.416 175.6C862.416 174.545 862.653 173.588 863.129 172.729C863.61 171.863 864.271 171.186 865.111 170.697C865.957 170.209 866.895 169.965 867.923 169.965C868.991 169.965 869.942 170.219 870.775 170.727C871.608 171.234 872.246 171.921 872.689 172.787C873.138 173.646 873.363 174.6 873.363 175.648ZM867.923 171.576C866.947 171.576 866.12 171.859 865.443 172.426C864.766 172.986 864.339 173.738 864.164 174.682H871.664C871.481 173.725 871.052 172.969 870.375 172.416C869.704 171.856 868.887 171.576 867.923 171.576ZM880.467 179.428H881.639V181H880.243C879.077 181 878.159 180.665 877.489 179.994C876.825 179.317 876.493 178.393 876.493 177.221V171.732H874.588V171.43L877.928 167.914H878.192V170.199H881.58V171.732H878.192V177.172C878.192 177.901 878.387 178.461 878.778 178.852C879.168 179.236 879.732 179.428 880.467 179.428ZM888.743 181.234C887.695 181.234 886.741 180.99 885.882 180.502C885.023 180.014 884.349 179.34 883.861 178.48C883.372 177.615 883.128 176.654 883.128 175.6C883.128 174.538 883.372 173.578 883.861 172.719C884.349 171.859 885.023 171.186 885.882 170.697C886.741 170.209 887.695 169.965 888.743 169.965C890.026 169.965 891.136 170.316 892.073 171.02C893.017 171.723 893.655 172.663 893.987 173.842H892.308C891.989 173.145 891.514 172.598 890.882 172.201C890.251 171.804 889.538 171.605 888.743 171.605C887.637 171.605 886.712 171.99 885.97 172.758C885.234 173.52 884.866 174.467 884.866 175.6C884.866 176.726 885.237 177.673 885.98 178.441C886.722 179.21 887.643 179.594 888.743 179.594C889.538 179.594 890.244 179.392 890.862 178.988C891.481 178.585 891.956 178.021 892.288 177.299H894.007C893.675 178.49 893.03 179.444 892.073 180.16C891.123 180.876 890.013 181.234 888.743 181.234ZM901.99 169.965C903.273 169.965 904.288 170.378 905.037 171.205C905.786 172.025 906.16 173.135 906.16 174.535V181H904.461V174.936C904.461 173.842 904.21 172.999 903.709 172.406C903.208 171.814 902.488 171.518 901.551 171.518C900.626 171.518 899.852 171.863 899.227 172.553C898.602 173.243 898.289 174.096 898.289 175.111V181H896.58V166.342H898.289V171.674C898.712 171.133 899.243 170.714 899.881 170.414C900.519 170.115 901.222 169.965 901.99 169.965ZM919.71 175.648C919.71 175.844 919.7 176.046 919.68 176.254H910.471C910.602 177.257 911.012 178.061 911.702 178.666C912.399 179.271 913.255 179.574 914.27 179.574C915.013 179.574 915.673 179.411 916.253 179.086C916.832 178.754 917.291 178.295 917.63 177.709H919.427C918.964 178.822 918.281 179.688 917.376 180.307C916.477 180.925 915.442 181.234 914.27 181.234C913.242 181.234 912.304 180.99 911.458 180.502C910.618 180.014 909.957 179.34 909.475 178.48C909 177.621 908.763 176.661 908.763 175.6C908.763 174.545 909 173.588 909.475 172.729C909.957 171.863 910.618 171.186 911.458 170.697C912.304 170.209 913.242 169.965 914.27 169.965C915.338 169.965 916.289 170.219 917.122 170.727C917.955 171.234 918.593 171.921 919.036 172.787C919.485 173.646 919.71 174.6 919.71 175.648ZM914.27 171.576C913.294 171.576 912.467 171.859 911.79 172.426C911.113 172.986 910.686 173.738 910.511 174.682H918.011C917.828 173.725 917.399 172.969 916.721 172.416C916.051 171.856 915.234 171.576 914.27 171.576ZM925.867 181.234C924.591 181.234 923.565 180.915 922.791 180.277C922.016 179.639 921.606 178.777 921.56 177.689H923.22C923.266 178.314 923.533 178.799 924.021 179.145C924.516 179.49 925.151 179.662 925.925 179.662C926.674 179.662 927.283 179.512 927.752 179.213C928.227 178.913 928.464 178.503 928.464 177.982C928.464 177.781 928.432 177.598 928.367 177.436C928.302 177.273 928.198 177.136 928.054 177.025C927.911 176.908 927.768 176.811 927.625 176.732C927.481 176.648 927.283 176.573 927.029 176.508C926.782 176.443 926.567 176.394 926.384 176.361C926.209 176.322 925.968 176.277 925.662 176.225C925.421 176.186 925.232 176.153 925.095 176.127C924.965 176.101 924.783 176.062 924.548 176.01C924.321 175.958 924.138 175.909 924.002 175.863C923.865 175.818 923.696 175.759 923.494 175.688C923.292 175.616 923.129 175.538 923.005 175.453C922.888 175.368 922.755 175.271 922.605 175.16C922.455 175.043 922.335 174.916 922.244 174.779C922.159 174.643 922.074 174.493 921.99 174.33C921.905 174.161 921.843 173.972 921.804 173.764C921.772 173.555 921.755 173.331 921.755 173.09C921.755 172.159 922.13 171.407 922.879 170.834C923.627 170.255 924.61 169.965 925.828 169.965C927.045 169.965 928.018 170.268 928.748 170.873C929.483 171.472 929.867 172.283 929.9 173.305H928.289C928.256 172.719 928.022 172.27 927.586 171.957C927.149 171.638 926.55 171.479 925.789 171.479C925.059 171.479 924.48 171.622 924.05 171.908C923.621 172.188 923.406 172.562 923.406 173.031C923.406 173.214 923.435 173.38 923.494 173.529C923.552 173.673 923.65 173.796 923.787 173.9C923.923 174.005 924.06 174.092 924.197 174.164C924.334 174.236 924.522 174.301 924.763 174.359C925.004 174.418 925.209 174.464 925.379 174.496C925.548 174.529 925.785 174.568 926.091 174.613C927.159 174.789 927.924 174.975 928.386 175.17C929.454 175.619 930.033 176.407 930.125 177.533C930.138 177.657 930.144 177.781 930.144 177.904C930.144 178.913 929.754 179.721 928.972 180.326C928.191 180.932 927.156 181.234 925.867 181.234Z" fill="white"/>
<circle cx="494.5" cy="328.5" r="138.5" fill="#6494EC"/>
<path d="M433.061 297.435H439.967V302H424.112V300.938C427.355 297.197 429.674 294.452 431.068 292.703C432.463 290.954 433.404 289.621 433.891 288.702C434.389 287.784 434.638 286.909 434.638 286.079C434.638 285.293 434.394 284.662 433.907 284.187C433.431 283.7 432.812 283.456 432.048 283.456C431.251 283.456 430.609 283.705 430.122 284.203C429.646 284.69 429.408 285.338 429.408 286.146V286.577H424.544V286.079C424.544 283.976 425.219 282.261 426.569 280.933C427.931 279.593 429.729 278.924 431.965 278.924C434.189 278.924 436.005 279.588 437.41 280.916C438.827 282.244 439.535 283.949 439.535 286.029C439.535 287.479 439.092 289.007 438.207 290.611C437.322 292.205 435.606 294.479 433.061 297.435Z" fill="white"/>
<path d="M463.721 278.193C465.447 278.193 467.058 278.492 468.552 279.09C470.057 279.688 471.335 280.512 472.387 281.563C473.449 282.604 474.279 283.86 474.877 285.332C475.486 286.804 475.79 288.387 475.79 290.08C475.79 291.785 475.486 293.378 474.877 294.861C474.268 296.333 473.433 297.595 472.37 298.646C471.319 299.687 470.04 300.506 468.535 301.104C467.041 301.701 465.436 302 463.721 302H454.723V278.193H463.721ZM463.604 297.219C465.641 297.219 467.301 296.555 468.585 295.227C469.88 293.887 470.527 292.172 470.527 290.08C470.527 287.988 469.88 286.284 468.585 284.967C467.301 283.639 465.641 282.975 463.604 282.975H459.869V297.219H463.604ZM497.745 292.753C497.745 293.251 497.712 293.738 497.646 294.214H483.75C483.96 295.465 484.458 296.427 485.244 297.103C486.041 297.767 487.043 298.099 488.249 298.099C489.101 298.099 489.865 297.91 490.54 297.534C491.226 297.158 491.758 296.638 492.134 295.974H497.347C496.683 297.977 495.532 299.571 493.894 300.755C492.256 301.928 490.374 302.515 488.249 302.515C486.467 302.515 484.846 302.094 483.385 301.253C481.935 300.401 480.795 299.233 479.965 297.75C479.135 296.267 478.72 294.623 478.72 292.819C478.72 291.004 479.129 289.355 479.948 287.872C480.778 286.389 481.918 285.227 483.368 284.386C484.829 283.545 486.456 283.124 488.249 283.124C490.086 283.124 491.736 283.561 493.196 284.436C494.657 285.299 495.781 286.461 496.567 287.922C497.352 289.383 497.745 290.993 497.745 292.753ZM488.249 287.357C487.153 287.357 486.224 287.662 485.46 288.271C484.696 288.879 484.171 289.731 483.883 290.827H492.781C492.438 289.709 491.874 288.852 491.088 288.254C490.313 287.656 489.367 287.357 488.249 287.357ZM512.562 283.888V287.972H507.947V302H502.983V287.972H499.795V283.888H502.999V282.228C502.999 280.435 503.497 279.029 504.493 278.011C505.49 276.981 506.934 276.467 508.826 276.467H512.529V280.368H509.823C508.483 280.368 507.814 281.027 507.814 282.344V283.888H512.562ZM515.774 281.198V276.583H520.721V281.198H515.774ZM515.774 302V283.639H520.738V302H515.774ZM536.285 283.207C538.366 283.207 540.02 283.904 541.249 285.299C542.477 286.682 543.091 288.542 543.091 290.877V302H538.128V291.674C538.128 288.929 537.06 287.557 534.923 287.557C533.651 287.557 532.644 287.988 531.902 288.852C531.172 289.704 530.806 290.871 530.806 292.354V302H525.842V283.639H529.246L530.209 285.913C530.917 285.072 531.797 284.413 532.848 283.938C533.911 283.451 535.056 283.207 536.285 283.207ZM565.777 292.753C565.777 293.251 565.744 293.738 565.678 294.214H551.782C551.992 295.465 552.49 296.427 553.276 297.103C554.073 297.767 555.075 298.099 556.281 298.099C557.133 298.099 557.897 297.91 558.572 297.534C559.258 297.158 559.79 296.638 560.166 295.974H565.379C564.715 297.977 563.564 299.571 561.926 300.755C560.288 301.928 558.406 302.515 556.281 302.515C554.499 302.515 552.878 302.094 551.417 301.253C549.967 300.401 548.827 299.233 547.997 297.75C547.167 296.267 546.752 294.623 546.752 292.819C546.752 291.004 547.161 289.355 547.98 287.872C548.81 286.389 549.95 285.227 551.4 284.386C552.861 283.545 554.488 283.124 556.281 283.124C558.118 283.124 559.767 283.561 561.228 284.436C562.689 285.299 563.813 286.461 564.598 287.922C565.384 289.383 565.777 290.993 565.777 292.753ZM556.281 287.357C555.185 287.357 554.256 287.662 553.492 288.271C552.728 288.879 552.203 289.731 551.915 290.827H560.813C560.47 289.709 559.906 288.852 559.12 288.254C558.345 287.656 557.399 287.357 556.281 287.357Z" fill="white"/>
<path d="M426.296 338H421.276V352H423.036V346.98H426.296C428.956 346.98 430.936 345.06 430.936 342.5C430.936 339.92 428.936 338 426.296 338ZM426.216 345.28H423.036V339.7H426.216C427.916 339.7 429.156 340.9 429.156 342.5C429.156 344.1 427.916 345.28 426.216 345.28ZM438.423 341.16C436.863 341.16 435.743 341.74 434.963 342.86L434.703 341.2H433.483V352H435.183V346.14C435.183 344.04 436.303 342.76 438.283 342.76H439.383V341.16H438.423ZM445.946 352.24C449.206 352.24 451.666 349.84 451.666 346.6C451.666 343.38 449.206 340.98 445.946 340.98C442.666 340.98 440.206 343.36 440.206 346.6C440.206 349.84 442.666 352.24 445.946 352.24ZM445.946 350.6C443.626 350.6 441.946 348.92 441.946 346.6C441.946 344.3 443.626 342.62 445.946 342.62C448.246 342.62 449.926 344.3 449.926 346.62C449.926 348.92 448.246 350.6 445.946 350.6ZM463.17 337.36V342.58C462.17 341.58 460.77 340.98 459.17 340.98C455.93 340.98 453.59 343.38 453.59 346.62C453.59 349.82 455.93 352.24 459.17 352.24C460.87 352.24 462.33 351.58 463.33 350.48L463.55 352.02H464.87V337.36H463.17ZM459.29 350.6C457.01 350.6 455.33 348.9 455.33 346.62C455.33 344.32 457.01 342.62 459.29 342.62C461.59 342.62 463.27 344.34 463.27 346.62C463.27 348.88 461.59 350.6 459.29 350.6ZM473.097 352.24C476.037 352.24 477.897 350.36 477.897 347.46V341.2H476.197V347.18C476.197 349.28 475.037 350.6 473.097 350.6C471.197 350.6 470.017 349.3 470.017 347.18V341.2H468.317V347.46C468.317 350.36 470.197 352.24 473.097 352.24ZM486.094 352.24C488.654 352.24 490.714 350.7 491.374 348.32H489.654C488.994 349.76 487.674 350.6 486.094 350.6C483.894 350.6 482.214 348.86 482.214 346.6C482.214 344.36 483.874 342.62 486.094 342.62C487.694 342.62 489.034 343.46 489.654 344.86H491.354C490.694 342.5 488.674 340.98 486.094 340.98C482.894 340.98 480.474 343.38 480.474 346.6C480.474 349.82 482.894 352.24 486.094 352.24ZM498.416 350.44C496.936 350.44 496.136 349.64 496.136 348.18V342.74H499.536V341.2H496.136V338.92H495.876L492.536 342.44V342.74H494.436V348.24C494.436 350.58 495.876 352 498.196 352H499.596V350.44H498.416ZM511.88 352.18C514.66 352.18 516.82 350.68 516.82 348.04C516.82 345.12 514.34 344.54 512.14 344C510.34 343.58 508.72 343.18 508.72 341.66C508.72 340.32 510 339.52 511.7 339.52C513.4 339.52 514.68 340.42 514.68 341.98H516.42C516.42 339.44 514.64 337.84 511.74 337.84C508.84 337.84 506.98 339.3 506.98 341.72C506.98 344.52 509.36 345.1 511.52 345.6C513.34 346.04 515 346.42 515 348.06C515 349.54 513.62 350.46 511.86 350.46C509.92 350.46 508.5 349.44 508.5 347.7H506.7C506.7 350.46 508.8 352.18 511.88 352.18ZM524.394 352.24C526.954 352.24 529.014 350.7 529.674 348.32H527.954C527.294 349.76 525.974 350.6 524.394 350.6C522.194 350.6 520.514 348.86 520.514 346.6C520.514 344.36 522.174 342.62 524.394 342.62C525.994 342.62 527.334 343.46 527.954 344.86H529.654C528.994 342.5 526.974 340.98 524.394 340.98C521.194 340.98 518.774 343.38 518.774 346.6C518.774 349.82 521.194 352.24 524.394 352.24ZM537.116 352.24C540.376 352.24 542.836 349.84 542.836 346.6C542.836 343.38 540.376 340.98 537.116 340.98C533.836 340.98 531.376 343.36 531.376 346.6C531.376 349.84 533.836 352.24 537.116 352.24ZM537.116 350.6C534.796 350.6 533.116 348.92 533.116 346.6C533.116 344.3 534.796 342.62 537.116 342.62C539.416 342.62 541.096 344.3 541.096 346.62C541.096 348.92 539.416 350.6 537.116 350.6ZM551.36 340.98C549.62 340.98 548.14 341.68 547.14 342.86L546.8 341.2H545.62V355.86H547.32V350.56C548.32 351.62 549.74 352.24 551.36 352.24C554.58 352.24 556.9 349.82 556.9 346.6C556.9 343.38 554.58 340.98 551.36 340.98ZM551.24 350.6C548.94 350.6 547.26 348.88 547.26 346.6C547.26 344.34 548.94 342.62 551.24 342.62C553.52 342.62 555.2 344.32 555.2 346.6C555.2 348.9 553.52 350.6 551.24 350.6ZM569.787 346.66C569.787 343.5 567.627 340.98 564.347 340.98C561.207 340.98 558.847 343.4 558.847 346.6C558.847 349.82 561.207 352.24 564.347 352.24C566.687 352.24 568.587 350.94 569.507 348.72H567.707C567.047 349.88 565.847 350.58 564.347 350.58C562.307 350.58 560.807 349.26 560.547 347.26H569.747C569.767 347.06 569.787 346.86 569.787 346.66ZM564.347 342.58C566.267 342.58 567.727 343.78 568.087 345.7H560.587C560.927 343.82 562.387 342.58 564.347 342.58ZM435.017 387.24C438.157 387.24 440.497 384.98 440.497 381.8V373H438.737V381.66C438.737 383.98 437.177 385.52 435.017 385.52C432.837 385.52 431.297 383.98 431.297 381.66V373H429.517V381.8C429.517 384.98 431.857 387.24 435.017 387.24ZM447.452 387.24C450.012 387.24 451.732 385.94 451.732 383.92C451.732 381.28 449.532 380.92 447.672 380.62C446.232 380.4 444.992 380.18 444.992 379.04C444.992 378.1 445.912 377.5 447.372 377.5C448.892 377.5 449.812 378.14 449.872 379.32H451.472C451.412 377.28 449.852 375.98 447.412 375.98C444.972 375.98 443.332 377.24 443.332 379.1C443.332 381.54 445.412 381.92 447.252 382.24C448.712 382.48 450.052 382.72 450.052 384C450.052 385.04 448.992 385.68 447.512 385.68C445.992 385.68 444.892 384.98 444.812 383.7H443.132C443.232 385.88 444.892 387.24 447.452 387.24ZM464.586 381.66C464.586 378.5 462.426 375.98 459.146 375.98C456.006 375.98 453.646 378.4 453.646 381.6C453.646 384.82 456.006 387.24 459.146 387.24C461.486 387.24 463.386 385.94 464.306 383.72H462.506C461.846 384.88 460.646 385.58 459.146 385.58C457.106 385.58 455.606 384.26 455.346 382.26H464.546C464.566 382.06 464.586 381.86 464.586 381.66ZM459.146 377.58C461.066 377.58 462.526 378.78 462.886 380.7H455.386C455.726 378.82 457.186 377.58 459.146 377.58ZM472.263 376.16C470.703 376.16 469.583 376.74 468.803 377.86L468.543 376.2H467.323V387H469.023V381.14C469.023 379.04 470.143 377.76 472.123 377.76H473.223V376.16H472.263ZM485.326 373H480.306V387H482.066V381.98H485.326C487.986 381.98 489.966 380.06 489.966 377.5C489.966 374.92 487.966 373 485.326 373ZM485.246 380.28H482.066V374.7H485.246C486.946 374.7 488.186 375.9 488.186 377.5C488.186 379.1 486.946 380.28 485.246 380.28ZM502.496 381.66C502.496 378.5 500.336 375.98 497.056 375.98C493.916 375.98 491.556 378.4 491.556 381.6C491.556 384.82 493.916 387.24 497.056 387.24C499.396 387.24 501.296 385.94 502.216 383.72H500.416C499.756 384.88 498.556 385.58 497.056 385.58C495.016 385.58 493.516 384.26 493.256 382.26H502.456C502.476 382.06 502.496 381.86 502.496 381.66ZM497.056 377.58C498.976 377.58 500.436 378.78 500.796 380.7H493.296C493.636 378.82 495.096 377.58 497.056 377.58ZM510.172 376.16C508.612 376.16 507.492 376.74 506.712 377.86L506.452 376.2H505.232V387H506.932V381.14C506.932 379.04 508.052 377.76 510.032 377.76H511.132V376.16H510.172ZM516.489 387.24C519.049 387.24 520.769 385.94 520.769 383.92C520.769 381.28 518.569 380.92 516.709 380.62C515.269 380.4 514.029 380.18 514.029 379.04C514.029 378.1 514.949 377.5 516.409 377.5C517.929 377.5 518.849 378.14 518.909 379.32H520.509C520.449 377.28 518.889 375.98 516.449 375.98C514.009 375.98 512.369 377.24 512.369 379.1C512.369 381.54 514.449 381.92 516.289 382.24C517.749 382.48 519.089 382.72 519.089 384C519.089 385.04 518.029 385.68 516.549 385.68C515.029 385.68 513.929 384.98 513.849 383.7H512.169C512.269 385.88 513.929 387.24 516.489 387.24ZM528.403 387.24C531.663 387.24 534.123 384.84 534.123 381.6C534.123 378.38 531.663 375.98 528.403 375.98C525.123 375.98 522.663 378.36 522.663 381.6C522.663 384.84 525.123 387.24 528.403 387.24ZM528.403 385.6C526.083 385.6 524.403 383.92 524.403 381.6C524.403 379.3 526.083 377.62 528.403 377.62C530.703 377.62 532.383 379.3 532.383 381.62C532.383 383.92 530.703 385.6 528.403 385.6ZM542.307 375.98C540.647 375.98 539.267 376.7 538.447 377.9L538.127 376.2H536.907V387H538.607V381.12C538.607 379.1 540.027 377.52 541.887 377.52C543.747 377.52 544.787 378.76 544.787 380.94V387H546.487V380.54C546.487 377.9 544.887 375.98 542.307 375.98ZM559.159 376.2L558.939 377.86C557.939 376.68 556.439 375.98 554.679 375.98C551.479 375.98 549.079 378.38 549.079 381.62C549.079 384.82 551.479 387.24 554.679 387.24C556.439 387.24 557.919 386.54 558.919 385.38L559.099 387H560.499V376.2H559.159ZM554.799 385.6C552.519 385.6 550.819 383.88 550.819 381.6C550.819 379.34 552.519 377.62 554.799 377.62C557.099 377.62 558.759 379.32 558.759 381.6C558.759 383.9 557.099 385.6 554.799 385.6Z" fill="white"/>
<circle cx="1206.5" cy="308.5" r="138.5" fill="#F0983B"/>
<path d="M1113.61 267.291C1115.96 267.291 1117.89 267.994 1119.41 269.399C1120.94 270.794 1121.7 272.565 1121.7 274.712C1121.7 276.914 1120.94 278.752 1119.42 280.224C1117.91 281.685 1116.03 282.415 1113.78 282.415C1111.5 282.415 1109.61 281.707 1108.1 280.29C1106.61 278.862 1105.86 277.064 1105.84 274.895H1110.74C1110.75 275.758 1111.04 276.472 1111.61 277.036C1112.18 277.601 1112.91 277.883 1113.78 277.883C1114.64 277.883 1115.36 277.584 1115.94 276.986C1116.51 276.378 1116.8 275.619 1116.8 274.712C1116.8 273.749 1116.49 272.963 1115.86 272.354C1115.22 271.735 1114.42 271.425 1113.43 271.425H1107.09L1106.62 270.811L1107.9 259.389H1120.12V263.738H1111.74L1111.34 267.291H1113.61Z" fill="white"/>
<path d="M1145.39 258.193C1146.96 258.193 1148.38 258.548 1149.65 259.256C1150.94 259.953 1151.94 260.933 1152.67 262.194C1153.42 263.445 1153.79 264.84 1153.79 266.378C1153.79 268.724 1152.98 270.678 1151.38 272.238C1149.78 273.788 1147.78 274.562 1145.39 274.562H1141.37V282H1136.22V258.193H1145.39ZM1145.15 269.798C1146.16 269.798 1146.98 269.477 1147.61 268.835C1148.24 268.193 1148.56 267.374 1148.56 266.378C1148.56 265.382 1148.24 264.568 1147.61 263.938C1146.99 263.296 1146.17 262.975 1145.15 262.975H1141.37V269.798H1145.15ZM1166.76 263.539H1168.39V268.221H1166.25C1164.85 268.221 1163.85 268.553 1163.24 269.217C1162.64 269.87 1162.34 270.949 1162.34 272.454V282H1157.38V263.639H1160.55L1161.43 265.896C1162.69 264.325 1164.47 263.539 1166.76 263.539ZM1179.85 282.515C1177.98 282.515 1176.29 282.094 1174.77 281.253C1173.25 280.412 1172.06 279.25 1171.2 277.767C1170.35 276.284 1169.92 274.634 1169.92 272.819C1169.92 270.982 1170.35 269.327 1171.2 267.855C1172.06 266.372 1173.25 265.216 1174.77 264.386C1176.29 263.545 1177.98 263.124 1179.85 263.124C1181.71 263.124 1183.4 263.545 1184.91 264.386C1186.43 265.216 1187.62 266.372 1188.48 267.855C1189.35 269.339 1189.78 270.993 1189.78 272.819C1189.78 274.634 1189.35 276.284 1188.48 277.767C1187.62 279.25 1186.43 280.412 1184.91 281.253C1183.4 282.094 1181.71 282.515 1179.85 282.515ZM1176.33 276.455C1177.25 277.385 1178.42 277.85 1179.85 277.85C1181.28 277.85 1182.45 277.385 1183.37 276.455C1184.29 275.514 1184.75 274.302 1184.75 272.819C1184.75 271.336 1184.29 270.13 1183.37 269.2C1182.45 268.259 1181.28 267.789 1179.85 267.789C1178.42 267.789 1177.25 268.259 1176.33 269.2C1175.41 270.13 1174.95 271.336 1174.95 272.819C1174.95 274.302 1175.41 275.514 1176.33 276.455ZM1202.39 277.584H1204.65V282H1201.13C1199.11 282 1197.52 281.419 1196.34 280.257C1195.18 279.084 1194.6 277.479 1194.6 275.442V267.623H1191.28V266.561L1198.54 258.841H1199.48V263.639H1204.55V267.623H1199.56V274.778C1199.56 275.675 1199.81 276.367 1200.3 276.854C1200.78 277.34 1201.48 277.584 1202.39 277.584ZM1216.92 282.515C1215.05 282.515 1213.36 282.094 1211.84 281.253C1210.33 280.412 1209.14 279.25 1208.27 277.767C1207.42 276.284 1206.99 274.634 1206.99 272.819C1206.99 270.982 1207.42 269.327 1208.27 267.855C1209.14 266.372 1210.33 265.216 1211.84 264.386C1213.36 263.545 1215.05 263.124 1216.92 263.124C1218.78 263.124 1220.47 263.545 1221.99 264.386C1223.5 265.216 1224.69 266.372 1225.55 267.855C1226.42 269.339 1226.85 270.993 1226.85 272.819C1226.85 274.634 1226.42 276.284 1225.55 277.767C1224.69 279.25 1223.5 280.412 1221.99 281.253C1220.47 282.094 1218.78 282.515 1216.92 282.515ZM1213.4 276.455C1214.32 277.385 1215.49 277.85 1216.92 277.85C1218.35 277.85 1219.52 277.385 1220.44 276.455C1221.36 275.514 1221.82 274.302 1221.82 272.819C1221.82 271.336 1221.36 270.13 1220.44 269.2C1219.52 268.259 1218.35 267.789 1216.92 267.789C1215.49 267.789 1214.32 268.259 1213.4 269.2C1212.48 270.13 1212.02 271.336 1212.02 272.819C1212.02 274.302 1212.48 275.514 1213.4 276.455ZM1239.46 277.584H1241.72V282H1238.2C1236.18 282 1234.59 281.419 1233.41 280.257C1232.25 279.084 1231.67 277.479 1231.67 275.442V267.623H1228.35V266.561L1235.61 258.841H1236.55V263.639H1241.62V267.623H1236.64V274.778C1236.64 275.675 1236.88 276.367 1237.37 276.854C1237.85 277.34 1238.55 277.584 1239.46 277.584ZM1258.13 263.639H1263.41L1255.4 281.751C1254.64 283.478 1253.89 284.817 1253.16 285.769C1252.44 286.731 1251.6 287.445 1250.64 287.91C1249.68 288.386 1248.51 288.624 1247.14 288.624H1245.09V284.158H1246.82C1247.99 284.158 1248.83 283.942 1249.33 283.511C1249.84 283.079 1250.38 282.155 1250.95 280.738L1251.02 280.589L1243.25 263.639H1248.65L1253.54 274.928L1258.13 263.639ZM1276.25 263.124C1278.06 263.124 1279.7 263.545 1281.16 264.386C1282.63 265.216 1283.78 266.372 1284.61 267.855C1285.44 269.339 1285.86 270.993 1285.86 272.819C1285.86 274.646 1285.44 276.306 1284.61 277.8C1283.78 279.283 1282.63 280.445 1281.16 281.286C1279.7 282.127 1278.06 282.548 1276.25 282.548C1274.39 282.548 1272.7 282.033 1271.2 281.004V288.624H1266.24V263.639H1269.51L1270.35 265.315C1272 263.854 1273.97 263.124 1276.25 263.124ZM1272.25 276.422C1273.2 277.374 1274.39 277.85 1275.83 277.85C1277.27 277.85 1278.46 277.374 1279.4 276.422C1280.35 275.47 1280.83 274.269 1280.83 272.819C1280.83 271.369 1280.35 270.169 1279.4 269.217C1278.46 268.265 1277.27 267.789 1275.83 267.789C1274.39 267.789 1273.2 268.271 1272.25 269.233C1271.3 270.185 1270.83 271.381 1270.83 272.819C1270.83 274.258 1271.3 275.459 1272.25 276.422ZM1307.56 272.753C1307.56 273.251 1307.53 273.738 1307.47 274.214H1293.57C1293.78 275.465 1294.28 276.427 1295.06 277.103C1295.86 277.767 1296.86 278.099 1298.07 278.099C1298.92 278.099 1299.68 277.91 1300.36 277.534C1301.05 277.158 1301.58 276.638 1301.95 275.974H1307.17C1306.5 277.977 1305.35 279.571 1303.71 280.755C1302.08 281.928 1300.19 282.515 1298.07 282.515C1296.29 282.515 1294.67 282.094 1293.2 281.253C1291.75 280.401 1290.61 279.233 1289.78 277.75C1288.95 276.267 1288.54 274.623 1288.54 272.819C1288.54 271.004 1288.95 269.355 1289.77 267.872C1290.6 266.389 1291.74 265.227 1293.19 264.386C1294.65 263.545 1296.28 263.124 1298.07 263.124C1299.91 263.124 1301.55 263.561 1303.02 264.436C1304.48 265.299 1305.6 266.461 1306.39 267.922C1307.17 269.383 1307.56 270.993 1307.56 272.753ZM1298.07 267.357C1296.97 267.357 1296.04 267.662 1295.28 268.271C1294.52 268.879 1293.99 269.731 1293.7 270.827H1302.6C1302.26 269.709 1301.69 268.852 1300.91 268.254C1300.13 267.656 1299.19 267.357 1298.07 267.357Z" fill="white"/>
<path d="M1171.3 318.996H1173.15L1168.74 333H1167.19L1163.34 323.049L1159.58 333H1158.04L1153.52 318.996H1155.39L1158.88 330.119L1162.98 319.27H1163.68L1167.9 330.129L1171.3 318.996ZM1175.47 320.334V318.381H1177.32V320.334H1175.47ZM1175.54 333V322.199H1177.25V333H1175.54ZM1185.8 322.141H1186.76V323.752H1185.65C1184.68 323.752 1183.92 324.051 1183.38 324.65C1182.84 325.249 1182.57 326.076 1182.57 327.131V333H1180.86V322.199H1182.07L1182.34 323.84C1183.12 322.707 1184.28 322.141 1185.8 322.141ZM1198.52 327.648C1198.52 327.844 1198.51 328.046 1198.49 328.254H1189.28C1189.41 329.257 1189.82 330.061 1190.51 330.666C1191.21 331.271 1192.06 331.574 1193.08 331.574C1193.82 331.574 1194.48 331.411 1195.06 331.086C1195.64 330.754 1196.1 330.295 1196.44 329.709H1198.24C1197.77 330.822 1197.09 331.688 1196.18 332.307C1195.29 332.925 1194.25 333.234 1193.08 333.234C1192.05 333.234 1191.11 332.99 1190.27 332.502C1189.43 332.014 1188.77 331.34 1188.28 330.48C1187.81 329.621 1187.57 328.661 1187.57 327.6C1187.57 326.545 1187.81 325.588 1188.28 324.729C1188.77 323.863 1189.43 323.186 1190.27 322.697C1191.11 322.209 1192.05 321.965 1193.08 321.965C1194.15 321.965 1195.1 322.219 1195.93 322.727C1196.76 323.234 1197.4 323.921 1197.84 324.787C1198.29 325.646 1198.52 326.6 1198.52 327.648ZM1193.08 323.576C1192.1 323.576 1191.28 323.859 1190.6 324.426C1189.92 324.986 1189.5 325.738 1189.32 326.682H1196.82C1196.64 325.725 1196.21 324.969 1195.53 324.416C1194.86 323.856 1194.04 323.576 1193.08 323.576ZM1206.88 322.277V323.703H1203.57V333H1201.87V323.703H1199.74V322.277H1201.87V321.398C1201.87 320.233 1202.15 319.367 1202.71 318.801C1203.27 318.234 1204.15 317.951 1205.34 317.951H1206.86V319.328H1205.64C1204.87 319.328 1204.33 319.491 1204 319.816C1203.68 320.135 1203.51 320.676 1203.51 321.438V322.277H1206.88ZM1213.98 322.141H1214.93V323.752H1213.83C1212.85 323.752 1212.1 324.051 1211.56 324.65C1211.02 325.249 1210.74 326.076 1210.74 327.131V333H1209.04V322.199H1210.25L1210.52 323.84C1211.3 322.707 1212.45 322.141 1213.98 322.141ZM1225.81 322.199H1227.17V333H1225.76L1225.57 331.359C1225.07 331.952 1224.45 332.414 1223.72 332.746C1223 333.072 1222.2 333.234 1221.34 333.234C1220.29 333.234 1219.34 332.99 1218.48 332.502C1217.63 332.014 1216.96 331.34 1216.47 330.48C1215.99 329.615 1215.75 328.654 1215.75 327.6C1215.75 325.985 1216.28 324.644 1217.34 323.576C1218.41 322.502 1219.74 321.965 1221.34 321.965C1222.2 321.965 1223 322.131 1223.74 322.463C1224.47 322.795 1225.1 323.26 1225.6 323.859L1225.81 322.199ZM1218.62 330.451C1219.38 331.213 1220.32 331.594 1221.46 331.594C1222.6 331.594 1223.55 331.216 1224.29 330.461C1225.05 329.699 1225.43 328.745 1225.43 327.6C1225.43 326.454 1225.05 325.503 1224.29 324.748C1223.55 323.986 1222.6 323.605 1221.46 323.605C1220.32 323.605 1219.38 323.986 1218.62 324.748C1217.87 325.51 1217.49 326.46 1217.49 327.6C1217.49 328.739 1217.87 329.689 1218.62 330.451ZM1242.73 321.965C1243.86 321.965 1244.77 322.349 1245.47 323.117C1246.17 323.885 1246.52 324.878 1246.52 326.096V333H1244.83L1244.82 326.623C1244.82 325.646 1244.6 324.885 1244.17 324.338C1243.74 323.791 1243.14 323.518 1242.38 323.518C1241.58 323.518 1240.9 323.856 1240.33 324.533C1239.77 325.204 1239.49 326.031 1239.49 327.014V333H1237.83V326.623C1237.83 325.646 1237.62 324.885 1237.19 324.338C1236.76 323.791 1236.15 323.518 1235.37 323.518C1234.58 323.518 1233.9 323.856 1233.33 324.533C1232.77 325.204 1232.49 326.031 1232.49 327.014V333H1230.78V322.199H1232.01L1232.29 323.684C1232.7 323.143 1233.22 322.723 1233.82 322.424C1234.43 322.118 1235.08 321.965 1235.75 321.965C1236.51 321.965 1237.17 322.147 1237.75 322.512C1238.32 322.876 1238.76 323.378 1239.06 324.016C1239.47 323.378 1239.99 322.876 1240.64 322.512C1241.29 322.147 1241.98 321.965 1242.73 321.965ZM1260.09 327.648C1260.09 327.844 1260.08 328.046 1260.06 328.254H1250.85C1250.98 329.257 1251.39 330.061 1252.08 330.666C1252.77 331.271 1253.63 331.574 1254.65 331.574C1255.39 331.574 1256.05 331.411 1256.63 331.086C1257.21 330.754 1257.67 330.295 1258.01 329.709H1259.8C1259.34 330.822 1258.66 331.688 1257.75 332.307C1256.85 332.925 1255.82 333.234 1254.65 333.234C1253.62 333.234 1252.68 332.99 1251.83 332.502C1250.99 332.014 1250.33 331.34 1249.85 330.48C1249.38 329.621 1249.14 328.661 1249.14 327.6C1249.14 326.545 1249.38 325.588 1249.85 324.729C1250.33 323.863 1250.99 323.186 1251.83 322.697C1252.68 322.209 1253.62 321.965 1254.65 321.965C1255.71 321.965 1256.66 322.219 1257.5 322.727C1258.33 323.234 1258.97 323.921 1259.41 324.787C1259.86 325.646 1260.09 326.6 1260.09 327.648ZM1254.65 323.576C1253.67 323.576 1252.84 323.859 1252.17 324.426C1251.49 324.986 1251.06 325.738 1250.89 326.682H1258.39C1258.2 325.725 1257.77 324.969 1257.1 324.416C1256.43 323.856 1255.61 323.576 1254.65 323.576ZM1100.02 353.996H1101.78V368H1100.02V361.643H1092.78V368H1091.03V353.996H1092.78V359.953H1100.02V353.996ZM1105.53 355.334V353.381H1107.37V355.334H1105.53ZM1105.6 368V357.199H1107.3V368H1105.6ZM1119.84 357.199H1120.97V366.486C1120.97 368.231 1120.5 369.602 1119.56 370.598C1118.61 371.594 1117.32 372.092 1115.68 372.092C1114.36 372.092 1113.25 371.766 1112.35 371.115C1111.45 370.471 1110.85 369.572 1110.56 368.42H1112.26C1112.49 369.084 1112.92 369.602 1113.54 369.973C1114.16 370.35 1114.88 370.539 1115.68 370.539C1116.77 370.539 1117.65 370.197 1118.32 369.514C1118.98 368.83 1119.31 367.896 1119.31 366.711V366.047C1118.82 366.555 1118.24 366.952 1117.56 367.238C1116.89 367.518 1116.16 367.658 1115.38 367.658C1114.39 367.658 1113.49 367.424 1112.68 366.955C1111.87 366.486 1111.23 365.845 1110.76 365.031C1110.29 364.211 1110.06 363.306 1110.06 362.316C1110.06 361.327 1110.29 360.422 1110.76 359.602C1111.23 358.781 1111.87 358.137 1112.68 357.668C1113.49 357.199 1114.39 356.965 1115.38 356.965C1116.23 356.965 1117.02 357.134 1117.74 357.473C1118.47 357.811 1119.08 358.28 1119.58 358.879L1119.84 357.199ZM1112.87 364.973C1113.58 365.676 1114.48 366.027 1115.56 366.027C1116.64 366.027 1117.53 365.679 1118.24 364.982C1118.94 364.279 1119.29 363.391 1119.29 362.316C1119.29 361.242 1118.94 360.354 1118.24 359.65C1117.53 358.947 1116.64 358.596 1115.56 358.596C1114.48 358.596 1113.58 358.951 1112.87 359.66C1112.16 360.363 1111.8 361.249 1111.8 362.316C1111.8 363.378 1112.16 364.263 1112.87 364.973ZM1130 356.965C1131.28 356.965 1132.3 357.378 1133.05 358.205C1133.8 359.025 1134.17 360.135 1134.17 361.535V368H1132.47V361.936C1132.47 360.842 1132.22 359.999 1131.72 359.406C1131.22 358.814 1130.5 358.518 1129.56 358.518C1128.64 358.518 1127.86 358.863 1127.24 359.553C1126.61 360.243 1126.3 361.096 1126.3 362.111V368H1124.59V353.342H1126.3V358.674C1126.72 358.133 1127.25 357.714 1127.89 357.414C1128.53 357.115 1129.23 356.965 1130 356.965ZM1137.29 363.234V361.594H1143.64V363.234H1137.29ZM1154.99 355.666H1148.88V360.285H1154.47V361.916H1148.88V368H1147.13V353.996H1154.99V355.666ZM1157.52 355.334V353.381H1159.37V355.334H1157.52ZM1157.59 368V357.199H1159.3V368H1157.59ZM1171.63 353.342H1173.33V368H1172.01L1171.79 366.467C1171.28 367.027 1170.67 367.463 1169.95 367.775C1169.23 368.081 1168.46 368.234 1167.63 368.234C1166.01 368.234 1164.68 367.701 1163.63 366.633C1162.58 365.559 1162.06 364.214 1162.06 362.6C1162.06 361.532 1162.29 360.572 1162.76 359.719C1163.24 358.859 1163.9 358.186 1164.74 357.697C1165.6 357.209 1166.56 356.965 1167.63 356.965C1168.42 356.965 1169.16 357.105 1169.84 357.385C1170.53 357.665 1171.12 358.059 1171.63 358.566V353.342ZM1164.92 365.461C1165.68 366.216 1166.62 366.594 1167.76 366.594C1168.9 366.594 1169.85 366.213 1170.6 365.451C1171.36 364.683 1171.74 363.732 1171.74 362.6C1171.74 361.46 1171.36 360.51 1170.6 359.748C1169.85 358.986 1168.9 358.605 1167.76 358.605C1166.62 358.605 1165.68 358.986 1164.92 359.748C1164.17 360.503 1163.8 361.454 1163.8 362.6C1163.8 363.745 1164.17 364.699 1164.92 365.461ZM1187.05 362.648C1187.05 362.844 1187.04 363.046 1187.03 363.254H1177.82C1177.95 364.257 1178.36 365.061 1179.05 365.666C1179.74 366.271 1180.6 366.574 1181.61 366.574C1182.36 366.574 1183.02 366.411 1183.6 366.086C1184.18 365.754 1184.64 365.295 1184.97 364.709H1186.77C1186.31 365.822 1185.63 366.688 1184.72 367.307C1183.82 367.925 1182.79 368.234 1181.61 368.234C1180.59 368.234 1179.65 367.99 1178.8 367.502C1177.96 367.014 1177.3 366.34 1176.82 365.48C1176.34 364.621 1176.11 363.661 1176.11 362.6C1176.11 361.545 1176.34 360.588 1176.82 359.729C1177.3 358.863 1177.96 358.186 1178.8 357.697C1179.65 357.209 1180.59 356.965 1181.61 356.965C1182.68 356.965 1183.63 357.219 1184.47 357.727C1185.3 358.234 1185.94 358.921 1186.38 359.787C1186.83 360.646 1187.05 361.6 1187.05 362.648ZM1181.61 358.576C1180.64 358.576 1179.81 358.859 1179.13 359.426C1178.46 359.986 1178.03 360.738 1177.86 361.682H1185.36C1185.17 360.725 1184.74 359.969 1184.07 359.416C1183.4 358.856 1182.58 358.576 1181.61 358.576ZM1189.79 368V353.342H1191.5V368H1189.79ZM1195.04 355.334V353.381H1196.89V355.334H1195.04ZM1195.11 368V357.199H1196.82V368H1195.11ZM1204.91 366.428H1206.08V368H1204.69C1203.52 368 1202.6 367.665 1201.93 366.994C1201.27 366.317 1200.94 365.393 1200.94 364.221V358.732H1199.03V358.43L1202.37 354.914H1202.63V357.199H1206.02V358.732H1202.63V364.172C1202.63 364.901 1202.83 365.461 1203.22 365.852C1203.61 366.236 1204.17 366.428 1204.91 366.428ZM1216.46 357.199H1218.26L1213.12 368.449C1212.53 369.732 1211.93 370.62 1211.32 371.115C1210.72 371.61 1209.91 371.857 1208.89 371.857H1207.87V370.314H1208.74C1209.46 370.314 1210 370.168 1210.36 369.875C1210.73 369.582 1211.13 368.98 1211.57 368.068L1211.96 367.268L1207.15 357.199H1209.01L1212.84 365.373L1216.46 357.199ZM1230.61 353.996C1231.93 353.996 1233.03 354.426 1233.92 355.285C1234.81 356.138 1235.26 357.206 1235.26 358.488C1235.26 359.771 1234.81 360.839 1233.93 361.691C1233.04 362.544 1231.94 362.971 1230.61 362.971H1227.34V368H1225.59V353.996H1230.61ZM1230.51 361.271C1231.37 361.271 1232.08 361.008 1232.63 360.48C1233.18 359.953 1233.46 359.289 1233.46 358.488C1233.46 357.688 1233.18 357.023 1232.63 356.496C1232.08 355.962 1231.37 355.695 1230.51 355.695H1227.34V361.271H1230.51ZM1242.73 357.141H1243.69V358.752H1242.59C1241.61 358.752 1240.85 359.051 1240.31 359.65C1239.77 360.249 1239.5 361.076 1239.5 362.131V368H1237.79V357.199H1239L1239.27 358.84C1240.06 357.707 1241.21 357.141 1242.73 357.141ZM1250.23 368.234C1248.59 368.234 1247.23 367.701 1246.13 366.633C1245.05 365.559 1244.5 364.214 1244.5 362.6C1244.5 361.532 1244.75 360.568 1245.25 359.709C1245.74 358.85 1246.42 358.179 1247.3 357.697C1248.18 357.209 1249.15 356.965 1250.23 356.965C1251.3 356.965 1252.27 357.209 1253.15 357.697C1254.03 358.179 1254.71 358.853 1255.21 359.719C1255.71 360.578 1255.96 361.538 1255.96 362.6C1255.96 363.661 1255.71 364.624 1255.21 365.49C1254.71 366.35 1254.03 367.023 1253.15 367.512C1252.27 367.993 1251.3 368.234 1250.23 368.234ZM1247.37 365.471C1248.11 366.219 1249.07 366.594 1250.23 366.594C1251.39 366.594 1252.34 366.219 1253.09 365.471C1253.84 364.715 1254.22 363.758 1254.22 362.6C1254.22 361.441 1253.84 360.487 1253.09 359.738C1252.34 358.983 1251.39 358.605 1250.23 358.605C1249.07 358.605 1248.11 358.983 1247.37 359.738C1246.62 360.487 1246.24 361.441 1246.24 362.6C1246.24 363.758 1246.62 364.715 1247.37 365.471ZM1263.08 366.428H1264.25V368H1262.86C1261.69 368 1260.77 367.665 1260.1 366.994C1259.44 366.317 1259.11 365.393 1259.11 364.221V358.732H1257.2V358.43L1260.54 354.914H1260.81V357.199H1264.2V358.732H1260.81V364.172C1260.81 364.901 1261 365.461 1261.39 365.852C1261.78 366.236 1262.35 366.428 1263.08 366.428ZM1271.47 368.234C1269.83 368.234 1268.47 367.701 1267.37 366.633C1266.29 365.559 1265.74 364.214 1265.74 362.6C1265.74 361.532 1265.99 360.568 1266.49 359.709C1266.98 358.85 1267.66 358.179 1268.54 357.697C1269.42 357.209 1270.39 356.965 1271.47 356.965C1272.54 356.965 1273.51 357.209 1274.39 357.697C1275.27 358.179 1275.95 358.853 1276.45 359.719C1276.95 360.578 1277.2 361.538 1277.2 362.6C1277.2 363.661 1276.95 364.624 1276.45 365.49C1275.95 366.35 1275.27 367.023 1274.39 367.512C1273.51 367.993 1272.54 368.234 1271.47 368.234ZM1268.61 365.471C1269.35 366.219 1270.31 366.594 1271.47 366.594C1272.63 366.594 1273.58 366.219 1274.33 365.471C1275.08 364.715 1275.46 363.758 1275.46 362.6C1275.46 361.441 1275.08 360.487 1274.33 359.738C1273.58 358.983 1272.63 358.605 1271.47 358.605C1270.31 358.605 1269.35 358.983 1268.61 359.738C1267.86 360.487 1267.48 361.441 1267.48 362.6C1267.48 363.758 1267.86 364.715 1268.61 365.471ZM1284.32 366.428H1285.49V368H1284.1C1282.93 368 1282.01 367.665 1281.34 366.994C1280.68 366.317 1280.35 365.393 1280.35 364.221V358.732H1278.44V358.43L1281.78 354.914H1282.05V357.199H1285.44V358.732H1282.05V364.172C1282.05 364.901 1282.24 365.461 1282.63 365.852C1283.02 366.236 1283.59 366.428 1284.32 366.428ZM1295.87 357.199H1297.68L1292.53 368.449C1291.94 369.732 1291.35 370.62 1290.73 371.115C1290.13 371.61 1289.32 371.857 1288.3 371.857H1287.29V370.314H1288.16C1288.87 370.314 1289.41 370.168 1289.78 369.875C1290.14 369.582 1290.54 368.98 1290.98 368.068L1291.37 367.268L1286.56 357.199H1288.42L1292.26 365.373L1295.87 357.199ZM1305.63 356.965C1306.69 356.965 1307.65 357.209 1308.49 357.697C1309.34 358.186 1310 358.859 1310.46 359.719C1310.94 360.572 1311.18 361.532 1311.18 362.6C1311.18 364.214 1310.65 365.559 1309.61 366.633C1308.56 367.701 1307.23 368.234 1305.63 368.234C1304.84 368.234 1304.09 368.088 1303.39 367.795C1302.7 367.502 1302.11 367.089 1301.6 366.555V371.857H1299.89V357.199H1301.06L1301.4 358.85C1301.91 358.257 1302.53 357.795 1303.26 357.463C1303.99 357.131 1304.78 356.965 1305.63 356.965ZM1302.65 365.451C1303.41 366.213 1304.36 366.594 1305.5 366.594C1306.64 366.594 1307.59 366.216 1308.34 365.461C1309.08 364.699 1309.46 363.745 1309.46 362.6C1309.46 361.454 1309.08 360.503 1308.34 359.748C1307.59 358.986 1306.64 358.605 1305.5 358.605C1304.36 358.605 1303.41 358.986 1302.65 359.748C1301.9 360.51 1301.52 361.46 1301.52 362.6C1301.52 363.739 1301.9 364.689 1302.65 365.451ZM1324.05 362.648C1324.05 362.844 1324.04 363.046 1324.02 363.254H1314.82C1314.95 364.257 1315.36 365.061 1316.05 365.666C1316.74 366.271 1317.6 366.574 1318.61 366.574C1319.36 366.574 1320.02 366.411 1320.6 366.086C1321.18 365.754 1321.63 365.295 1321.97 364.709H1323.77C1323.31 365.822 1322.62 366.688 1321.72 367.307C1320.82 367.925 1319.79 368.234 1318.61 368.234C1317.59 368.234 1316.65 367.99 1315.8 367.502C1314.96 367.014 1314.3 366.34 1313.82 365.48C1313.34 364.621 1313.11 363.661 1313.11 362.6C1313.11 361.545 1313.34 360.588 1313.82 359.729C1314.3 358.863 1314.96 358.186 1315.8 357.697C1316.65 357.209 1317.59 356.965 1318.61 356.965C1319.68 356.965 1320.63 357.219 1321.47 357.727C1322.3 358.234 1322.94 358.921 1323.38 359.787C1323.83 360.646 1324.05 361.6 1324.05 362.648ZM1318.61 358.576C1317.64 358.576 1316.81 358.859 1316.13 359.426C1315.46 359.986 1315.03 360.738 1314.85 361.682H1322.35C1322.17 360.725 1321.74 359.969 1321.07 359.416C1320.39 358.856 1319.58 358.576 1318.61 358.576Z" fill="white"/>
</svg>
